<ttFont>
    <TTGlyph name="A" xMin="13" yMin="0" xMax="566" yMax="700">
      <contour>
        <pt x="566" y="0" on="1"/>
        <pt x="482" y="0" on="1"/>
        <pt x="412" y="221" on="1"/>
        <pt x="161" y="221" on="1"/>
        <pt x="92" y="0" on="1"/>
        <pt x="13" y="0" on="1"/>
        <pt x="243" y="700" on="1"/>
        <pt x="334" y="700" on="1"/>
      </contour>
      <contour>
        <pt x="395" y="286" on="1"/>
        <pt x="288" y="624" on="1"/>
        <pt x="180" y="286" on="1"/>
      </contour>
    </TTGlyph>
    <TTGlyph name="AE" xMin="13" yMin="0" xMax="777" yMax="700">
      <contour>
        <pt x="777" y="0" on="1"/>
        <pt x="380" y="0" on="1"/>
        <pt x="380" y="221" on="1"/>
        <pt x="200" y="221" on="1"/>
        <pt x="92" y="0" on="1"/>
        <pt x="13" y="0" on="1"/>
        <pt x="341" y="700" on="1"/>
        <pt x="777" y="700" on="1"/>
        <pt x="777" y="635" on="1"/>
        <pt x="455" y="635" on="1"/>
        <pt x="455" y="413" on="1"/>
        <pt x="752" y="413" on="1"/>
        <pt x="752" y="346" on="1"/>
        <pt x="455" y="346" on="1"/>
        <pt x="455" y="65" on="1"/>
        <pt x="777" y="65" on="1"/>
      </contour>
      <contour>
        <pt x="380" y="634" on="1"/>
        <pt x="230" y="286" on="1"/>
        <pt x="380" y="286" on="1"/>
      </contour>
    </TTGlyph>
    <TTGlyph name="Aacute" xMin="13" yMin="0" xMax="566" yMax="876">
      <contour>
        <pt x="566" y="0" on="1"/>
        <pt x="482" y="0" on="1"/>
        <pt x="412" y="221" on="1"/>
        <pt x="161" y="221" on="1"/>
        <pt x="92" y="0" on="1"/>
        <pt x="13" y="0" on="1"/>
        <pt x="243" y="700" on="1"/>
        <pt x="334" y="700" on="1"/>
      </contour>
      <contour>
        <pt x="395" y="286" on="1"/>
        <pt x="288" y="624" on="1"/>
        <pt x="180" y="286" on="1"/>
      </contour>
      <contour>
        <pt x="254" y="752" on="1"/>
        <pt x="329" y="876" on="1"/>
        <pt x="413" y="876" on="1"/>
        <pt x="315" y="752" on="1"/>
      </contour>
    </TTGlyph>
    <TTGlyph name="Acircumflex" xMin="13" yMin="0" xMax="566" yMax="880">
      <component glyphName="A" x="0" y="0" flags="0x1004"/>
      <component glyphName="circumflex" x="45" y="60" flags="0x1004"/>
    </TTGlyph>
    <TTGlyph name="Adieresis" xMin="13" yMin="0" xMax="566" yMax="861">
      <component glyphName="A" x="0" y="0" flags="0x1004"/>
      <component glyphName="dieresis" x="42" y="46" flags="0x1004"/>
    </TTGlyph>
    <TTGlyph name="Agrave" xMin="13" yMin="0" xMax="566" yMax="877">
      <contour>
        <pt x="566" y="0" on="1"/>
        <pt x="482" y="0" on="1"/>
        <pt x="412" y="221" on="1"/>
        <pt x="161" y="221" on="1"/>
        <pt x="92" y="0" on="1"/>
        <pt x="13" y="0" on="1"/>
        <pt x="243" y="700" on="1"/>
        <pt x="334" y="700" on="1"/>
      </contour>
      <contour>
        <pt x="395" y="286" on="1"/>
        <pt x="288" y="624" on="1"/>
        <pt x="180" y="286" on="1"/>
      </contour>
      <contour>
        <pt x="313" y="753" on="1"/>
        <pt x="252" y="753" on="1"/>
        <pt x="154" y="877" on="1"/>
        <pt x="238" y="877" on="1"/>
      </contour>
    </TTGlyph>
    <TTGlyph name="Aring" xMin="13" yMin="0" xMax="566" yMax="972">
      <contour>
        <pt x="566" y="0" on="1"/>
        <pt x="482" y="0" on="1"/>
        <pt x="412" y="221" on="1"/>
        <pt x="161" y="221" on="1"/>
        <pt x="92" y="0" on="1"/>
        <pt x="13" y="0" on="1"/>
        <pt x="243" y="700" on="1"/>
        <pt x="334" y="700" on="1"/>
      </contour>
      <contour>
        <pt x="395" y="286" on="1"/>
        <pt x="288" y="624" on="1"/>
        <pt x="180" y="286" on="1"/>
      </contour>
      <contour>
        <pt x="234" y="972" on="0"/>
        <pt x="344" y="972" on="0"/>
        <pt x="402" y="911" on="0"/>
        <pt x="402" y="811" on="0"/>
        <pt x="346" y="752" on="0"/>
        <pt x="234" y="752" on="0"/>
        <pt x="178" y="811" on="0"/>
        <pt x="178" y="911" on="0"/>
      </contour>
      <contour>
        <pt x="290" y="928" on="1"/>
        <pt x="234" y="928" on="0"/>
        <pt x="234" y="863" on="1"/>
        <pt x="234" y="832" on="0"/>
        <pt x="258" y="798" on="0"/>
        <pt x="323" y="798" on="0"/>
        <pt x="348" y="832" on="0"/>
        <pt x="348" y="863" on="1"/>
        <pt x="348" y="928" on="0"/>
      </contour>
    </TTGlyph>
    <TTGlyph name="Atilde" xMin="13" yMin="0" xMax="566" yMax="870">
      <contour>
        <pt x="445" y="827" on="1"/>
        <pt x="424" y="799" on="0"/>
        <pt x="371" y="757" on="0"/>
        <pt x="332" y="757" on="0"/>
        <pt x="216" y="812" on="0"/>
        <pt x="190" y="812" on="0"/>
        <pt x="161" y="793" on="0"/>
        <pt x="153" y="784" on="1"/>
        <pt x="145" y="774" on="1"/>
        <pt x="112" y="800" on="1"/>
        <pt x="133" y="827" on="0"/>
        <pt x="185" y="870" on="0"/>
        <pt x="224" y="870" on="0"/>
        <pt x="340" y="815" on="0"/>
        <pt x="366" y="815" on="0"/>
        <pt x="395" y="834" on="0"/>
        <pt x="403" y="844" on="1"/>
        <pt x="411" y="853" on="1"/>
      </contour>
      <contour>
        <pt x="566" y="0" on="1"/>
        <pt x="482" y="0" on="1"/>
        <pt x="412" y="221" on="1"/>
        <pt x="161" y="221" on="1"/>
        <pt x="92" y="0" on="1"/>
        <pt x="13" y="0" on="1"/>
        <pt x="243" y="700" on="1"/>
        <pt x="334" y="700" on="1"/>
      </contour>
      <contour>
        <pt x="395" y="286" on="1"/>
        <pt x="288" y="624" on="1"/>
        <pt x="180" y="286" on="1"/>
      </contour>
    </TTGlyph>
    <TTGlyph name="B" xMin="91" yMin="0" xMax="532" yMax="700">
      <contour>
        <pt x="91" y="0" on="1"/>
        <pt x="91" y="700" on="1"/>
        <pt x="291" y="700" on="1"/>
        <pt x="398" y="700" on="0"/>
        <pt x="504" y="607" on="0"/>
        <pt x="504" y="521" on="1"/>
        <pt x="504" y="463" on="0"/>
        <pt x="428" y="387" on="0"/>
        <pt x="363" y="379" on="1"/>
        <pt x="443" y="367" on="0"/>
        <pt x="532" y="277" on="0"/>
        <pt x="532" y="210" on="1"/>
        <pt x="532" y="115" on="0"/>
        <pt x="401" y="0" on="0"/>
        <pt x="284" y="0" on="1"/>
      </contour>
      <contour>
        <pt x="169" y="65" on="1"/>
        <pt x="308" y="65" on="1"/>
        <pt x="374" y="65" on="0"/>
        <pt x="454" y="145" on="0"/>
        <pt x="454" y="265" on="0"/>
        <pt x="369" y="343" on="0"/>
        <pt x="287" y="343" on="1"/>
        <pt x="169" y="343" on="1"/>
      </contour>
      <contour>
        <pt x="296" y="635" on="1"/>
        <pt x="169" y="635" on="1"/>
        <pt x="169" y="407" on="1"/>
        <pt x="286" y="407" on="1"/>
        <pt x="341" y="407" on="0"/>
        <pt x="426" y="468" on="0"/>
        <pt x="426" y="522" on="1"/>
        <pt x="426" y="631" on="0"/>
      </contour>
    </TTGlyph>
    <TTGlyph name="C" xMin="50" yMin="-6" xMax="534" yMax="709">
      <contour>
        <pt x="346" y="-6" on="1"/>
        <pt x="203" y="-6" on="0"/>
        <pt x="50" y="187" on="0"/>
        <pt x="50" y="517" on="0"/>
        <pt x="212" y="709" on="0"/>
        <pt x="357" y="709" on="1"/>
        <pt x="437" y="709" on="0"/>
        <pt x="514" y="680" on="1"/>
        <pt x="496" y="618" on="1"/>
        <pt x="435" y="644" on="0"/>
        <pt x="352" y="644" on="1"/>
        <pt x="247" y="644" on="0"/>
        <pt x="125" y="491" on="0"/>
        <pt x="125" y="224" on="0"/>
        <pt x="240" y="59" on="0"/>
        <pt x="343" y="59" on="1"/>
        <pt x="411" y="59" on="0"/>
        <pt x="514" y="98" on="1"/>
        <pt x="534" y="46" on="1"/>
        <pt x="448" y="-6" on="0"/>
      </contour>
    </TTGlyph>
    <TTGlyph name="Ccedilla" xMin="50" yMin="-182" xMax="534" yMax="708">
      <contour>
        <pt x="379" y="-5" on="1"/>
        <pt x="379" y="-53" on="0"/>
        <pt x="356" y="-117" on="0"/>
        <pt x="316" y="-182" on="1"/>
        <pt x="267" y="-151" on="1"/>
        <pt x="293" y="-99" on="0"/>
        <pt x="307" y="-50" on="0"/>
        <pt x="307" y="-4" on="1"/>
        <pt x="182" y="9" on="0"/>
        <pt x="50" y="199" on="0"/>
        <pt x="50" y="517" on="0"/>
        <pt x="211" y="708" on="0"/>
        <pt x="356" y="708" on="1"/>
        <pt x="440" y="708" on="0"/>
        <pt x="514" y="679" on="1"/>
        <pt x="496" y="617" on="1"/>
        <pt x="435" y="643" on="0"/>
        <pt x="352" y="643" on="1"/>
        <pt x="247" y="643" on="0"/>
        <pt x="125" y="491" on="0"/>
        <pt x="125" y="224" on="0"/>
        <pt x="240" y="59" on="0"/>
        <pt x="343" y="59" on="1"/>
        <pt x="415" y="59" on="0"/>
        <pt x="514" y="98" on="1"/>
        <pt x="534" y="46" on="1"/>
        <pt x="489" y="18" on="0"/>
      </contour>
    </TTGlyph>
    <TTGlyph name="Crculo0" xMin="35" yMin="-5" xMax="591" yMax="710">
      <contour>
        <pt x="277" y="159" on="1"/>
        <pt x="277" y="436" on="1"/>
        <pt x="348" y="436" on="1"/>
        <pt x="348" y="159" on="1"/>
      </contour>
      <contour>
        <pt x="312" y="-5" on="1"/>
        <pt x="175" y="-5" on="0"/>
        <pt x="35" y="198" on="0"/>
        <pt x="35" y="512" on="0"/>
        <pt x="176" y="710" on="0"/>
        <pt x="449" y="710" on="0"/>
        <pt x="591" y="512" on="0"/>
        <pt x="591" y="355" on="1"/>
        <pt x="591" y="140" on="0"/>
        <pt x="468" y="45" on="1"/>
        <pt x="404" y="-5" on="0"/>
      </contour>
      <contour>
        <pt x="314" y="645" on="1"/>
        <pt x="212" y="645" on="0"/>
        <pt x="111" y="475" on="0"/>
        <pt x="111" y="229" on="0"/>
        <pt x="214" y="61" on="0"/>
        <pt x="414" y="61" on="0"/>
        <pt x="516" y="231" on="0"/>
        <pt x="516" y="360" on="1"/>
        <pt x="516" y="522" on="0"/>
        <pt x="426" y="602" on="1"/>
        <pt x="378" y="645" on="0"/>
      </contour>
      <contour>
        <pt x="350" y="565" on="1"/>
        <pt x="350" y="476" on="1"/>
        <pt x="275" y="476" on="1"/>
        <pt x="275" y="565" on="1"/>
      </contour>
    </TTGlyph>
    <TTGlyph name="D" xMin="91" yMin="0" xMax="597" yMax="700">
      <contour>
        <pt x="597" y="375" on="1"/>
        <pt x="597" y="206" on="0"/>
        <pt x="401" y="0" on="0"/>
        <pt x="237" y="0" on="1"/>
        <pt x="91" y="0" on="1"/>
        <pt x="91" y="700" on="1"/>
        <pt x="268" y="700" on="1"/>
        <pt x="417" y="700" on="0"/>
        <pt x="597" y="518" on="0"/>
      </contour>
      <contour>
        <pt x="516" y="383" on="1"/>
        <pt x="516" y="501" on="0"/>
        <pt x="372" y="635" on="0"/>
        <pt x="272" y="635" on="1"/>
        <pt x="172" y="635" on="1"/>
        <pt x="172" y="65" on="1"/>
        <pt x="246" y="65" on="1"/>
        <pt x="359" y="65" on="0"/>
        <pt x="516" y="235" on="0"/>
      </contour>
    </TTGlyph>
    <TTGlyph name="Delta" xMin="30" yMin="0" xMax="583" yMax="700">
      <contour>
        <pt x="583" y="0" on="1"/>
        <pt x="30" y="0" on="1"/>
        <pt x="260" y="700" on="1"/>
        <pt x="351" y="700" on="1"/>
      </contour>
      <contour>
        <pt x="476" y="77" on="1"/>
        <pt x="305" y="624" on="1"/>
        <pt x="125" y="77" on="1"/>
      </contour>
    </TTGlyph>
    <TTGlyph name="E" xMin="91" yMin="0" xMax="468" yMax="700">
      <contour>
        <pt x="468" y="0" on="1"/>
        <pt x="91" y="0" on="1"/>
        <pt x="91" y="700" on="1"/>
        <pt x="468" y="700" on="1"/>
        <pt x="468" y="635" on="1"/>
        <pt x="166" y="635" on="1"/>
        <pt x="166" y="413" on="1"/>
        <pt x="443" y="413" on="1"/>
        <pt x="443" y="346" on="1"/>
        <pt x="166" y="346" on="1"/>
        <pt x="166" y="65" on="1"/>
        <pt x="468" y="65" on="1"/>
      </contour>
    </TTGlyph>
    <TTGlyph name="Eacute" xMin="91" yMin="0" xMax="468" yMax="876">
      <contour>
        <pt x="468" y="0" on="1"/>
        <pt x="91" y="0" on="1"/>
        <pt x="91" y="700" on="1"/>
        <pt x="468" y="700" on="1"/>
        <pt x="468" y="635" on="1"/>
        <pt x="166" y="635" on="1"/>
        <pt x="166" y="413" on="1"/>
        <pt x="443" y="413" on="1"/>
        <pt x="443" y="346" on="1"/>
        <pt x="166" y="346" on="1"/>
        <pt x="166" y="65" on="1"/>
        <pt x="468" y="65" on="1"/>
      </contour>
      <contour>
        <pt x="215" y="752" on="1"/>
        <pt x="290" y="876" on="1"/>
        <pt x="374" y="876" on="1"/>
        <pt x="276" y="752" on="1"/>
      </contour>
    </TTGlyph>
    <TTGlyph name="Ecircumflex" xMin="91" yMin="0" xMax="468" yMax="880">
      <contour>
        <pt x="468" y="0" on="1"/>
        <pt x="91" y="0" on="1"/>
        <pt x="91" y="700" on="1"/>
        <pt x="468" y="700" on="1"/>
        <pt x="468" y="635" on="1"/>
        <pt x="166" y="635" on="1"/>
        <pt x="166" y="413" on="1"/>
        <pt x="443" y="413" on="1"/>
        <pt x="443" y="346" on="1"/>
        <pt x="166" y="346" on="1"/>
        <pt x="166" y="65" on="1"/>
        <pt x="468" y="65" on="1"/>
      </contour>
      <contour>
        <pt x="238" y="880" on="1"/>
        <pt x="285" y="880" on="1"/>
        <pt x="421" y="780" on="1"/>
        <pt x="402" y="751" on="1"/>
        <pt x="261" y="826" on="1"/>
        <pt x="119" y="751" on="1"/>
        <pt x="100" y="780" on="1"/>
      </contour>
    </TTGlyph>
    <TTGlyph name="Edieresis" xMin="91" yMin="0" xMax="468" yMax="861">
      <contour>
        <pt x="468" y="0" on="1"/>
        <pt x="91" y="0" on="1"/>
        <pt x="91" y="700" on="1"/>
        <pt x="468" y="700" on="1"/>
        <pt x="468" y="635" on="1"/>
        <pt x="166" y="635" on="1"/>
        <pt x="166" y="413" on="1"/>
        <pt x="443" y="413" on="1"/>
        <pt x="443" y="346" on="1"/>
        <pt x="166" y="346" on="1"/>
        <pt x="166" y="65" on="1"/>
        <pt x="468" y="65" on="1"/>
      </contour>
      <contour>
        <pt x="151" y="755" on="1"/>
        <pt x="151" y="861" on="1"/>
        <pt x="222" y="861" on="1"/>
        <pt x="222" y="755" on="1"/>
      </contour>
      <contour>
        <pt x="330" y="755" on="1"/>
        <pt x="330" y="861" on="1"/>
        <pt x="401" y="861" on="1"/>
        <pt x="401" y="755" on="1"/>
      </contour>
    </TTGlyph>
    <TTGlyph name="Egrave" xMin="91" yMin="0" xMax="468" yMax="877">
      <contour>
        <pt x="468" y="0" on="1"/>
        <pt x="91" y="0" on="1"/>
        <pt x="91" y="700" on="1"/>
        <pt x="468" y="700" on="1"/>
        <pt x="468" y="635" on="1"/>
        <pt x="166" y="635" on="1"/>
        <pt x="166" y="413" on="1"/>
        <pt x="443" y="413" on="1"/>
        <pt x="443" y="346" on="1"/>
        <pt x="166" y="346" on="1"/>
        <pt x="166" y="65" on="1"/>
        <pt x="468" y="65" on="1"/>
      </contour>
      <contour>
        <pt x="330" y="753" on="1"/>
        <pt x="269" y="753" on="1"/>
        <pt x="171" y="877" on="1"/>
        <pt x="255" y="877" on="1"/>
      </contour>
    </TTGlyph>
    <TTGlyph name="Eth" xMin="36" yMin="0" xMax="625" yMax="700">
      <contour>
        <pt x="119" y="317" on="1"/>
        <pt x="36" y="317" on="1"/>
        <pt x="36" y="382" on="1"/>
        <pt x="119" y="382" on="1"/>
        <pt x="119" y="700" on="1"/>
        <pt x="296" y="700" on="1"/>
        <pt x="445" y="700" on="0"/>
        <pt x="625" y="518" on="0"/>
        <pt x="625" y="375" on="1"/>
        <pt x="625" y="206" on="0"/>
        <pt x="429" y="0" on="0"/>
        <pt x="265" y="0" on="1"/>
        <pt x="119" y="0" on="1"/>
      </contour>
      <contour>
        <pt x="200" y="317" on="1"/>
        <pt x="200" y="65" on="1"/>
        <pt x="274" y="65" on="1"/>
        <pt x="387" y="65" on="0"/>
        <pt x="544" y="235" on="0"/>
        <pt x="544" y="383" on="1"/>
        <pt x="544" y="501" on="0"/>
        <pt x="400" y="635" on="0"/>
        <pt x="300" y="635" on="1"/>
        <pt x="200" y="635" on="1"/>
        <pt x="200" y="382" on="1"/>
        <pt x="376" y="382" on="1"/>
        <pt x="376" y="317" on="1"/>
      </contour>
    </TTGlyph>
    <TTGlyph name="Euro" xMin="21" yMin="-6" xMax="582" yMax="710">
      <contour>
        <pt x="98" y="305" on="1"/>
        <pt x="97" y="362" on="1"/>
        <pt x="97" y="371" on="0"/>
        <pt x="99" y="401" on="1"/>
        <pt x="21" y="401" on="1"/>
        <pt x="21" y="466" on="1"/>
        <pt x="109" y="466" on="1"/>
        <pt x="135" y="580" on="0"/>
        <pt x="289" y="710" on="0"/>
        <pt x="406" y="710" on="1"/>
        <pt x="482" y="710" on="0"/>
        <pt x="562" y="680" on="1"/>
        <pt x="544" y="618" on="1"/>
        <pt x="480" y="645" on="0"/>
        <pt x="317" y="645" on="0"/>
        <pt x="206" y="550" on="0"/>
        <pt x="185" y="466" on="1"/>
        <pt x="421" y="466" on="1"/>
        <pt x="421" y="400" on="1"/>
        <pt x="175" y="400" on="1"/>
        <pt x="173" y="364" on="0"/>
        <pt x="173" y="324" on="0"/>
        <pt x="174" y="305" on="1"/>
        <pt x="421" y="305" on="1"/>
        <pt x="421" y="240" on="1"/>
        <pt x="181" y="240" on="1"/>
        <pt x="201" y="154" on="0"/>
        <pt x="310" y="59" on="0"/>
        <pt x="463" y="59" on="0"/>
        <pt x="562" y="98" on="1"/>
        <pt x="582" y="46" on="1"/>
        <pt x="496" y="-6" on="0"/>
        <pt x="275" y="-6" on="0"/>
        <pt x="126" y="127" on="0"/>
        <pt x="104" y="240" on="1"/>
        <pt x="21" y="240" on="1"/>
        <pt x="21" y="305" on="1"/>
      </contour>
    </TTGlyph>
    <TTGlyph name="F" xMin="91" yMin="0" xMax="469" yMax="700">
      <contour>
        <pt x="469" y="700" on="1"/>
        <pt x="469" y="635" on="1"/>
        <pt x="166" y="635" on="1"/>
        <pt x="166" y="413" on="1"/>
        <pt x="445" y="413" on="1"/>
        <pt x="445" y="346" on="1"/>
        <pt x="166" y="346" on="1"/>
        <pt x="166" y="0" on="1"/>
        <pt x="91" y="0" on="1"/>
        <pt x="91" y="700" on="1"/>
      </contour>
    </TTGlyph>
    <TTGlyph name="G" xMin="46" yMin="-6" xMax="560" yMax="710">
      <contour>
        <pt x="362" y="-6" on="1"/>
        <pt x="217" y="-6" on="0"/>
        <pt x="46" y="190" on="0"/>
        <pt x="46" y="517" on="0"/>
        <pt x="208" y="710" on="0"/>
        <pt x="353" y="710" on="1"/>
        <pt x="445" y="710" on="0"/>
        <pt x="540" y="674" on="1"/>
        <pt x="522" y="612" on="1"/>
        <pt x="488" y="626" on="0"/>
        <pt x="378" y="645" on="0"/>
        <pt x="348" y="645" on="1"/>
        <pt x="243" y="645" on="0"/>
        <pt x="121" y="491" on="0"/>
        <pt x="121" y="229" on="0"/>
        <pt x="250" y="59" on="0"/>
        <pt x="351" y="59" on="1"/>
        <pt x="422" y="59" on="0"/>
        <pt x="485" y="79" on="1"/>
        <pt x="485" y="290" on="1"/>
        <pt x="339" y="290" on="1"/>
        <pt x="339" y="355" on="1"/>
        <pt x="560" y="355" on="1"/>
        <pt x="560" y="48" on="1"/>
        <pt x="466" y="-6" on="0"/>
      </contour>
    </TTGlyph>
    <TTGlyph name="H" xMin="91" yMin="0" xMax="573" yMax="700">
      <contour>
        <pt x="573" y="0" on="1"/>
        <pt x="498" y="0" on="1"/>
        <pt x="498" y="331" on="1"/>
        <pt x="166" y="331" on="1"/>
        <pt x="166" y="0" on="1"/>
        <pt x="91" y="0" on="1"/>
        <pt x="91" y="700" on="1"/>
        <pt x="166" y="700" on="1"/>
        <pt x="166" y="396" on="1"/>
        <pt x="498" y="396" on="1"/>
        <pt x="498" y="700" on="1"/>
        <pt x="573" y="700" on="1"/>
      </contour>
    </TTGlyph>
    <TTGlyph name="I" xMin="91" yMin="0" xMax="166" yMax="700">
      <contour>
        <pt x="166" y="0" on="1"/>
        <pt x="91" y="0" on="1"/>
        <pt x="91" y="700" on="1"/>
        <pt x="166" y="700" on="1"/>
      </contour>
    </TTGlyph>
    <TTGlyph name="Iacute" xMin="63" yMin="0" xMax="229" yMax="877">
      <contour>
        <pt x="138" y="0" on="1"/>
        <pt x="63" y="0" on="1"/>
        <pt x="63" y="700" on="1"/>
        <pt x="138" y="700" on="1"/>
      </contour>
      <contour>
        <pt x="70" y="753" on="1"/>
        <pt x="145" y="877" on="1"/>
        <pt x="229" y="877" on="1"/>
        <pt x="131" y="753" on="1"/>
      </contour>
    </TTGlyph>
    <TTGlyph name="Icircumflex" xMin="-1" yMin="0" xMax="320" yMax="883">
      <contour>
        <pt x="196" y="0" on="1"/>
        <pt x="121" y="0" on="1"/>
        <pt x="121" y="700" on="1"/>
        <pt x="196" y="700" on="1"/>
      </contour>
      <contour>
        <pt x="137" y="883" on="1"/>
        <pt x="184" y="883" on="1"/>
        <pt x="320" y="783" on="1"/>
        <pt x="301" y="754" on="1"/>
        <pt x="160" y="829" on="1"/>
        <pt x="18" y="754" on="1"/>
        <pt x="-1" y="783" on="1"/>
      </contour>
    </TTGlyph>
    <TTGlyph name="Idieresis" xMin="-13" yMin="0" xMax="237" yMax="861">
      <contour>
        <pt x="149" y="0" on="1"/>
        <pt x="74" y="0" on="1"/>
        <pt x="74" y="700" on="1"/>
        <pt x="149" y="700" on="1"/>
      </contour>
      <contour>
        <pt x="-13" y="755" on="1"/>
        <pt x="-13" y="861" on="1"/>
        <pt x="58" y="861" on="1"/>
        <pt x="58" y="755" on="1"/>
      </contour>
      <contour>
        <pt x="166" y="755" on="1"/>
        <pt x="166" y="861" on="1"/>
        <pt x="237" y="861" on="1"/>
        <pt x="237" y="755" on="1"/>
      </contour>
    </TTGlyph>
    <TTGlyph name="Igrave" xMin="22" yMin="0" xMax="187" yMax="877">
      <contour>
        <pt x="187" y="0" on="1"/>
        <pt x="112" y="0" on="1"/>
        <pt x="112" y="700" on="1"/>
        <pt x="187" y="700" on="1"/>
      </contour>
      <contour>
        <pt x="181" y="753" on="1"/>
        <pt x="120" y="753" on="1"/>
        <pt x="22" y="877" on="1"/>
        <pt x="106" y="877" on="1"/>
      </contour>
    </TTGlyph>
    <TTGlyph name="Itilde" xMin="-38" yMin="0" xMax="295" yMax="878">
      <component glyphName="I" x="0" y="0" flags="0x1004"/>
      <component glyphName="tilde" x="-138" y="75" flags="0x1004"/>
    </TTGlyph>
    <TTGlyph name="J" xMin="1" yMin="-7" xMax="252" yMax="700">
      <contour>
        <pt x="252" y="211" on="1"/>
        <pt x="252" y="-7" on="0"/>
        <pt x="101" y="-7" on="1"/>
        <pt x="48" y="-7" on="0"/>
        <pt x="1" y="4" on="1"/>
        <pt x="1" y="67" on="1"/>
        <pt x="55" y="58" on="0"/>
        <pt x="90" y="58" on="1"/>
        <pt x="140" y="58" on="0"/>
        <pt x="177" y="150" on="0"/>
        <pt x="177" y="228" on="1"/>
        <pt x="177" y="641" on="1"/>
        <pt x="32" y="641" on="1"/>
        <pt x="32" y="700" on="1"/>
        <pt x="252" y="700" on="1"/>
      </contour>
    </TTGlyph>
    <TTGlyph name="Jcircumflex" xMin="1" yMin="-7" xMax="332" yMax="880">
      <component glyphName="J" x="0" y="0" flags="0x1004"/>
      <component glyphName="circumflex" x="-74" y="60" flags="0x1004"/>
    </TTGlyph>
    <TTGlyph name="K" xMin="91" yMin="0" xMax="555" yMax="700">
      <contour>
        <pt x="555" y="0" on="1"/>
        <pt x="461" y="0" on="1"/>
        <pt x="256" y="383" on="1"/>
        <pt x="166" y="288" on="1"/>
        <pt x="166" y="0" on="1"/>
        <pt x="91" y="0" on="1"/>
        <pt x="91" y="699" on="1"/>
        <pt x="165" y="699" on="1"/>
        <pt x="165" y="384" on="1"/>
        <pt x="457" y="700" on="1"/>
        <pt x="549" y="700" on="1"/>
        <pt x="307" y="434" on="1"/>
      </contour>
    </TTGlyph>
    <TTGlyph name="L" xMin="91" yMin="0" xMax="466" yMax="700">
      <contour>
        <pt x="466" y="0" on="1"/>
        <pt x="91" y="0" on="1"/>
        <pt x="91" y="700" on="1"/>
        <pt x="166" y="700" on="1"/>
        <pt x="166" y="65" on="1"/>
        <pt x="466" y="65" on="1"/>
      </contour>
    </TTGlyph>
    <TTGlyph name="Lslash" xMin="23" yMin="0" xMax="396" yMax="699">
      <contour>
        <pt x="106" y="345" on="1"/>
        <pt x="23" y="295" on="1"/>
        <pt x="23" y="367" on="1"/>
        <pt x="106" y="416" on="1"/>
        <pt x="106" y="699" on="1"/>
        <pt x="181" y="699" on="1"/>
        <pt x="181" y="448" on="1"/>
        <pt x="291" y="514" on="1"/>
        <pt x="291" y="442" on="1"/>
        <pt x="181" y="378" on="1"/>
        <pt x="181" y="66" on="1"/>
        <pt x="396" y="66" on="1"/>
        <pt x="396" y="0" on="1"/>
        <pt x="106" y="0" on="1"/>
      </contour>
    </TTGlyph>
    <TTGlyph name="M" xMin="56" yMin="0" xMax="681" yMax="700">
      <contour>
        <pt x="681" y="0" on="1"/>
        <pt x="606" y="0" on="1"/>
        <pt x="606" y="574" on="1"/>
        <pt x="381" y="184" on="1"/>
        <pt x="355" y="185" on="1"/>
        <pt x="130" y="573" on="1"/>
        <pt x="130" y="0" on="1"/>
        <pt x="56" y="0" on="1"/>
        <pt x="56" y="700" on="1"/>
        <pt x="140" y="700" on="1"/>
        <pt x="369" y="315" on="1"/>
        <pt x="606" y="700" on="1"/>
        <pt x="681" y="700" on="1"/>
      </contour>
    </TTGlyph>
    <TTGlyph name="N" xMin="91" yMin="-1" xMax="588" yMax="700">
      <contour>
        <pt x="588" y="-1" on="1"/>
        <pt x="506" y="-1" on="1"/>
        <pt x="169" y="560" on="1"/>
        <pt x="169" y="0" on="1"/>
        <pt x="91" y="0" on="1"/>
        <pt x="91" y="700" on="1"/>
        <pt x="169" y="700" on="1"/>
        <pt x="513" y="118" on="1"/>
        <pt x="513" y="700" on="1"/>
        <pt x="588" y="700" on="1"/>
      </contour>
    </TTGlyph>
    <TTGlyph name="Nacute" xMin="91" yMin="-1" xMax="588" yMax="876">
      <contour>
        <pt x="588" y="-1" on="1"/>
        <pt x="506" y="-1" on="1"/>
        <pt x="169" y="560" on="1"/>
        <pt x="169" y="0" on="1"/>
        <pt x="91" y="0" on="1"/>
        <pt x="91" y="700" on="1"/>
        <pt x="169" y="700" on="1"/>
        <pt x="513" y="118" on="1"/>
        <pt x="513" y="700" on="1"/>
        <pt x="588" y="700" on="1"/>
      </contour>
      <contour>
        <pt x="318" y="752" on="1"/>
        <pt x="393" y="876" on="1"/>
        <pt x="477" y="876" on="1"/>
        <pt x="379" y="752" on="1"/>
      </contour>
    </TTGlyph>
    <TTGlyph name="Ntilde" xMin="91" yMin="-1" xMax="588" yMax="874">
      <contour>
        <pt x="492" y="831" on="1"/>
        <pt x="492" y="824" on="1"/>
        <pt x="471" y="796" on="0"/>
        <pt x="418" y="754" on="0"/>
        <pt x="379" y="754" on="0"/>
        <pt x="263" y="809" on="0"/>
        <pt x="237" y="809" on="0"/>
        <pt x="208" y="790" on="0"/>
        <pt x="200" y="780" on="1"/>
        <pt x="192" y="771" on="1"/>
        <pt x="159" y="804" on="1"/>
        <pt x="180" y="831" on="0"/>
        <pt x="232" y="874" on="0"/>
        <pt x="271" y="874" on="0"/>
        <pt x="387" y="819" on="0"/>
        <pt x="413" y="819" on="0"/>
        <pt x="442" y="838" on="0"/>
        <pt x="450" y="848" on="1"/>
        <pt x="458" y="857" on="1"/>
      </contour>
      <contour>
        <pt x="588" y="-1" on="1"/>
        <pt x="506" y="-1" on="1"/>
        <pt x="169" y="560" on="1"/>
        <pt x="169" y="0" on="1"/>
        <pt x="91" y="0" on="1"/>
        <pt x="91" y="700" on="1"/>
        <pt x="169" y="700" on="1"/>
        <pt x="513" y="118" on="1"/>
        <pt x="513" y="700" on="1"/>
        <pt x="588" y="700" on="1"/>
      </contour>
    </TTGlyph>
    <TTGlyph name="O" xMin="46" yMin="-5" xMax="602" yMax="710">
      <contour>
        <pt x="323" y="-5" on="1"/>
        <pt x="186" y="-5" on="0"/>
        <pt x="46" y="198" on="0"/>
        <pt x="46" y="512" on="0"/>
        <pt x="187" y="710" on="0"/>
        <pt x="460" y="710" on="0"/>
        <pt x="602" y="512" on="0"/>
        <pt x="602" y="355" on="1"/>
        <pt x="602" y="140" on="0"/>
        <pt x="480" y="45" on="1"/>
        <pt x="415" y="-5" on="0"/>
      </contour>
      <contour>
        <pt x="325" y="645" on="1"/>
        <pt x="223" y="645" on="0"/>
        <pt x="122" y="475" on="0"/>
        <pt x="122" y="229" on="0"/>
        <pt x="225" y="61" on="0"/>
        <pt x="425" y="61" on="0"/>
        <pt x="527" y="231" on="0"/>
        <pt x="527" y="360" on="1"/>
        <pt x="527" y="522" on="0"/>
        <pt x="436" y="602" on="1"/>
        <pt x="389" y="645" on="0"/>
      </contour>
    </TTGlyph>
    <TTGlyph name="OE" xMin="45" yMin="0" xMax="798" yMax="700">
      <contour>
        <pt x="798" y="0" on="1"/>
        <pt x="322" y="1" on="1"/>
        <pt x="185" y="1" on="0"/>
        <pt x="45" y="199" on="0"/>
        <pt x="45" y="511" on="0"/>
        <pt x="186" y="700" on="0"/>
        <pt x="322" y="700" on="1"/>
        <pt x="798" y="700" on="1"/>
        <pt x="798" y="634" on="1"/>
        <pt x="496" y="634" on="1"/>
        <pt x="496" y="413" on="1"/>
        <pt x="773" y="413" on="1"/>
        <pt x="773" y="346" on="1"/>
        <pt x="496" y="346" on="1"/>
        <pt x="496" y="71" on="1"/>
        <pt x="798" y="71" on="1"/>
      </contour>
      <contour>
        <pt x="323" y="70" on="1"/>
        <pt x="429" y="70" on="1"/>
        <pt x="429" y="634" on="1"/>
        <pt x="324" y="634" on="1"/>
        <pt x="271" y="634" on="0"/>
        <pt x="190" y="588" on="0"/>
        <pt x="167" y="548" on="1"/>
        <pt x="121" y="468" on="0"/>
        <pt x="121" y="230" on="0"/>
        <pt x="224" y="70" on="0"/>
      </contour>
    </TTGlyph>
    <TTGlyph name="Oacute" xMin="46" yMin="-5" xMax="602" yMax="877">
      <contour>
        <pt x="323" y="-5" on="1"/>
        <pt x="186" y="-5" on="0"/>
        <pt x="46" y="198" on="0"/>
        <pt x="46" y="512" on="0"/>
        <pt x="187" y="710" on="0"/>
        <pt x="460" y="710" on="0"/>
        <pt x="602" y="512" on="0"/>
        <pt x="602" y="355" on="1"/>
        <pt x="602" y="140" on="0"/>
        <pt x="480" y="45" on="1"/>
        <pt x="415" y="-5" on="0"/>
      </contour>
      <contour>
        <pt x="325" y="645" on="1"/>
        <pt x="223" y="645" on="0"/>
        <pt x="122" y="475" on="0"/>
        <pt x="122" y="229" on="0"/>
        <pt x="225" y="61" on="0"/>
        <pt x="425" y="61" on="0"/>
        <pt x="527" y="231" on="0"/>
        <pt x="527" y="360" on="1"/>
        <pt x="527" y="522" on="0"/>
        <pt x="436" y="602" on="1"/>
        <pt x="389" y="645" on="0"/>
      </contour>
      <contour>
        <pt x="276" y="753" on="1"/>
        <pt x="351" y="877" on="1"/>
        <pt x="435" y="877" on="1"/>
        <pt x="337" y="753" on="1"/>
      </contour>
    </TTGlyph>
    <TTGlyph name="Ocircumflex" xMin="46" yMin="-5" xMax="602" yMax="883">
      <component glyphName="O" x="0" y="0" flags="0x1004"/>
      <component glyphName="circumflex" x="78" y="63" flags="0x1004"/>
    </TTGlyph>
    <TTGlyph name="Odieresis" xMin="46" yMin="-5" xMax="602" yMax="860">
      <contour>
        <pt x="323" y="-5" on="1"/>
        <pt x="186" y="-5" on="0"/>
        <pt x="46" y="198" on="0"/>
        <pt x="46" y="512" on="0"/>
        <pt x="187" y="710" on="0"/>
        <pt x="460" y="710" on="0"/>
        <pt x="602" y="512" on="0"/>
        <pt x="602" y="355" on="1"/>
        <pt x="602" y="140" on="0"/>
        <pt x="480" y="45" on="1"/>
        <pt x="415" y="-5" on="0"/>
      </contour>
      <contour>
        <pt x="325" y="645" on="1"/>
        <pt x="223" y="645" on="0"/>
        <pt x="122" y="475" on="0"/>
        <pt x="122" y="229" on="0"/>
        <pt x="225" y="61" on="0"/>
        <pt x="425" y="61" on="0"/>
        <pt x="527" y="231" on="0"/>
        <pt x="527" y="360" on="1"/>
        <pt x="527" y="522" on="0"/>
        <pt x="436" y="602" on="1"/>
        <pt x="389" y="645" on="0"/>
      </contour>
      <contour>
        <pt x="199" y="754" on="1"/>
        <pt x="199" y="860" on="1"/>
        <pt x="270" y="860" on="1"/>
        <pt x="270" y="754" on="1"/>
      </contour>
      <contour>
        <pt x="378" y="754" on="1"/>
        <pt x="378" y="860" on="1"/>
        <pt x="449" y="860" on="1"/>
        <pt x="449" y="754" on="1"/>
      </contour>
    </TTGlyph>
    <TTGlyph name="Ograve" xMin="46" yMin="-5" xMax="602" yMax="877">
      <contour>
        <pt x="323" y="-5" on="1"/>
        <pt x="186" y="-5" on="0"/>
        <pt x="46" y="198" on="0"/>
        <pt x="46" y="512" on="0"/>
        <pt x="187" y="710" on="0"/>
        <pt x="460" y="710" on="0"/>
        <pt x="602" y="512" on="0"/>
        <pt x="602" y="355" on="1"/>
        <pt x="602" y="140" on="0"/>
        <pt x="480" y="45" on="1"/>
        <pt x="415" y="-5" on="0"/>
      </contour>
      <contour>
        <pt x="325" y="645" on="1"/>
        <pt x="223" y="645" on="0"/>
        <pt x="122" y="475" on="0"/>
        <pt x="122" y="229" on="0"/>
        <pt x="225" y="61" on="0"/>
        <pt x="425" y="61" on="0"/>
        <pt x="527" y="231" on="0"/>
        <pt x="527" y="360" on="1"/>
        <pt x="527" y="522" on="0"/>
        <pt x="436" y="602" on="1"/>
        <pt x="389" y="645" on="0"/>
      </contour>
      <contour>
        <pt x="336" y="753" on="1"/>
        <pt x="275" y="753" on="1"/>
        <pt x="177" y="877" on="1"/>
        <pt x="261" y="877" on="1"/>
      </contour>
    </TTGlyph>
    <TTGlyph name="Omega" xMin="67" yMin="0" xMax="666" yMax="710">
      <contour>
        <pt x="538" y="65" on="1"/>
        <pt x="666" y="65" on="1"/>
        <pt x="666" y="0" on="1"/>
        <pt x="401" y="0" on="1"/>
        <pt x="401" y="65" on="1"/>
        <pt x="505" y="97" on="0"/>
        <pt x="538" y="186" on="1"/>
        <pt x="564" y="258" on="0"/>
        <pt x="564" y="434" on="0"/>
        <pt x="521" y="560" on="0"/>
        <pt x="426" y="645" on="0"/>
        <pt x="362" y="645" on="1"/>
        <pt x="260" y="645" on="0"/>
        <pt x="159" y="475" on="0"/>
        <pt x="159" y="355" on="1"/>
        <pt x="159" y="207" on="0"/>
        <pt x="232" y="121" on="1"/>
        <pt x="272" y="73" on="0"/>
        <pt x="332" y="65" on="1"/>
        <pt x="332" y="0" on="1"/>
        <pt x="67" y="0" on="1"/>
        <pt x="67" y="65" on="1"/>
        <pt x="180" y="65" on="1"/>
        <pt x="83" y="162" on="0"/>
        <pt x="83" y="355" on="1"/>
        <pt x="83" y="512" on="0"/>
        <pt x="224" y="710" on="0"/>
        <pt x="497" y="710" on="0"/>
        <pt x="639" y="512" on="0"/>
        <pt x="639" y="355" on="1"/>
        <pt x="639" y="162" on="0"/>
      </contour>
    </TTGlyph>
    <TTGlyph name="Oslash" xMin="46" yMin="-109" xMax="602" yMax="800">
      <contour>
        <pt x="210" y="103" on="1"/>
        <pt x="388" y="633" on="1"/>
        <pt x="360" y="645" on="0"/>
        <pt x="325" y="645" on="1"/>
        <pt x="223" y="645" on="0"/>
        <pt x="122" y="475" on="0"/>
        <pt x="122" y="355" on="1"/>
        <pt x="122" y="179" on="0"/>
      </contour>
      <contour>
        <pt x="449" y="595" on="1"/>
        <pt x="273" y="68" on="1"/>
        <pt x="295" y="61" on="0"/>
        <pt x="324" y="61" on="1"/>
        <pt x="425" y="61" on="0"/>
        <pt x="527" y="231" on="0"/>
        <pt x="527" y="360" on="1"/>
        <pt x="527" y="427" on="0"/>
        <pt x="486" y="555" on="0"/>
      </contour>
      <contour>
        <pt x="515" y="800" on="1"/>
        <pt x="468" y="663" on="1"/>
        <pt x="531" y="617" on="0"/>
        <pt x="602" y="455" on="0"/>
        <pt x="602" y="254" on="0"/>
        <pt x="544" y="95" on="0"/>
        <pt x="415" y="-5" on="0"/>
        <pt x="323" y="-5" on="1"/>
        <pt x="266" y="-5" on="0"/>
        <pt x="244" y="11" on="1"/>
        <pt x="200" y="-109" on="1"/>
        <pt x="132" y="-109" on="1"/>
        <pt x="180" y="35" on="1"/>
        <pt x="113" y="79" on="0"/>
        <pt x="46" y="247" on="0"/>
        <pt x="46" y="355" on="1"/>
        <pt x="46" y="512" on="0"/>
        <pt x="187" y="710" on="0"/>
        <pt x="323" y="710" on="1"/>
        <pt x="369" y="710" on="0"/>
        <pt x="411" y="697" on="1"/>
        <pt x="446" y="800" on="1"/>
      </contour>
    </TTGlyph>
    <TTGlyph name="Otilde" xMin="46" yMin="-5" xMax="602" yMax="867">
      <contour>
        <pt x="467" y="824" on="1"/>
        <pt x="446" y="796" on="0"/>
        <pt x="393" y="754" on="0"/>
        <pt x="354" y="754" on="0"/>
        <pt x="238" y="809" on="0"/>
        <pt x="212" y="809" on="0"/>
        <pt x="183" y="790" on="0"/>
        <pt x="175" y="780" on="1"/>
        <pt x="167" y="771" on="1"/>
        <pt x="134" y="797" on="1"/>
        <pt x="155" y="824" on="0"/>
        <pt x="207" y="867" on="0"/>
        <pt x="246" y="867" on="0"/>
        <pt x="362" y="812" on="0"/>
        <pt x="388" y="812" on="0"/>
        <pt x="417" y="831" on="0"/>
        <pt x="425" y="840" on="1"/>
        <pt x="433" y="850" on="1"/>
      </contour>
      <contour>
        <pt x="323" y="-5" on="1"/>
        <pt x="186" y="-5" on="0"/>
        <pt x="46" y="198" on="0"/>
        <pt x="46" y="512" on="0"/>
        <pt x="187" y="710" on="0"/>
        <pt x="460" y="710" on="0"/>
        <pt x="602" y="512" on="0"/>
        <pt x="602" y="355" on="1"/>
        <pt x="602" y="140" on="0"/>
        <pt x="480" y="45" on="1"/>
        <pt x="415" y="-5" on="0"/>
      </contour>
      <contour>
        <pt x="325" y="645" on="1"/>
        <pt x="223" y="645" on="0"/>
        <pt x="122" y="475" on="0"/>
        <pt x="122" y="229" on="0"/>
        <pt x="225" y="61" on="0"/>
        <pt x="425" y="61" on="0"/>
        <pt x="527" y="231" on="0"/>
        <pt x="527" y="360" on="1"/>
        <pt x="527" y="522" on="0"/>
        <pt x="436" y="602" on="1"/>
        <pt x="389" y="645" on="0"/>
      </contour>
    </TTGlyph>
    <TTGlyph name="P" xMin="91" yMin="0" xMax="504" yMax="700">
      <contour>
        <pt x="268" y="294" on="1"/>
        <pt x="166" y="294" on="1"/>
        <pt x="166" y="0" on="1"/>
        <pt x="91" y="0" on="1"/>
        <pt x="91" y="700" on="1"/>
        <pt x="291" y="700" on="1"/>
        <pt x="403" y="700" on="0"/>
        <pt x="504" y="602" on="0"/>
        <pt x="504" y="395" on="0"/>
        <pt x="380" y="294" on="0"/>
      </contour>
      <contour>
        <pt x="257" y="636" on="1"/>
        <pt x="166" y="636" on="1"/>
        <pt x="166" y="358" on="1"/>
        <pt x="232" y="358" on="1"/>
        <pt x="335" y="358" on="0"/>
        <pt x="429" y="420" on="0"/>
        <pt x="429" y="571" on="0"/>
        <pt x="347" y="636" on="0"/>
      </contour>
    </TTGlyph>
    <TTGlyph name="Q" xMin="46" yMin="-54" xMax="631" yMax="710">
      <contour>
        <pt x="533" y="96" on="1"/>
        <pt x="631" y="-5" on="1"/>
        <pt x="582" y="-54" on="1"/>
        <pt x="487" y="47" on="1"/>
        <pt x="420" y="-7" on="0"/>
        <pt x="231" y="-7" on="0"/>
        <pt x="167" y="44" on="1"/>
        <pt x="46" y="139" on="0"/>
        <pt x="46" y="355" on="1"/>
        <pt x="46" y="512" on="0"/>
        <pt x="187" y="710" on="0"/>
        <pt x="460" y="710" on="0"/>
        <pt x="602" y="512" on="0"/>
        <pt x="602" y="192" on="0"/>
      </contour>
      <contour>
        <pt x="399" y="238" on="1"/>
        <pt x="481" y="149" on="1"/>
        <pt x="527" y="225" on="0"/>
        <pt x="527" y="476" on="0"/>
        <pt x="420" y="646" on="0"/>
        <pt x="324" y="646" on="1"/>
        <pt x="271" y="646" on="0"/>
        <pt x="190" y="596" on="0"/>
        <pt x="167" y="554" on="1"/>
        <pt x="122" y="470" on="0"/>
        <pt x="122" y="229" on="0"/>
        <pt x="225" y="59" on="0"/>
        <pt x="324" y="59" on="1"/>
        <pt x="390" y="59" on="0"/>
        <pt x="437" y="97" on="1"/>
        <pt x="349" y="189" on="1"/>
      </contour>
    </TTGlyph>
    <TTGlyph name="R" xMin="91" yMin="1" xMax="571" yMax="701">
      <contour>
        <pt x="228" y="329" on="1"/>
        <pt x="166" y="329" on="1"/>
        <pt x="166" y="1" on="1"/>
        <pt x="91" y="1" on="1"/>
        <pt x="91" y="701" on="1"/>
        <pt x="293" y="701" on="1"/>
        <pt x="395" y="701" on="0"/>
        <pt x="498" y="608" on="0"/>
        <pt x="498" y="522" on="1"/>
        <pt x="498" y="462" on="0"/>
        <pt x="415" y="362" on="0"/>
        <pt x="354" y="354" on="1"/>
        <pt x="403" y="343" on="0"/>
        <pt x="444" y="302" on="0"/>
        <pt x="472" y="235" on="1"/>
        <pt x="571" y="1" on="1"/>
        <pt x="492" y="1" on="1"/>
        <pt x="395" y="225" on="1"/>
        <pt x="368" y="288" on="0"/>
        <pt x="301" y="329" on="0"/>
      </contour>
      <contour>
        <pt x="289" y="637" on="1"/>
        <pt x="166" y="637" on="1"/>
        <pt x="166" y="393" on="1"/>
        <pt x="279" y="393" on="1"/>
        <pt x="341" y="393" on="0"/>
        <pt x="414" y="466" on="0"/>
        <pt x="414" y="578" on="0"/>
        <pt x="348" y="637" on="0"/>
      </contour>
    </TTGlyph>
    <TTGlyph name="Racute" xMin="91" yMin="1" xMax="571" yMax="876">
      <contour>
        <pt x="166" y="329" on="1"/>
        <pt x="166" y="1" on="1"/>
        <pt x="91" y="1" on="1"/>
        <pt x="91" y="701" on="1"/>
        <pt x="293" y="701" on="1"/>
        <pt x="395" y="701" on="0"/>
        <pt x="498" y="608" on="0"/>
        <pt x="498" y="522" on="1"/>
        <pt x="498" y="462" on="0"/>
        <pt x="415" y="362" on="0"/>
        <pt x="354" y="354" on="1"/>
        <pt x="403" y="343" on="0"/>
        <pt x="444" y="302" on="0"/>
        <pt x="472" y="235" on="1"/>
        <pt x="571" y="1" on="1"/>
        <pt x="492" y="1" on="1"/>
        <pt x="395" y="225" on="1"/>
        <pt x="368" y="288" on="0"/>
        <pt x="301" y="329" on="0"/>
        <pt x="228" y="329" on="1"/>
      </contour>
      <contour>
        <pt x="166" y="637" on="1"/>
        <pt x="166" y="393" on="1"/>
        <pt x="279" y="393" on="1"/>
        <pt x="341" y="393" on="0"/>
        <pt x="414" y="466" on="0"/>
        <pt x="414" y="578" on="0"/>
        <pt x="348" y="637" on="0"/>
        <pt x="289" y="637" on="1"/>
      </contour>
      <contour>
        <pt x="254" y="752" on="1"/>
        <pt x="329" y="876" on="1"/>
        <pt x="413" y="876" on="1"/>
        <pt x="315" y="752" on="1"/>
      </contour>
    </TTGlyph>
    <TTGlyph name="Rcaron" xMin="91" yMin="0" xMax="571" yMax="902">
      <contour>
        <pt x="310" y="773" on="1"/>
        <pt x="263" y="773" on="1"/>
        <pt x="127" y="873" on="1"/>
        <pt x="146" y="902" on="1"/>
        <pt x="287" y="827" on="1"/>
        <pt x="429" y="902" on="1"/>
        <pt x="448" y="873" on="1"/>
      </contour>
      <contour>
        <pt x="228" y="328" on="1"/>
        <pt x="166" y="328" on="1"/>
        <pt x="166" y="0" on="1"/>
        <pt x="91" y="0" on="1"/>
        <pt x="91" y="700" on="1"/>
        <pt x="293" y="700" on="1"/>
        <pt x="395" y="700" on="0"/>
        <pt x="498" y="607" on="0"/>
        <pt x="498" y="521" on="1"/>
        <pt x="498" y="461" on="0"/>
        <pt x="415" y="361" on="0"/>
        <pt x="354" y="353" on="1"/>
        <pt x="403" y="342" on="0"/>
        <pt x="444" y="301" on="0"/>
        <pt x="472" y="234" on="1"/>
        <pt x="571" y="0" on="1"/>
        <pt x="492" y="0" on="1"/>
        <pt x="395" y="224" on="1"/>
        <pt x="368" y="287" on="0"/>
        <pt x="301" y="328" on="0"/>
      </contour>
      <contour>
        <pt x="289" y="636" on="1"/>
        <pt x="166" y="636" on="1"/>
        <pt x="166" y="392" on="1"/>
        <pt x="279" y="392" on="1"/>
        <pt x="341" y="392" on="0"/>
        <pt x="414" y="465" on="0"/>
        <pt x="414" y="577" on="0"/>
        <pt x="348" y="636" on="0"/>
      </contour>
    </TTGlyph>
    <TTGlyph name="Rcommaaccent" xMin="91" yMin="-217" xMax="571" yMax="701">
      <contour>
        <pt x="228" y="329" on="1"/>
        <pt x="166" y="329" on="1"/>
        <pt x="166" y="1" on="1"/>
        <pt x="91" y="1" on="1"/>
        <pt x="91" y="701" on="1"/>
        <pt x="293" y="701" on="1"/>
        <pt x="395" y="701" on="0"/>
        <pt x="498" y="608" on="0"/>
        <pt x="498" y="522" on="1"/>
        <pt x="498" y="462" on="0"/>
        <pt x="415" y="362" on="0"/>
        <pt x="354" y="354" on="1"/>
        <pt x="403" y="343" on="0"/>
        <pt x="444" y="302" on="0"/>
        <pt x="472" y="235" on="1"/>
        <pt x="571" y="1" on="1"/>
        <pt x="492" y="1" on="1"/>
        <pt x="395" y="225" on="1"/>
        <pt x="368" y="288" on="0"/>
        <pt x="301" y="329" on="0"/>
      </contour>
      <contour>
        <pt x="289" y="637" on="1"/>
        <pt x="166" y="637" on="1"/>
        <pt x="166" y="393" on="1"/>
        <pt x="279" y="393" on="1"/>
        <pt x="341" y="393" on="0"/>
        <pt x="414" y="466" on="0"/>
        <pt x="414" y="578" on="0"/>
        <pt x="348" y="637" on="0"/>
      </contour>
      <contour>
        <pt x="350" y="-40" on="1"/>
        <pt x="350" y="-88" on="0"/>
        <pt x="327" y="-152" on="0"/>
        <pt x="287" y="-217" on="1"/>
        <pt x="238" y="-186" on="1"/>
        <pt x="264" y="-133" on="0"/>
        <pt x="279" y="-84" on="0"/>
        <pt x="279" y="-40" on="1"/>
      </contour>
    </TTGlyph>
    <TTGlyph name="S" xMin="55" yMin="-6" xMax="494" yMax="710">
      <contour>
        <pt x="443" y="675" on="1"/>
        <pt x="427" y="608" on="1"/>
        <pt x="369" y="625" on="1"/>
        <pt x="307" y="640" on="0"/>
        <pt x="262" y="640" on="1"/>
        <pt x="144" y="640" on="0"/>
        <pt x="144" y="535" on="1"/>
        <pt x="144" y="489" on="0"/>
        <pt x="216" y="430" on="0"/>
        <pt x="319" y="395" on="0"/>
        <pt x="422" y="354" on="0"/>
        <pt x="494" y="269" on="0"/>
        <pt x="494" y="204" on="1"/>
        <pt x="494" y="105" on="0"/>
        <pt x="372" y="-6" on="0"/>
        <pt x="260" y="-6" on="1"/>
        <pt x="204" y="-6" on="0"/>
        <pt x="91" y="27" on="0"/>
        <pt x="55" y="49" on="1"/>
        <pt x="80" y="106" on="1"/>
        <pt x="171" y="64" on="0"/>
        <pt x="334" y="64" on="0"/>
        <pt x="419" y="130" on="0"/>
        <pt x="419" y="193" on="1"/>
        <pt x="419" y="257" on="0"/>
        <pt x="350" y="293" on="1"/>
        <pt x="319" y="309" on="0"/>
        <pt x="244" y="337" on="0"/>
        <pt x="169" y="370" on="0"/>
        <pt x="108" y="412" on="0"/>
        <pt x="69" y="484" on="0"/>
        <pt x="69" y="532" on="1"/>
        <pt x="69" y="618" on="0"/>
        <pt x="172" y="710" on="0"/>
        <pt x="346" y="710" on="0"/>
      </contour>
    </TTGlyph>
    <TTGlyph name="Scaron" xMin="55" yMin="-6" xMax="494" yMax="902">
      <contour>
        <pt x="293" y="773" on="1"/>
        <pt x="246" y="773" on="1"/>
        <pt x="110" y="873" on="1"/>
        <pt x="129" y="902" on="1"/>
        <pt x="270" y="827" on="1"/>
        <pt x="412" y="902" on="1"/>
        <pt x="431" y="873" on="1"/>
      </contour>
      <contour>
        <pt x="443" y="675" on="1"/>
        <pt x="427" y="608" on="1"/>
        <pt x="369" y="625" on="1"/>
        <pt x="307" y="640" on="0"/>
        <pt x="262" y="640" on="1"/>
        <pt x="144" y="640" on="0"/>
        <pt x="144" y="535" on="1"/>
        <pt x="144" y="489" on="0"/>
        <pt x="216" y="430" on="0"/>
        <pt x="319" y="395" on="0"/>
        <pt x="422" y="354" on="0"/>
        <pt x="494" y="269" on="0"/>
        <pt x="494" y="204" on="1"/>
        <pt x="494" y="105" on="0"/>
        <pt x="372" y="-6" on="0"/>
        <pt x="260" y="-6" on="1"/>
        <pt x="204" y="-6" on="0"/>
        <pt x="91" y="27" on="0"/>
        <pt x="55" y="49" on="1"/>
        <pt x="80" y="106" on="1"/>
        <pt x="171" y="64" on="0"/>
        <pt x="334" y="64" on="0"/>
        <pt x="419" y="130" on="0"/>
        <pt x="419" y="193" on="1"/>
        <pt x="419" y="257" on="0"/>
        <pt x="350" y="293" on="1"/>
        <pt x="319" y="309" on="0"/>
        <pt x="244" y="337" on="0"/>
        <pt x="169" y="370" on="0"/>
        <pt x="108" y="412" on="0"/>
        <pt x="69" y="484" on="0"/>
        <pt x="69" y="532" on="1"/>
        <pt x="69" y="618" on="0"/>
        <pt x="172" y="710" on="0"/>
        <pt x="346" y="710" on="0"/>
      </contour>
    </TTGlyph>
    <TTGlyph name="T" xMin="20" yMin="0" xMax="484" yMax="700">
      <contour>
        <pt x="216" y="0" on="1"/>
        <pt x="216" y="633" on="1"/>
        <pt x="20" y="633" on="1"/>
        <pt x="20" y="700" on="1"/>
        <pt x="484" y="700" on="1"/>
        <pt x="484" y="633" on="1"/>
        <pt x="290" y="633" on="1"/>
        <pt x="290" y="0" on="1"/>
      </contour>
    </TTGlyph>
    <TTGlyph name="Thorn" xMin="89" yMin="0" xMax="502" yMax="700">
      <contour>
        <pt x="158" y="700" on="1"/>
        <pt x="158" y="590" on="1"/>
        <pt x="289" y="590" on="1"/>
        <pt x="402" y="589" on="0"/>
        <pt x="502" y="491" on="0"/>
        <pt x="502" y="285" on="0"/>
        <pt x="378" y="184" on="0"/>
        <pt x="266" y="184" on="1"/>
        <pt x="164" y="184" on="1"/>
        <pt x="164" y="0" on="1"/>
        <pt x="89" y="0" on="1"/>
        <pt x="89" y="700" on="1"/>
      </contour>
      <contour>
        <pt x="255" y="526" on="1"/>
        <pt x="164" y="526" on="1"/>
        <pt x="164" y="248" on="1"/>
        <pt x="230" y="248" on="1"/>
        <pt x="333" y="248" on="0"/>
        <pt x="427" y="310" on="0"/>
        <pt x="427" y="461" on="0"/>
        <pt x="345" y="526" on="0"/>
      </contour>
    </TTGlyph>
    <TTGlyph name="U" xMin="91" yMin="-6" xMax="573" yMax="700">
      <contour>
        <pt x="450" y="-6" on="0"/>
        <pt x="214" y="-6" on="0"/>
        <pt x="91" y="127" on="0"/>
        <pt x="91" y="258" on="1"/>
        <pt x="91" y="700" on="1"/>
        <pt x="167" y="700" on="1"/>
        <pt x="167" y="246" on="1"/>
        <pt x="167" y="157" on="0"/>
        <pt x="252" y="59" on="0"/>
        <pt x="409" y="59" on="0"/>
        <pt x="497" y="156" on="0"/>
        <pt x="497" y="246" on="1"/>
        <pt x="497" y="700" on="1"/>
        <pt x="573" y="700" on="1"/>
        <pt x="573" y="258" on="1"/>
        <pt x="573" y="127" on="0"/>
      </contour>
    </TTGlyph>
    <TTGlyph name="Uacute" xMin="91" yMin="-6" xMax="573" yMax="877">
      <contour>
        <pt x="450" y="-6" on="0"/>
        <pt x="214" y="-6" on="0"/>
        <pt x="91" y="127" on="0"/>
        <pt x="91" y="258" on="1"/>
        <pt x="91" y="700" on="1"/>
        <pt x="167" y="700" on="1"/>
        <pt x="167" y="246" on="1"/>
        <pt x="167" y="157" on="0"/>
        <pt x="252" y="59" on="0"/>
        <pt x="409" y="59" on="0"/>
        <pt x="497" y="156" on="0"/>
        <pt x="497" y="246" on="1"/>
        <pt x="497" y="700" on="1"/>
        <pt x="573" y="700" on="1"/>
        <pt x="573" y="258" on="1"/>
        <pt x="573" y="127" on="0"/>
      </contour>
      <contour>
        <pt x="298" y="753" on="1"/>
        <pt x="373" y="877" on="1"/>
        <pt x="457" y="877" on="1"/>
        <pt x="359" y="753" on="1"/>
      </contour>
    </TTGlyph>
    <TTGlyph name="Ucircumflex" xMin="91" yMin="-6" xMax="573" yMax="883">
      <component glyphName="U" x="0" y="0" flags="0x1004"/>
      <component glyphName="circumflex" x="87" y="63" flags="0x1004"/>
    </TTGlyph>
    <TTGlyph name="Udieresis" xMin="91" yMin="-6" xMax="573" yMax="860">
      <component glyphName="U" x="0" y="0" flags="0x1004"/>
      <component glyphName="dieresis" x="85" y="45" flags="0x1004"/>
    </TTGlyph>
    <TTGlyph name="Ugrave" xMin="91" yMin="-6" xMax="573" yMax="878">
      <contour>
        <pt x="450" y="-6" on="0"/>
        <pt x="214" y="-6" on="0"/>
        <pt x="91" y="127" on="0"/>
        <pt x="91" y="258" on="1"/>
        <pt x="91" y="700" on="1"/>
        <pt x="167" y="700" on="1"/>
        <pt x="167" y="246" on="1"/>
        <pt x="167" y="157" on="0"/>
        <pt x="252" y="59" on="0"/>
        <pt x="409" y="59" on="0"/>
        <pt x="497" y="156" on="0"/>
        <pt x="497" y="246" on="1"/>
        <pt x="497" y="700" on="1"/>
        <pt x="573" y="700" on="1"/>
        <pt x="573" y="258" on="1"/>
        <pt x="573" y="127" on="0"/>
      </contour>
      <contour>
        <pt x="367" y="754" on="1"/>
        <pt x="306" y="754" on="1"/>
        <pt x="208" y="878" on="1"/>
        <pt x="292" y="878" on="1"/>
      </contour>
    </TTGlyph>
    <TTGlyph name="V" xMin="13" yMin="0" xMax="533" yMax="700">
      <contour>
        <pt x="533" y="700" on="1"/>
        <pt x="317" y="0" on="1"/>
        <pt x="212" y="0" on="1"/>
        <pt x="13" y="700" on="1"/>
        <pt x="97" y="700" on="1"/>
        <pt x="268" y="85" on="1"/>
        <pt x="451" y="700" on="1"/>
      </contour>
    </TTGlyph>
    <TTGlyph name="W" xMin="13" yMin="0" xMax="738" yMax="699">
      <contour>
        <pt x="738" y="699" on="1"/>
        <pt x="572" y="0" on="1"/>
        <pt x="485" y="0" on="1"/>
        <pt x="383" y="406" on="1"/>
        <pt x="258" y="0" on="1"/>
        <pt x="176" y="0" on="1"/>
        <pt x="13" y="699" on="1"/>
        <pt x="99" y="699" on="1"/>
        <pt x="221" y="85" on="1"/>
        <pt x="354" y="510" on="1"/>
        <pt x="410" y="510" on="1"/>
        <pt x="533" y="85" on="1"/>
        <pt x="659" y="699" on="1"/>
      </contour>
    </TTGlyph>
    <TTGlyph name="X" xMin="20" yMin="0" xMax="564" yMax="701">
      <contour>
        <pt x="564" y="0" on="1"/>
        <pt x="472" y="0" on="1"/>
        <pt x="294" y="315" on="1"/>
        <pt x="111" y="0" on="1"/>
        <pt x="20" y="0" on="1"/>
        <pt x="252" y="368" on="1"/>
        <pt x="41" y="701" on="1"/>
        <pt x="136" y="701" on="1"/>
        <pt x="297" y="424" on="1"/>
        <pt x="463" y="701" on="1"/>
        <pt x="553" y="701" on="1"/>
        <pt x="339" y="368" on="1"/>
      </contour>
    </TTGlyph>
    <TTGlyph name="Y" xMin="13" yMin="0" xMax="539" yMax="700">
      <contour>
        <pt x="539" y="700" on="1"/>
        <pt x="309" y="315" on="1"/>
        <pt x="309" y="0" on="1"/>
        <pt x="234" y="0" on="1"/>
        <pt x="234" y="315" on="1"/>
        <pt x="13" y="700" on="1"/>
        <pt x="96" y="700" on="1"/>
        <pt x="273" y="376" on="1"/>
        <pt x="458" y="700" on="1"/>
      </contour>
    </TTGlyph>
    <TTGlyph name="Yacute" xMin="13" yMin="0" xMax="539" yMax="876">
      <contour>
        <pt x="539" y="700" on="1"/>
        <pt x="309" y="315" on="1"/>
        <pt x="309" y="0" on="1"/>
        <pt x="234" y="0" on="1"/>
        <pt x="234" y="315" on="1"/>
        <pt x="13" y="700" on="1"/>
        <pt x="96" y="700" on="1"/>
        <pt x="273" y="376" on="1"/>
        <pt x="458" y="700" on="1"/>
      </contour>
      <contour>
        <pt x="228" y="752" on="1"/>
        <pt x="303" y="876" on="1"/>
        <pt x="387" y="876" on="1"/>
        <pt x="289" y="752" on="1"/>
      </contour>
    </TTGlyph>
    <TTGlyph name="Ydieresis" xMin="13" yMin="0" xMax="539" yMax="922">
      <component glyphName="Y" x="0" y="0" flags="0x1004"/>
      <component glyphName="dieresis" x="28" y="107" flags="0x1004"/>
    </TTGlyph>
    <TTGlyph name="Z" xMin="39" yMin="0" xMax="479" yMax="700">
      <contour>
        <pt x="479" y="0" on="1"/>
        <pt x="40" y="0" on="1"/>
        <pt x="40" y="62" on="1"/>
        <pt x="360" y="635" on="1"/>
        <pt x="39" y="635" on="1"/>
        <pt x="39" y="700" on="1"/>
        <pt x="448" y="700" on="1"/>
        <pt x="448" y="643" on="1"/>
        <pt x="131" y="66" on="1"/>
        <pt x="479" y="66" on="1"/>
      </contour>
    </TTGlyph>
    <TTGlyph name="Zcaron" xMin="39" yMin="0" xMax="479" yMax="902">
      <contour>
        <pt x="270" y="773" on="1"/>
        <pt x="223" y="773" on="1"/>
        <pt x="87" y="873" on="1"/>
        <pt x="106" y="902" on="1"/>
        <pt x="247" y="827" on="1"/>
        <pt x="389" y="902" on="1"/>
        <pt x="408" y="873" on="1"/>
      </contour>
      <contour>
        <pt x="479" y="0" on="1"/>
        <pt x="40" y="0" on="1"/>
        <pt x="40" y="62" on="1"/>
        <pt x="360" y="635" on="1"/>
        <pt x="39" y="635" on="1"/>
        <pt x="39" y="700" on="1"/>
        <pt x="448" y="700" on="1"/>
        <pt x="448" y="643" on="1"/>
        <pt x="131" y="66" on="1"/>
        <pt x="479" y="66" on="1"/>
      </contour>
    </TTGlyph>
    <TTGlyph name="a" xMin="50" yMin="-6" xMax="425" yMax="510">
      <contour>
        <pt x="307" y="299" on="1"/>
        <pt x="348" y="299" on="1"/>
        <pt x="348" y="390" on="0"/>
        <pt x="302" y="445" on="0"/>
        <pt x="144" y="445" on="0"/>
        <pt x="89" y="424" on="1"/>
        <pt x="75" y="482" on="1"/>
        <pt x="159" y="510" on="0"/>
        <pt x="249" y="510" on="1"/>
        <pt x="425" y="510" on="0"/>
        <pt x="425" y="334" on="1"/>
        <pt x="425" y="0" on="1"/>
        <pt x="381" y="0" on="1"/>
        <pt x="355" y="59" on="1"/>
        <pt x="309" y="21" on="0"/>
        <pt x="242" y="-6" on="0"/>
        <pt x="198" y="-6" on="1"/>
        <pt x="128" y="-6" on="0"/>
        <pt x="50" y="77" on="0"/>
        <pt x="50" y="145" on="1"/>
        <pt x="50" y="299" on="0"/>
      </contour>
      <contour>
        <pt x="349" y="236" on="1"/>
        <pt x="304" y="236" on="1"/>
        <pt x="202" y="236" on="0"/>
        <pt x="125" y="196" on="0"/>
        <pt x="125" y="111" on="0"/>
        <pt x="169" y="57" on="0"/>
        <pt x="240" y="57" on="0"/>
        <pt x="305" y="90" on="0"/>
        <pt x="349" y="131" on="1"/>
      </contour>
    </TTGlyph>
    <TTGlyph name="aacute" xMin="50" yMin="-6" xMax="427" yMax="733">
      <component glyphName="a" x="0" y="0" flags="0x1004"/>
      <component glyphName="acute" x="138" y="0" flags="0x1004"/>
    </TTGlyph>
    <TTGlyph name="acircumflex" xMin="50" yMin="-6" xMax="425" yMax="712">
      <contour>
        <pt x="307" y="299" on="1"/>
        <pt x="348" y="299" on="1"/>
        <pt x="348" y="390" on="0"/>
        <pt x="302" y="445" on="0"/>
        <pt x="144" y="445" on="0"/>
        <pt x="89" y="424" on="1"/>
        <pt x="75" y="482" on="1"/>
        <pt x="159" y="510" on="0"/>
        <pt x="249" y="510" on="1"/>
        <pt x="425" y="510" on="0"/>
        <pt x="425" y="334" on="1"/>
        <pt x="425" y="0" on="1"/>
        <pt x="381" y="0" on="1"/>
        <pt x="355" y="59" on="1"/>
        <pt x="309" y="21" on="0"/>
        <pt x="242" y="-6" on="0"/>
        <pt x="198" y="-6" on="1"/>
        <pt x="128" y="-6" on="0"/>
        <pt x="50" y="77" on="0"/>
        <pt x="50" y="145" on="1"/>
        <pt x="50" y="299" on="0"/>
      </contour>
      <contour>
        <pt x="349" y="236" on="1"/>
        <pt x="304" y="236" on="1"/>
        <pt x="202" y="236" on="0"/>
        <pt x="125" y="196" on="0"/>
        <pt x="125" y="111" on="0"/>
        <pt x="169" y="57" on="0"/>
        <pt x="240" y="57" on="0"/>
        <pt x="305" y="90" on="0"/>
        <pt x="349" y="131" on="1"/>
      </contour>
      <contour>
        <pt x="229" y="712" on="1"/>
        <pt x="276" y="712" on="1"/>
        <pt x="412" y="612" on="1"/>
        <pt x="393" y="583" on="1"/>
        <pt x="252" y="658" on="1"/>
        <pt x="110" y="583" on="1"/>
        <pt x="91" y="612" on="1"/>
      </contour>
    </TTGlyph>
    <TTGlyph name="acute" xMin="101" yMin="571" xMax="289" yMax="733">
      <contour>
        <pt x="159" y="571" on="1"/>
        <pt x="101" y="592" on="1"/>
        <pt x="214" y="733" on="1"/>
        <pt x="289" y="703" on="1"/>
      </contour>
    </TTGlyph>
    <TTGlyph name="acuteMAY" xMin="183" yMin="701" xMax="342" yMax="825">
      <contour>
        <pt x="183" y="701" on="1"/>
        <pt x="258" y="825" on="1"/>
        <pt x="342" y="825" on="1"/>
        <pt x="244" y="701" on="1"/>
      </contour>
    </TTGlyph>
    <TTGlyph name="adieresis" xMin="50" yMin="-6" xMax="425" yMax="700">
      <component glyphName="a" x="0" y="0" flags="0x1004"/>
      <component glyphName="dieresis" x="4" y="-115" flags="0x1004"/>
    </TTGlyph>
    <TTGlyph name="ae" xMin="50" yMin="-6" xMax="739" yMax="510">
      <contour>
        <pt x="349" y="236" on="1"/>
        <pt x="304" y="236" on="1"/>
        <pt x="202" y="236" on="0"/>
        <pt x="125" y="196" on="0"/>
        <pt x="125" y="111" on="0"/>
        <pt x="169" y="57" on="0"/>
        <pt x="240" y="57" on="0"/>
        <pt x="305" y="90" on="0"/>
        <pt x="349" y="131" on="1"/>
      </contour>
      <contour>
        <pt x="384" y="84" on="1"/>
        <pt x="298" y="-6" on="0"/>
        <pt x="198" y="-6" on="1"/>
        <pt x="128" y="-6" on="0"/>
        <pt x="50" y="77" on="0"/>
        <pt x="50" y="145" on="1"/>
        <pt x="50" y="299" on="0"/>
        <pt x="307" y="299" on="1"/>
        <pt x="348" y="299" on="1"/>
        <pt x="348" y="390" on="0"/>
        <pt x="302" y="445" on="0"/>
        <pt x="144" y="445" on="0"/>
        <pt x="89" y="424" on="1"/>
        <pt x="75" y="482" on="1"/>
        <pt x="159" y="510" on="0"/>
        <pt x="249" y="510" on="1"/>
        <pt x="362" y="510" on="0"/>
        <pt x="402" y="440" on="1"/>
        <pt x="460" y="510" on="0"/>
        <pt x="639" y="510" on="0"/>
        <pt x="739" y="394" on="0"/>
        <pt x="739" y="295" on="1"/>
        <pt x="739" y="268" on="0"/>
        <pt x="737" y="234" on="1"/>
        <pt x="418" y="234" on="1"/>
        <pt x="418" y="138" on="0"/>
        <pt x="509" y="58" on="0"/>
        <pt x="578" y="58" on="1"/>
        <pt x="613" y="58" on="0"/>
        <pt x="641" y="65" on="0"/>
        <pt x="666" y="72" on="0"/>
        <pt x="671" y="74" on="1"/>
        <pt x="696" y="81" on="0"/>
        <pt x="714" y="87" on="1"/>
        <pt x="726" y="29" on="1"/>
        <pt x="626" y="-6" on="0"/>
        <pt x="570" y="-6" on="1"/>
        <pt x="441" y="-6" on="0"/>
      </contour>
      <contour>
        <pt x="423" y="291" on="1"/>
        <pt x="667" y="291" on="1"/>
        <pt x="667" y="365" on="0"/>
        <pt x="615" y="445" on="0"/>
        <pt x="486" y="445" on="0"/>
        <pt x="426" y="359" on="0"/>
      </contour>
    </TTGlyph>
    <TTGlyph name="agrave" xMin="50" yMin="-6" xMax="425" yMax="733">
      <component glyphName="a" x="0" y="0" flags="0x1004"/>
      <component glyphName="grave" x="45" y="0" flags="0x1004"/>
    </TTGlyph>
    <TTGlyph name="ampersand" xMin="59" yMin="-7" xMax="695" yMax="710">
      <contour>
        <pt x="527" y="361" on="1"/>
        <pt x="599" y="361" on="1"/>
        <pt x="592" y="248" on="0"/>
        <pt x="572" y="195" on="1"/>
        <pt x="566" y="177" on="0"/>
        <pt x="552" y="147" on="1"/>
        <pt x="695" y="1" on="1"/>
        <pt x="595" y="1" on="1"/>
        <pt x="513" y="90" on="1"/>
        <pt x="479" y="49" on="0"/>
        <pt x="357" y="-7" on="0"/>
        <pt x="294" y="-7" on="1"/>
        <pt x="180" y="-7" on="0"/>
        <pt x="59" y="101" on="0"/>
        <pt x="59" y="193" on="1"/>
        <pt x="59" y="259" on="0"/>
        <pt x="131" y="335" on="0"/>
        <pt x="211" y="374" on="1"/>
        <pt x="152" y="427" on="0"/>
        <pt x="96" y="501" on="0"/>
        <pt x="96" y="539" on="1"/>
        <pt x="96" y="614" on="0"/>
        <pt x="204" y="710" on="0"/>
        <pt x="374" y="710" on="0"/>
        <pt x="475" y="621" on="0"/>
        <pt x="475" y="493" on="0"/>
        <pt x="404" y="407" on="0"/>
        <pt x="326" y="365" on="1"/>
        <pt x="495" y="201" on="1"/>
        <pt x="527" y="267" on="0"/>
      </contour>
      <contour>
        <pt x="466" y="138" on="1"/>
        <pt x="261" y="334" on="1"/>
        <pt x="134" y="276" on="0"/>
        <pt x="134" y="187" on="1"/>
        <pt x="134" y="129" on="0"/>
        <pt x="221" y="58" on="0"/>
        <pt x="346" y="58" on="0"/>
        <pt x="443" y="107" on="0"/>
      </contour>
      <contour>
        <pt x="171" y="522" on="0"/>
        <pt x="207" y="478" on="0"/>
        <pt x="216" y="468" on="1"/>
        <pt x="237" y="445" on="0"/>
        <pt x="277" y="409" on="1"/>
        <pt x="403" y="472" on="0"/>
        <pt x="403" y="555" on="1"/>
        <pt x="403" y="600" on="0"/>
        <pt x="335" y="645" on="0"/>
        <pt x="235" y="645" on="0"/>
        <pt x="171" y="597" on="0"/>
      </contour>
    </TTGlyph>
    <TTGlyph name="approxequal" xMin="75" yMin="131" xMax="494" yMax="461">
      <contour>
        <pt x="494" y="418" on="1"/>
        <pt x="476" y="379" on="0"/>
        <pt x="414" y="336" on="0"/>
        <pt x="331" y="336" on="0"/>
        <pt x="223" y="395" on="0"/>
        <pt x="145" y="395" on="0"/>
        <pt x="100" y="350" on="1"/>
        <pt x="75" y="397" on="1"/>
        <pt x="94" y="425" on="0"/>
        <pt x="157" y="461" on="0"/>
        <pt x="238" y="461" on="0"/>
        <pt x="346" y="401" on="0"/>
        <pt x="423" y="401" on="0"/>
        <pt x="469" y="447" on="1"/>
      </contour>
      <contour>
        <pt x="494" y="213" on="1"/>
        <pt x="476" y="174" on="0"/>
        <pt x="414" y="131" on="0"/>
        <pt x="331" y="131" on="0"/>
        <pt x="223" y="190" on="0"/>
        <pt x="145" y="190" on="0"/>
        <pt x="100" y="145" on="1"/>
        <pt x="75" y="192" on="1"/>
        <pt x="94" y="220" on="0"/>
        <pt x="157" y="256" on="0"/>
        <pt x="238" y="256" on="0"/>
        <pt x="346" y="196" on="0"/>
        <pt x="423" y="196" on="0"/>
        <pt x="469" y="242" on="1"/>
      </contour>
    </TTGlyph>
    <TTGlyph name="aring" xMin="50" yMin="-6" xMax="425" yMax="772">
      <component glyphName="a" x="0" y="0" flags="0x1004"/>
      <component glyphName="ring" x="55" y="0" flags="0x1004"/>
    </TTGlyph>
    <TTGlyph name="arrowdown" xMin="115" yMin="-53" xMax="589" yMax="598">
      <contour>
        <pt x="589" y="195" on="1"/>
        <pt x="344" y="-53" on="1"/>
        <pt x="115" y="192" on="1"/>
        <pt x="168" y="245" on="1"/>
        <pt x="311" y="93" on="1"/>
        <pt x="311" y="598" on="1"/>
        <pt x="386" y="598" on="1"/>
        <pt x="386" y="93" on="1"/>
        <pt x="537" y="249" on="1"/>
      </contour>
    </TTGlyph>
    <TTGlyph name="arrowleft" xMin="46" yMin="74" xMax="697" yMax="548">
      <contour>
        <pt x="294" y="74" on="1"/>
        <pt x="46" y="319" on="1"/>
        <pt x="291" y="548" on="1"/>
        <pt x="344" y="495" on="1"/>
        <pt x="192" y="352" on="1"/>
        <pt x="697" y="352" on="1"/>
        <pt x="697" y="277" on="1"/>
        <pt x="192" y="277" on="1"/>
        <pt x="348" y="126" on="1"/>
      </contour>
    </TTGlyph>
    <TTGlyph name="arrowright" xMin="48" yMin="81" xMax="699" yMax="555">
      <contour>
        <pt x="451" y="555" on="1"/>
        <pt x="699" y="310" on="1"/>
        <pt x="454" y="81" on="1"/>
        <pt x="401" y="134" on="1"/>
        <pt x="553" y="277" on="1"/>
        <pt x="48" y="277" on="1"/>
        <pt x="48" y="352" on="1"/>
        <pt x="553" y="352" on="1"/>
        <pt x="397" y="503" on="1"/>
      </contour>
    </TTGlyph>
    <TTGlyph name="arrowup" xMin="115" yMin="-28" xMax="589" yMax="623">
      <contour>
        <pt x="115" y="375" on="1"/>
        <pt x="360" y="623" on="1"/>
        <pt x="589" y="378" on="1"/>
        <pt x="536" y="325" on="1"/>
        <pt x="393" y="477" on="1"/>
        <pt x="393" y="-28" on="1"/>
        <pt x="318" y="-28" on="1"/>
        <pt x="318" y="477" on="1"/>
        <pt x="167" y="321" on="1"/>
      </contour>
    </TTGlyph>
    <TTGlyph name="asciicircum" xMin="66" yMin="275" xMax="571" yMax="667">
      <contour>
        <pt x="347" y="667" on="1"/>
        <pt x="571" y="275" on="1"/>
        <pt x="494" y="275" on="1"/>
        <pt x="319" y="594" on="1"/>
        <pt x="146" y="275" on="1"/>
        <pt x="66" y="275" on="1"/>
        <pt x="291" y="667" on="1"/>
      </contour>
    </TTGlyph>
    <TTGlyph name="asciitilde" xMin="54" yMin="226" xMax="473" yMax="351">
      <contour>
        <pt x="473" y="308" on="1"/>
        <pt x="455" y="269" on="0"/>
        <pt x="393" y="226" on="0"/>
        <pt x="310" y="226" on="0"/>
        <pt x="202" y="285" on="0"/>
        <pt x="124" y="285" on="0"/>
        <pt x="79" y="240" on="1"/>
        <pt x="54" y="287" on="1"/>
        <pt x="73" y="315" on="0"/>
        <pt x="136" y="351" on="0"/>
        <pt x="217" y="351" on="0"/>
        <pt x="325" y="291" on="0"/>
        <pt x="402" y="291" on="0"/>
        <pt x="448" y="337" on="1"/>
      </contour>
    </TTGlyph>
    <TTGlyph name="asterisk" xMin="41" yMin="370" xMax="383" yMax="727">
      <contour>
        <pt x="383" y="490" on="1"/>
        <pt x="352" y="432" on="1"/>
        <pt x="233" y="513" on="1"/>
        <pt x="246" y="370" on="1"/>
        <pt x="181" y="370" on="1"/>
        <pt x="191" y="513" on="1"/>
        <pt x="72" y="432" on="1"/>
        <pt x="41" y="485" on="1"/>
        <pt x="171" y="548" on="1"/>
        <pt x="42" y="611" on="1"/>
        <pt x="77" y="666" on="1"/>
        <pt x="191" y="584" on="1"/>
        <pt x="181" y="727" on="1"/>
        <pt x="246" y="727" on="1"/>
        <pt x="233" y="584" on="1"/>
        <pt x="352" y="665" on="1"/>
        <pt x="383" y="608" on="1"/>
        <pt x="253" y="550" on="1"/>
      </contour>
    </TTGlyph>
    <TTGlyph name="at" xMin="76" yMin="-119" xMax="830" yMax="709">
      <contour>
        <pt x="530" y="216" on="1"/>
        <pt x="568" y="409" on="1"/>
        <pt x="566" y="410" on="0"/>
        <pt x="553" y="424" on="0"/>
        <pt x="541" y="433" on="0"/>
        <pt x="531" y="439" on="1"/>
        <pt x="511" y="451" on="0"/>
        <pt x="480" y="451" on="1"/>
        <pt x="412" y="451" on="0"/>
        <pt x="332" y="312" on="0"/>
        <pt x="332" y="135" on="0"/>
        <pt x="400" y="135" on="1"/>
        <pt x="435" y="135" on="0"/>
        <pt x="486" y="170" on="0"/>
      </contour>
      <contour>
        <pt x="535" y="81" on="1"/>
        <pt x="527" y="147" on="1"/>
        <pt x="506" y="126" on="0"/>
        <pt x="478" y="103" on="0"/>
        <pt x="418" y="76" on="0"/>
        <pt x="388" y="76" on="1"/>
        <pt x="330" y="76" on="0"/>
        <pt x="270" y="154" on="0"/>
        <pt x="270" y="291" on="0"/>
        <pt x="310" y="411" on="0"/>
        <pt x="342" y="445" on="1"/>
        <pt x="406" y="515" on="0"/>
        <pt x="474" y="515" on="1"/>
        <pt x="512" y="515" on="0"/>
        <pt x="551" y="494" on="0"/>
        <pt x="558" y="489" on="1"/>
        <pt x="572" y="479" on="0"/>
        <pt x="587" y="464" on="1"/>
        <pt x="603" y="504" on="1"/>
        <pt x="649" y="504" on="1"/>
        <pt x="576" y="135" on="1"/>
        <pt x="660" y="135" on="0"/>
        <pt x="765" y="255" on="0"/>
        <pt x="765" y="398" on="1"/>
        <pt x="765" y="644" on="0"/>
        <pt x="476" y="644" on="1"/>
        <pt x="305" y="644" on="0"/>
        <pt x="146" y="439" on="0"/>
        <pt x="146" y="232" on="1"/>
        <pt x="146" y="81" on="0"/>
        <pt x="267" y="-57" on="0"/>
        <pt x="402" y="-57" on="1"/>
        <pt x="575" y="-57" on="1"/>
        <pt x="577" y="-111" on="1"/>
        <pt x="492" y="-119" on="0"/>
        <pt x="398" y="-119" on="1"/>
        <pt x="76" y="-119" on="0"/>
        <pt x="76" y="209" on="1"/>
        <pt x="76" y="709" on="0"/>
        <pt x="477" y="709" on="1"/>
        <pt x="830" y="709" on="0"/>
        <pt x="830" y="394" on="1"/>
        <pt x="830" y="214" on="0"/>
        <pt x="749" y="144" on="1"/>
        <pt x="709" y="110" on="0"/>
        <pt x="606" y="81" on="0"/>
      </contour>
    </TTGlyph>
    <TTGlyph name="atilde" xMin="50" yMin="-6" xMax="425" yMax="700">
      <contour>
        <pt x="307" y="299" on="1"/>
        <pt x="348" y="299" on="1"/>
        <pt x="348" y="390" on="0"/>
        <pt x="302" y="445" on="0"/>
        <pt x="144" y="445" on="0"/>
        <pt x="89" y="424" on="1"/>
        <pt x="75" y="482" on="1"/>
        <pt x="159" y="510" on="0"/>
        <pt x="249" y="510" on="1"/>
        <pt x="425" y="510" on="0"/>
        <pt x="425" y="334" on="1"/>
        <pt x="425" y="0" on="1"/>
        <pt x="381" y="0" on="1"/>
        <pt x="355" y="59" on="1"/>
        <pt x="309" y="21" on="0"/>
        <pt x="242" y="-6" on="0"/>
        <pt x="198" y="-6" on="1"/>
        <pt x="128" y="-6" on="0"/>
        <pt x="50" y="77" on="0"/>
        <pt x="50" y="145" on="1"/>
        <pt x="50" y="299" on="0"/>
      </contour>
      <contour>
        <pt x="349" y="236" on="1"/>
        <pt x="304" y="236" on="1"/>
        <pt x="202" y="236" on="0"/>
        <pt x="125" y="196" on="0"/>
        <pt x="125" y="111" on="0"/>
        <pt x="169" y="57" on="0"/>
        <pt x="240" y="57" on="0"/>
        <pt x="305" y="90" on="0"/>
        <pt x="349" y="131" on="1"/>
      </contour>
      <contour>
        <pt x="419" y="657" on="1"/>
        <pt x="419" y="650" on="1"/>
        <pt x="398" y="622" on="0"/>
        <pt x="345" y="580" on="0"/>
        <pt x="306" y="580" on="0"/>
        <pt x="190" y="635" on="0"/>
        <pt x="164" y="635" on="0"/>
        <pt x="135" y="616" on="0"/>
        <pt x="127" y="606" on="1"/>
        <pt x="119" y="597" on="1"/>
        <pt x="86" y="630" on="1"/>
        <pt x="107" y="657" on="0"/>
        <pt x="159" y="700" on="0"/>
        <pt x="198" y="700" on="0"/>
        <pt x="314" y="645" on="0"/>
        <pt x="340" y="645" on="0"/>
        <pt x="369" y="664" on="0"/>
        <pt x="377" y="674" on="1"/>
        <pt x="385" y="683" on="1"/>
      </contour>
    </TTGlyph>
    <TTGlyph name="b" xMin="91" yMin="-6" xMax="500" yMax="700">
      <contour>
        <pt x="91" y="700" on="1"/>
        <pt x="166" y="700" on="1"/>
        <pt x="166" y="450" on="1"/>
        <pt x="252" y="511" on="0"/>
        <pt x="320" y="511" on="1"/>
        <pt x="500" y="511" on="0"/>
        <pt x="500" y="252" on="1"/>
        <pt x="500" y="105" on="0"/>
        <pt x="436" y="46" on="1"/>
        <pt x="379" y="-6" on="0"/>
        <pt x="302" y="-6" on="1"/>
        <pt x="263" y="-6" on="0"/>
        <pt x="183" y="29" on="0"/>
        <pt x="157" y="49" on="1"/>
        <pt x="135" y="0" on="1"/>
        <pt x="91" y="0" on="1"/>
      </contour>
      <contour>
        <pt x="166" y="379" on="1"/>
        <pt x="166" y="107" on="1"/>
        <pt x="186" y="84" on="0"/>
        <pt x="253" y="58" on="0"/>
        <pt x="285" y="58" on="1"/>
        <pt x="363" y="58" on="0"/>
        <pt x="425" y="150" on="0"/>
        <pt x="425" y="346" on="0"/>
        <pt x="363" y="446" on="0"/>
        <pt x="315" y="446" on="1"/>
        <pt x="243" y="446" on="0"/>
      </contour>
    </TTGlyph>
    <TTGlyph name="backslash" xMin="39" yMin="-145" xMax="443" yMax="800">
      <contour>
        <pt x="363" y="-145" on="1"/>
        <pt x="39" y="800" on="1"/>
        <pt x="118" y="800" on="1"/>
        <pt x="443" y="-145" on="1"/>
      </contour>
    </TTGlyph>
    <TTGlyph name="bar" xMin="108" yMin="-203" xMax="183" yMax="800">
      <contour>
        <pt x="183" y="-203" on="1"/>
        <pt x="108" y="-203" on="1"/>
        <pt x="108" y="800" on="1"/>
        <pt x="183" y="800" on="1"/>
      </contour>
    </TTGlyph>
    <TTGlyph name="braceleft" xMin="30" yMin="-201" xMax="326" yMax="801">
      <contour>
        <pt x="124" y="145" on="1"/>
        <pt x="124" y="278" on="0"/>
        <pt x="30" y="278" on="1"/>
        <pt x="30" y="324" on="1"/>
        <pt x="84" y="324" on="0"/>
        <pt x="124" y="385" on="0"/>
        <pt x="124" y="451" on="1"/>
        <pt x="124" y="601" on="1"/>
        <pt x="124" y="801" on="0"/>
        <pt x="305" y="801" on="1"/>
        <pt x="326" y="801" on="1"/>
        <pt x="326" y="737" on="1"/>
        <pt x="306" y="737" on="1"/>
        <pt x="244" y="737" on="0"/>
        <pt x="199" y="673" on="0"/>
        <pt x="199" y="591" on="1"/>
        <pt x="199" y="438" on="1"/>
        <pt x="199" y="369" on="0"/>
        <pt x="171" y="317" on="0"/>
        <pt x="123" y="304" on="1"/>
        <pt x="167" y="295" on="0"/>
        <pt x="199" y="235" on="0"/>
        <pt x="199" y="172" on="1"/>
        <pt x="199" y="21" on="1"/>
        <pt x="199" y="-72" on="0"/>
        <pt x="247" y="-137" on="0"/>
        <pt x="309" y="-137" on="1"/>
        <pt x="326" y="-137" on="1"/>
        <pt x="326" y="-201" on="1"/>
        <pt x="303" y="-201" on="1"/>
        <pt x="217" y="-201" on="0"/>
        <pt x="124" y="-111" on="0"/>
        <pt x="124" y="-5" on="1"/>
      </contour>
    </TTGlyph>
    <TTGlyph name="braceright" xMin="30" yMin="-201" xMax="326" yMax="801">
      <contour>
        <pt x="232" y="145" on="1"/>
        <pt x="232" y="-5" on="1"/>
        <pt x="232" y="-111" on="0"/>
        <pt x="139" y="-201" on="0"/>
        <pt x="53" y="-201" on="1"/>
        <pt x="30" y="-201" on="1"/>
        <pt x="30" y="-137" on="1"/>
        <pt x="47" y="-137" on="1"/>
        <pt x="109" y="-137" on="0"/>
        <pt x="157" y="-72" on="0"/>
        <pt x="157" y="21" on="1"/>
        <pt x="157" y="172" on="1"/>
        <pt x="157" y="235" on="0"/>
        <pt x="189" y="295" on="0"/>
        <pt x="233" y="304" on="1"/>
        <pt x="185" y="317" on="0"/>
        <pt x="157" y="369" on="0"/>
        <pt x="157" y="438" on="1"/>
        <pt x="157" y="591" on="1"/>
        <pt x="157" y="673" on="0"/>
        <pt x="112" y="737" on="0"/>
        <pt x="50" y="737" on="1"/>
        <pt x="30" y="737" on="1"/>
        <pt x="30" y="801" on="1"/>
        <pt x="51" y="801" on="1"/>
        <pt x="232" y="801" on="0"/>
        <pt x="232" y="601" on="1"/>
        <pt x="232" y="451" on="1"/>
        <pt x="232" y="385" on="0"/>
        <pt x="272" y="324" on="0"/>
        <pt x="326" y="324" on="1"/>
        <pt x="326" y="278" on="1"/>
        <pt x="232" y="278" on="0"/>
      </contour>
    </TTGlyph>
    <TTGlyph name="bracketleft" xMin="91" yMin="-200" xMax="301" yMax="800">
      <contour>
        <pt x="301" y="-200" on="1"/>
        <pt x="91" y="-200" on="1"/>
        <pt x="91" y="800" on="1"/>
        <pt x="298" y="800" on="1"/>
        <pt x="298" y="735" on="1"/>
        <pt x="166" y="735" on="1"/>
        <pt x="166" y="-136" on="1"/>
        <pt x="301" y="-136" on="1"/>
      </contour>
    </TTGlyph>
    <TTGlyph name="bracketright" xMin="39" yMin="-200" xMax="249" yMax="800">
      <contour>
        <pt x="249" y="-200" on="1"/>
        <pt x="39" y="-200" on="1"/>
        <pt x="39" y="-136" on="1"/>
        <pt x="174" y="-136" on="1"/>
        <pt x="174" y="735" on="1"/>
        <pt x="42" y="735" on="1"/>
        <pt x="42" y="800" on="1"/>
        <pt x="249" y="800" on="1"/>
      </contour>
    </TTGlyph>
    <TTGlyph name="breve" xMin="86" yMin="-5" xMax="314" yMax="115">
      <contour>
        <pt x="164" y="43" on="0"/>
        <pt x="236" y="43" on="0"/>
        <pt x="270" y="75" on="0"/>
        <pt x="270" y="115" on="1"/>
        <pt x="314" y="115" on="1"/>
        <pt x="314" y="102" on="1"/>
        <pt x="314" y="51" on="0"/>
        <pt x="256" y="-5" on="0"/>
        <pt x="144" y="-5" on="0"/>
        <pt x="86" y="51" on="0"/>
        <pt x="86" y="102" on="1"/>
        <pt x="86" y="115" on="1"/>
        <pt x="130" y="115" on="1"/>
        <pt x="130" y="75" on="0"/>
      </contour>
    </TTGlyph>
    <TTGlyph name="brokenbar" xMin="120" yMin="-194" xMax="185" yMax="806">
      <contour>
        <pt x="185" y="413" on="1"/>
        <pt x="120" y="413" on="1"/>
        <pt x="120" y="806" on="1"/>
        <pt x="185" y="806" on="1"/>
      </contour>
      <contour>
        <pt x="185" y="-194" on="1"/>
        <pt x="120" y="-194" on="1"/>
        <pt x="120" y="201" on="1"/>
        <pt x="185" y="201" on="1"/>
      </contour>
    </TTGlyph>
    <TTGlyph name="bullet" xMin="99" yMin="136" xMax="357" yMax="394">
      <contour>
        <pt x="281" y="394" on="0"/>
        <pt x="357" y="318" on="0"/>
        <pt x="357" y="211" on="0"/>
        <pt x="281" y="136" on="0"/>
        <pt x="175" y="136" on="0"/>
        <pt x="99" y="211" on="0"/>
        <pt x="99" y="318" on="0"/>
        <pt x="175" y="394" on="0"/>
      </contour>
    </TTGlyph>
    <TTGlyph name="c" xMin="44" yMin="-5" xMax="400" yMax="510">
      <contour>
        <pt x="385" y="78" on="1"/>
        <pt x="400" y="19" on="1"/>
        <pt x="320" y="-5" on="0"/>
        <pt x="259" y="-5" on="1"/>
        <pt x="152" y="-5" on="0"/>
        <pt x="44" y="135" on="0"/>
        <pt x="44" y="381" on="0"/>
        <pt x="156" y="510" on="0"/>
        <pt x="265" y="510" on="1"/>
        <pt x="312" y="510" on="0"/>
        <pt x="397" y="486" on="1"/>
        <pt x="367" y="428" on="1"/>
        <pt x="312" y="444" on="0"/>
        <pt x="268" y="444" on="1"/>
        <pt x="192" y="444" on="0"/>
        <pt x="125" y="354" on="0"/>
        <pt x="125" y="257" on="1"/>
        <pt x="125" y="60" on="0"/>
        <pt x="266" y="60" on="1"/>
        <pt x="322" y="60" on="0"/>
      </contour>
    </TTGlyph>
    <TTGlyph name="caron" xMin="76" yMin="543" xMax="349" yMax="731">
      <contour>
        <pt x="349" y="690" on="1"/>
        <pt x="210" y="543" on="1"/>
        <pt x="76" y="690" on="1"/>
        <pt x="113" y="731" on="1"/>
        <pt x="213" y="637" on="1"/>
        <pt x="312" y="731" on="1"/>
      </contour>
    </TTGlyph>
    <TTGlyph name="ccedilla" xMin="44" yMin="-182" xMax="400" yMax="510">
      <contour>
        <pt x="221" y="-2" on="1"/>
        <pt x="208" y="0" on="1"/>
        <pt x="126" y="16" on="0"/>
        <pt x="44" y="151" on="0"/>
        <pt x="44" y="381" on="0"/>
        <pt x="156" y="510" on="0"/>
        <pt x="265" y="510" on="1"/>
        <pt x="326" y="506" on="0"/>
        <pt x="397" y="486" on="1"/>
        <pt x="367" y="428" on="1"/>
        <pt x="312" y="444" on="0"/>
        <pt x="268" y="444" on="1"/>
        <pt x="192" y="444" on="0"/>
        <pt x="125" y="354" on="0"/>
        <pt x="125" y="257" on="1"/>
        <pt x="125" y="60" on="0"/>
        <pt x="266" y="60" on="1"/>
        <pt x="322" y="60" on="0"/>
        <pt x="385" y="78" on="1"/>
        <pt x="400" y="19" on="1"/>
        <pt x="392" y="17" on="0"/>
        <pt x="289" y="-5" on="1"/>
        <pt x="289" y="-53" on="0"/>
        <pt x="266" y="-117" on="0"/>
        <pt x="226" y="-182" on="1"/>
        <pt x="177" y="-151" on="1"/>
        <pt x="205" y="-98" on="0"/>
        <pt x="221" y="-47" on="0"/>
      </contour>
    </TTGlyph>
    <TTGlyph name="cedilla" xMin="160" yMin="-177" xMax="272" yMax="0">
      <contour>
        <pt x="272" y="0" on="1"/>
        <pt x="272" y="-48" on="0"/>
        <pt x="249" y="-112" on="0"/>
        <pt x="209" y="-177" on="1"/>
        <pt x="160" y="-146" on="1"/>
        <pt x="186" y="-93" on="0"/>
        <pt x="201" y="-44" on="0"/>
        <pt x="201" y="0" on="1"/>
      </contour>
    </TTGlyph>
    <TTGlyph name="cent" xMin="44" yMin="0" xMax="339" yMax="606">
      <contour>
        <pt x="325" y="173" on="1"/>
        <pt x="338" y="110" on="1"/>
        <pt x="276" y="92" on="0"/>
        <pt x="223" y="92" on="1"/>
        <pt x="223" y="0" on="1"/>
        <pt x="158" y="0" on="1"/>
        <pt x="158" y="94" on="1"/>
        <pt x="44" y="130" on="0"/>
        <pt x="44" y="476" on="0"/>
        <pt x="158" y="509" on="1"/>
        <pt x="158" y="606" on="1"/>
        <pt x="223" y="606" on="1"/>
        <pt x="223" y="510" on="1"/>
        <pt x="275" y="510" on="0"/>
        <pt x="339" y="491" on="1"/>
        <pt x="318" y="431" on="1"/>
        <pt x="274" y="444" on="0"/>
        <pt x="235" y="444" on="1"/>
        <pt x="171" y="444" on="0"/>
        <pt x="119" y="383" on="0"/>
        <pt x="119" y="227" on="0"/>
        <pt x="168" y="158" on="0"/>
        <pt x="274" y="158" on="0"/>
      </contour>
    </TTGlyph>
    <TTGlyph name="circumflex" xMin="85" yMin="691" xMax="406" yMax="820">
      <contour>
        <pt x="223" y="820" on="1"/>
        <pt x="270" y="820" on="1"/>
        <pt x="406" y="720" on="1"/>
        <pt x="387" y="691" on="1"/>
        <pt x="246" y="766" on="1"/>
        <pt x="104" y="691" on="1"/>
        <pt x="85" y="720" on="1"/>
      </contour>
    </TTGlyph>
    <TTGlyph name="colon" xMin="71" yMin="0" xMax="146" yMax="500">
      <contour>
        <pt x="146" y="0" on="1"/>
        <pt x="71" y="0" on="1"/>
        <pt x="71" y="106" on="1"/>
        <pt x="146" y="106" on="1"/>
      </contour>
      <contour>
        <pt x="146" y="394" on="1"/>
        <pt x="71" y="394" on="1"/>
        <pt x="71" y="500" on="1"/>
        <pt x="146" y="500" on="1"/>
      </contour>
    </TTGlyph>
    <TTGlyph name="comma" xMin="25" yMin="-172" xMax="187" yMax="111">
      <contour>
        <pt x="187" y="87" on="1"/>
        <pt x="74" y="-172" on="1"/>
        <pt x="25" y="-156" on="1"/>
        <pt x="112" y="111" on="1"/>
      </contour>
    </TTGlyph>
    <TTGlyph name="copyright" xMin="66" yMin="-19" xMax="484" yMax="529">
      <contour>
        <pt x="351" y="162" on="1"/>
        <pt x="360" y="121" on="1"/>
        <pt x="318" y="109" on="0"/>
        <pt x="281" y="109" on="1"/>
        <pt x="221" y="109" on="0"/>
        <pt x="161" y="187" on="0"/>
        <pt x="161" y="324" on="0"/>
        <pt x="224" y="396" on="0"/>
        <pt x="284" y="396" on="1"/>
        <pt x="300" y="396" on="0"/>
        <pt x="359" y="383" on="1"/>
        <pt x="343" y="343" on="1"/>
        <pt x="309" y="352" on="0"/>
        <pt x="291" y="352" on="1"/>
        <pt x="247" y="352" on="0"/>
        <pt x="212" y="312" on="0"/>
        <pt x="212" y="259" on="1"/>
        <pt x="212" y="152" on="0"/>
        <pt x="290" y="152" on="1"/>
        <pt x="322" y="152" on="0"/>
      </contour>
      <contour>
        <pt x="429" y="353" on="0"/>
        <pt x="344" y="479" on="0"/>
        <pt x="195" y="479" on="0"/>
        <pt x="121" y="354" on="0"/>
        <pt x="121" y="154" on="0"/>
        <pt x="204" y="31" on="0"/>
        <pt x="348" y="31" on="0"/>
        <pt x="429" y="148" on="0"/>
      </contour>
      <contour>
        <pt x="484" y="128" on="0"/>
        <pt x="373" y="-19" on="0"/>
        <pt x="172" y="-19" on="0"/>
        <pt x="66" y="127" on="0"/>
        <pt x="66" y="383" on="0"/>
        <pt x="168" y="529" on="0"/>
        <pt x="369" y="529" on="0"/>
        <pt x="484" y="381" on="0"/>
      </contour>
    </TTGlyph>
    <TTGlyph name="currency" xMin="55" yMin="42" xMax="555" yMax="544">
      <contour>
        <pt x="440" y="101" on="1"/>
        <pt x="386" y="61" on="0"/>
        <pt x="214" y="61" on="0"/>
        <pt x="161" y="105" on="1"/>
        <pt x="106" y="50" on="1"/>
        <pt x="61" y="96" on="1"/>
        <pt x="119" y="154" on="1"/>
        <pt x="86" y="210" on="0"/>
        <pt x="86" y="374" on="0"/>
        <pt x="114" y="429" on="1"/>
        <pt x="55" y="489" on="1"/>
        <pt x="108" y="542" on="1"/>
        <pt x="162" y="488" on="1"/>
        <pt x="216" y="529" on="0"/>
        <pt x="389" y="529" on="0"/>
        <pt x="446" y="481" on="1"/>
        <pt x="509" y="544" on="1"/>
        <pt x="555" y="498" on="1"/>
        <pt x="489" y="432" on="1"/>
        <pt x="524" y="376" on="0"/>
        <pt x="524" y="215" on="0"/>
        <pt x="491" y="157" on="1"/>
        <pt x="553" y="95" on="1"/>
        <pt x="500" y="42" on="1"/>
      </contour>
      <contour>
        <pt x="372" y="464" on="0"/>
        <pt x="228" y="464" on="0"/>
        <pt x="156" y="368" on="0"/>
        <pt x="156" y="219" on="0"/>
        <pt x="236" y="126" on="0"/>
        <pt x="375" y="126" on="0"/>
        <pt x="454" y="213" on="0"/>
        <pt x="454" y="368" on="0"/>
      </contour>
    </TTGlyph>
    <TTGlyph name="d" xMin="42" yMin="-8" xMax="451" yMax="700">
      <contour>
        <pt x="376" y="700" on="1"/>
        <pt x="451" y="700" on="1"/>
        <pt x="451" y="0" on="1"/>
        <pt x="407" y="0" on="1"/>
        <pt x="382" y="57" on="1"/>
        <pt x="290" y="-8" on="0"/>
        <pt x="222" y="-8" on="1"/>
        <pt x="42" y="-8" on="0"/>
        <pt x="42" y="251" on="1"/>
        <pt x="42" y="398" on="0"/>
        <pt x="106" y="456" on="1"/>
        <pt x="163" y="509" on="0"/>
        <pt x="307" y="509" on="0"/>
        <pt x="376" y="460" on="1"/>
      </contour>
      <contour>
        <pt x="376" y="124" on="1"/>
        <pt x="376" y="384" on="1"/>
        <pt x="355" y="409" on="0"/>
        <pt x="286" y="445" on="0"/>
        <pt x="257" y="445" on="1"/>
        <pt x="179" y="445" on="0"/>
        <pt x="117" y="353" on="0"/>
        <pt x="117" y="157" on="0"/>
        <pt x="179" y="57" on="0"/>
        <pt x="227" y="57" on="1"/>
        <pt x="299" y="57" on="0"/>
      </contour>
    </TTGlyph>
    <TTGlyph name="dagger" xMin="43" yMin="78" xMax="459" yMax="740">
      <contour>
        <pt x="285" y="78" on="1"/>
        <pt x="210" y="78" on="1"/>
        <pt x="210" y="499" on="1"/>
        <pt x="43" y="499" on="1"/>
        <pt x="43" y="564" on="1"/>
        <pt x="210" y="564" on="1"/>
        <pt x="210" y="740" on="1"/>
        <pt x="285" y="740" on="1"/>
        <pt x="285" y="564" on="1"/>
        <pt x="459" y="564" on="1"/>
        <pt x="459" y="499" on="1"/>
        <pt x="285" y="499" on="1"/>
      </contour>
    </TTGlyph>
    <TTGlyph name="daggerdbl" xMin="45" yMin="0" xMax="475" yMax="750">
      <contour>
        <pt x="287" y="183" on="1"/>
        <pt x="287" y="0" on="1"/>
        <pt x="222" y="0" on="1"/>
        <pt x="222" y="183" on="1"/>
        <pt x="45" y="183" on="1"/>
        <pt x="45" y="248" on="1"/>
        <pt x="222" y="248" on="1"/>
        <pt x="222" y="510" on="1"/>
        <pt x="45" y="510" on="1"/>
        <pt x="45" y="575" on="1"/>
        <pt x="222" y="575" on="1"/>
        <pt x="222" y="750" on="1"/>
        <pt x="287" y="750" on="1"/>
        <pt x="287" y="575" on="1"/>
        <pt x="475" y="575" on="1"/>
        <pt x="475" y="510" on="1"/>
        <pt x="287" y="510" on="1"/>
        <pt x="287" y="248" on="1"/>
        <pt x="475" y="248" on="1"/>
        <pt x="475" y="183" on="1"/>
      </contour>
    </TTGlyph>
    <TTGlyph name="degree" xMin="58" yMin="444" xMax="392" yMax="776">
      <contour>
        <pt x="295" y="776" on="0"/>
        <pt x="392" y="680" on="0"/>
        <pt x="392" y="541" on="0"/>
        <pt x="294" y="444" on="0"/>
        <pt x="155" y="444" on="0"/>
        <pt x="58" y="540" on="0"/>
        <pt x="58" y="679" on="0"/>
        <pt x="156" y="776" on="0"/>
      </contour>
      <contour>
        <pt x="269" y="501" on="0"/>
        <pt x="331" y="565" on="0"/>
        <pt x="331" y="658" on="0"/>
        <pt x="268" y="722" on="0"/>
        <pt x="180" y="722" on="0"/>
        <pt x="117" y="658" on="0"/>
        <pt x="117" y="566" on="0"/>
        <pt x="180" y="501" on="0"/>
      </contour>
    </TTGlyph>
    <TTGlyph name="dieresis" xMin="123" yMin="709" xMax="373" yMax="815">
      <contour>
        <pt x="123" y="709" on="1"/>
        <pt x="123" y="815" on="1"/>
        <pt x="194" y="815" on="1"/>
        <pt x="194" y="709" on="1"/>
      </contour>
      <contour>
        <pt x="302" y="709" on="1"/>
        <pt x="302" y="815" on="1"/>
        <pt x="373" y="815" on="1"/>
        <pt x="373" y="709" on="1"/>
      </contour>
    </TTGlyph>
    <TTGlyph name="divide" xMin="46" yMin="0" xMax="478" yMax="500">
      <contour>
        <pt x="305" y="0" on="1"/>
        <pt x="230" y="0" on="1"/>
        <pt x="230" y="106" on="1"/>
        <pt x="305" y="106" on="1"/>
      </contour>
      <contour>
        <pt x="305" y="394" on="1"/>
        <pt x="230" y="394" on="1"/>
        <pt x="230" y="500" on="1"/>
        <pt x="305" y="500" on="1"/>
      </contour>
      <contour>
        <pt x="478" y="228" on="1"/>
        <pt x="46" y="228" on="1"/>
        <pt x="46" y="293" on="1"/>
        <pt x="478" y="293" on="1"/>
      </contour>
    </TTGlyph>
    <TTGlyph name="dollar" xMin="62" yMin="-60" xMax="450" yMax="747">
      <contour>
        <pt x="279" y="660" on="1"/>
        <pt x="338" y="653" on="0"/>
        <pt x="387" y="638" on="1"/>
        <pt x="405" y="633" on="1"/>
        <pt x="391" y="573" on="1"/>
        <pt x="336" y="589" on="1"/>
        <pt x="283" y="602" on="0"/>
        <pt x="244" y="602" on="1"/>
        <pt x="141" y="602" on="0"/>
        <pt x="141" y="508" on="1"/>
        <pt x="141" y="438" on="0"/>
        <pt x="250" y="400" on="1"/>
        <pt x="296" y="385" on="0"/>
        <pt x="386" y="349" on="0"/>
        <pt x="450" y="273" on="0"/>
        <pt x="450" y="216" on="1"/>
        <pt x="450" y="138" on="0"/>
        <pt x="361" y="42" on="0"/>
        <pt x="279" y="32" on="1"/>
        <pt x="279" y="-60" on="1"/>
        <pt x="214" y="-60" on="1"/>
        <pt x="214" y="30" on="1"/>
        <pt x="133" y="35" on="0"/>
        <pt x="62" y="79" on="1"/>
        <pt x="84" y="129" on="1"/>
        <pt x="164" y="92" on="0"/>
        <pt x="309" y="92" on="0"/>
        <pt x="384" y="151" on="0"/>
        <pt x="384" y="246" on="0"/>
        <pt x="320" y="300" on="0"/>
        <pt x="229" y="333" on="0"/>
        <pt x="138" y="372" on="0"/>
        <pt x="74" y="448" on="0"/>
        <pt x="74" y="575" on="0"/>
        <pt x="151" y="654" on="0"/>
        <pt x="214" y="660" on="1"/>
        <pt x="214" y="747" on="1"/>
        <pt x="279" y="747" on="1"/>
      </contour>
    </TTGlyph>
    <TTGlyph name="dotaccent" xMin="90" yMin="705" xMax="155" yMax="801">
      <contour>
        <pt x="155" y="705" on="1"/>
        <pt x="90" y="705" on="1"/>
        <pt x="90" y="801" on="1"/>
        <pt x="155" y="801" on="1"/>
      </contour>
    </TTGlyph>
    <TTGlyph name="dotlessi" xMin="77" yMin="0" xMax="152" yMax="500">
      <contour>
        <pt x="77" y="0" on="1"/>
        <pt x="77" y="500" on="1"/>
        <pt x="152" y="500" on="1"/>
        <pt x="152" y="0" on="1"/>
      </contour>
    </TTGlyph>
    <TTGlyph name="e" xMin="44" yMin="-6" xMax="440" yMax="510">
      <contour>
        <pt x="438" y="234" on="1"/>
        <pt x="119" y="234" on="1"/>
        <pt x="119" y="138" on="0"/>
        <pt x="210" y="58" on="0"/>
        <pt x="279" y="58" on="1"/>
        <pt x="314" y="58" on="0"/>
        <pt x="342" y="65" on="0"/>
        <pt x="367" y="72" on="0"/>
        <pt x="372" y="74" on="1"/>
        <pt x="397" y="81" on="0"/>
        <pt x="415" y="87" on="1"/>
        <pt x="427" y="29" on="1"/>
        <pt x="327" y="-6" on="0"/>
        <pt x="271" y="-6" on="1"/>
        <pt x="168" y="-6" on="0"/>
        <pt x="44" y="119" on="0"/>
        <pt x="44" y="370" on="0"/>
        <pt x="161" y="510" on="0"/>
        <pt x="340" y="510" on="0"/>
        <pt x="440" y="394" on="0"/>
        <pt x="440" y="295" on="1"/>
        <pt x="440" y="268" on="0"/>
      </contour>
      <contour>
        <pt x="124" y="291" on="1"/>
        <pt x="368" y="291" on="1"/>
        <pt x="368" y="365" on="0"/>
        <pt x="316" y="445" on="0"/>
        <pt x="187" y="445" on="0"/>
        <pt x="127" y="359" on="0"/>
      </contour>
    </TTGlyph>
    <TTGlyph name="eacute" xMin="44" yMin="-6" xMax="440" yMax="733">
      <contour>
        <pt x="438" y="234" on="1"/>
        <pt x="119" y="234" on="1"/>
        <pt x="119" y="138" on="0"/>
        <pt x="210" y="58" on="0"/>
        <pt x="279" y="58" on="1"/>
        <pt x="314" y="58" on="0"/>
        <pt x="342" y="65" on="0"/>
        <pt x="367" y="72" on="0"/>
        <pt x="372" y="74" on="1"/>
        <pt x="397" y="81" on="0"/>
        <pt x="415" y="87" on="1"/>
        <pt x="427" y="29" on="1"/>
        <pt x="327" y="-6" on="0"/>
        <pt x="271" y="-6" on="1"/>
        <pt x="168" y="-6" on="0"/>
        <pt x="44" y="119" on="0"/>
        <pt x="44" y="370" on="0"/>
        <pt x="161" y="510" on="0"/>
        <pt x="340" y="510" on="0"/>
        <pt x="440" y="394" on="0"/>
        <pt x="440" y="295" on="1"/>
        <pt x="440" y="268" on="0"/>
      </contour>
      <contour>
        <pt x="124" y="291" on="1"/>
        <pt x="368" y="291" on="1"/>
        <pt x="368" y="365" on="0"/>
        <pt x="316" y="445" on="0"/>
        <pt x="187" y="445" on="0"/>
        <pt x="127" y="359" on="0"/>
      </contour>
      <contour>
        <pt x="240" y="571" on="1"/>
        <pt x="182" y="592" on="1"/>
        <pt x="295" y="733" on="1"/>
        <pt x="370" y="703" on="1"/>
      </contour>
    </TTGlyph>
    <TTGlyph name="ecircumflex" xMin="44" yMin="-6" xMax="440" yMax="712">
      <contour>
        <pt x="438" y="234" on="1"/>
        <pt x="119" y="234" on="1"/>
        <pt x="119" y="138" on="0"/>
        <pt x="210" y="58" on="0"/>
        <pt x="279" y="58" on="1"/>
        <pt x="314" y="58" on="0"/>
        <pt x="342" y="65" on="0"/>
        <pt x="367" y="72" on="0"/>
        <pt x="372" y="74" on="1"/>
        <pt x="397" y="81" on="0"/>
        <pt x="415" y="87" on="1"/>
        <pt x="427" y="29" on="1"/>
        <pt x="327" y="-6" on="0"/>
        <pt x="271" y="-6" on="1"/>
        <pt x="168" y="-6" on="0"/>
        <pt x="44" y="119" on="0"/>
        <pt x="44" y="370" on="0"/>
        <pt x="161" y="510" on="0"/>
        <pt x="340" y="510" on="0"/>
        <pt x="440" y="394" on="0"/>
        <pt x="440" y="295" on="1"/>
        <pt x="440" y="268" on="0"/>
      </contour>
      <contour>
        <pt x="124" y="291" on="1"/>
        <pt x="368" y="291" on="1"/>
        <pt x="368" y="365" on="0"/>
        <pt x="316" y="445" on="0"/>
        <pt x="187" y="445" on="0"/>
        <pt x="127" y="359" on="0"/>
      </contour>
      <contour>
        <pt x="226" y="712" on="1"/>
        <pt x="273" y="712" on="1"/>
        <pt x="409" y="612" on="1"/>
        <pt x="390" y="583" on="1"/>
        <pt x="249" y="658" on="1"/>
        <pt x="107" y="583" on="1"/>
        <pt x="88" y="612" on="1"/>
      </contour>
    </TTGlyph>
    <TTGlyph name="edieresis" xMin="44" yMin="-6" xMax="440" yMax="701">
      <contour>
        <pt x="438" y="234" on="1"/>
        <pt x="119" y="234" on="1"/>
        <pt x="119" y="138" on="0"/>
        <pt x="210" y="58" on="0"/>
        <pt x="279" y="58" on="1"/>
        <pt x="314" y="58" on="0"/>
        <pt x="342" y="65" on="0"/>
        <pt x="367" y="72" on="0"/>
        <pt x="372" y="74" on="1"/>
        <pt x="397" y="81" on="0"/>
        <pt x="415" y="87" on="1"/>
        <pt x="427" y="29" on="1"/>
        <pt x="327" y="-6" on="0"/>
        <pt x="271" y="-6" on="1"/>
        <pt x="168" y="-6" on="0"/>
        <pt x="44" y="119" on="0"/>
        <pt x="44" y="370" on="0"/>
        <pt x="161" y="510" on="0"/>
        <pt x="340" y="510" on="0"/>
        <pt x="440" y="394" on="0"/>
        <pt x="440" y="295" on="1"/>
        <pt x="440" y="268" on="0"/>
      </contour>
      <contour>
        <pt x="124" y="291" on="1"/>
        <pt x="368" y="291" on="1"/>
        <pt x="368" y="365" on="0"/>
        <pt x="316" y="445" on="0"/>
        <pt x="187" y="445" on="0"/>
        <pt x="127" y="359" on="0"/>
      </contour>
      <contour>
        <pt x="123" y="595" on="1"/>
        <pt x="123" y="701" on="1"/>
        <pt x="194" y="701" on="1"/>
        <pt x="194" y="595" on="1"/>
      </contour>
      <contour>
        <pt x="302" y="595" on="1"/>
        <pt x="302" y="701" on="1"/>
        <pt x="373" y="701" on="1"/>
        <pt x="373" y="595" on="1"/>
      </contour>
    </TTGlyph>
    <TTGlyph name="egrave" xMin="44" yMin="-6" xMax="440" yMax="733">
      <contour>
        <pt x="438" y="234" on="1"/>
        <pt x="119" y="234" on="1"/>
        <pt x="119" y="138" on="0"/>
        <pt x="210" y="58" on="0"/>
        <pt x="279" y="58" on="1"/>
        <pt x="314" y="58" on="0"/>
        <pt x="342" y="65" on="0"/>
        <pt x="367" y="72" on="0"/>
        <pt x="372" y="74" on="1"/>
        <pt x="397" y="81" on="0"/>
        <pt x="415" y="87" on="1"/>
        <pt x="427" y="29" on="1"/>
        <pt x="327" y="-6" on="0"/>
        <pt x="271" y="-6" on="1"/>
        <pt x="168" y="-6" on="0"/>
        <pt x="44" y="119" on="0"/>
        <pt x="44" y="370" on="0"/>
        <pt x="161" y="510" on="0"/>
        <pt x="340" y="510" on="0"/>
        <pt x="440" y="394" on="0"/>
        <pt x="440" y="295" on="1"/>
        <pt x="440" y="268" on="0"/>
      </contour>
      <contour>
        <pt x="124" y="291" on="1"/>
        <pt x="368" y="291" on="1"/>
        <pt x="368" y="365" on="0"/>
        <pt x="316" y="445" on="0"/>
        <pt x="187" y="445" on="0"/>
        <pt x="127" y="359" on="0"/>
      </contour>
      <contour>
        <pt x="310" y="592" on="1"/>
        <pt x="252" y="571" on="1"/>
        <pt x="122" y="703" on="1"/>
        <pt x="197" y="733" on="1"/>
      </contour>
    </TTGlyph>
    <TTGlyph name="eight" xMin="62" yMin="-6" xMax="521" yMax="710">
      <contour>
        <pt x="393" y="710" on="0"/>
        <pt x="503" y="613" on="0"/>
        <pt x="503" y="473" on="0"/>
        <pt x="440" y="372" on="0"/>
        <pt x="404" y="344" on="1"/>
        <pt x="459" y="315" on="0"/>
        <pt x="521" y="246" on="0"/>
        <pt x="521" y="194" on="1"/>
        <pt x="521" y="99" on="0"/>
        <pt x="396" y="-6" on="0"/>
        <pt x="173" y="-6" on="0"/>
        <pt x="62" y="104" on="0"/>
        <pt x="62" y="185" on="1"/>
        <pt x="62" y="221" on="0"/>
        <pt x="90" y="286" on="0"/>
        <pt x="113" y="308" on="1"/>
        <pt x="154" y="347" on="0"/>
        <pt x="188" y="364" on="1"/>
        <pt x="85" y="421" on="0"/>
        <pt x="85" y="610" on="0"/>
        <pt x="201" y="710" on="0"/>
      </contour>
      <contour>
        <pt x="370" y="286" on="1"/>
        <pt x="335" y="304" on="0"/>
        <pt x="258" y="332" on="1"/>
        <pt x="223" y="317" on="0"/>
        <pt x="194" y="292" on="1"/>
        <pt x="137" y="245" on="0"/>
        <pt x="137" y="131" on="0"/>
        <pt x="213" y="57" on="0"/>
        <pt x="358" y="57" on="0"/>
        <pt x="446" y="127" on="0"/>
        <pt x="446" y="247" on="0"/>
      </contour>
      <contour>
        <pt x="430" y="530" on="1"/>
        <pt x="430" y="580" on="0"/>
        <pt x="358" y="645" on="0"/>
        <pt x="237" y="645" on="0"/>
        <pt x="158" y="580" on="0"/>
        <pt x="158" y="529" on="1"/>
        <pt x="158" y="487" on="0"/>
        <pt x="194" y="450" on="1"/>
        <pt x="221" y="421" on="0"/>
        <pt x="339" y="374" on="1"/>
        <pt x="430" y="442" on="0"/>
      </contour>
    </TTGlyph>
    <TTGlyph name="ellipsis" xMin="55" yMin="0" xMax="672" yMax="106">
      <contour>
        <pt x="130" y="0" on="1"/>
        <pt x="55" y="0" on="1"/>
        <pt x="55" y="106" on="1"/>
        <pt x="130" y="106" on="1"/>
      </contour>
      <contour>
        <pt x="401" y="0" on="1"/>
        <pt x="326" y="0" on="1"/>
        <pt x="326" y="106" on="1"/>
        <pt x="401" y="106" on="1"/>
      </contour>
      <contour>
        <pt x="672" y="0" on="1"/>
        <pt x="597" y="0" on="1"/>
        <pt x="597" y="106" on="1"/>
        <pt x="672" y="106" on="1"/>
      </contour>
    </TTGlyph>
    <TTGlyph name="emdash" xMin="0" yMin="257" xMax="800" yMax="322">
      <contour>
        <pt x="800" y="257" on="1"/>
        <pt x="0" y="257" on="1"/>
        <pt x="0" y="322" on="1"/>
        <pt x="800" y="322" on="1"/>
      </contour>
    </TTGlyph>
    <TTGlyph name="endash" xMin="0" yMin="257" xMax="500" yMax="322">
      <contour>
        <pt x="500" y="257" on="1"/>
        <pt x="0" y="257" on="1"/>
        <pt x="0" y="322" on="1"/>
        <pt x="500" y="322" on="1"/>
      </contour>
    </TTGlyph>
    <TTGlyph name="equal" xMin="75" yMin="163" xMax="505" yMax="426">
      <contour>
        <pt x="505" y="361" on="1"/>
        <pt x="75" y="361" on="1"/>
        <pt x="75" y="426" on="1"/>
        <pt x="505" y="426" on="1"/>
      </contour>
      <contour>
        <pt x="505" y="163" on="1"/>
        <pt x="75" y="163" on="1"/>
        <pt x="75" y="228" on="1"/>
        <pt x="505" y="228" on="1"/>
      </contour>
    </TTGlyph>
    <TTGlyph name="eth" xMin="63" yMin="-6" xMax="516" yMax="758">
      <contour>
        <pt x="441" y="349" on="0"/>
        <pt x="372" y="443" on="0"/>
        <pt x="219" y="443" on="0"/>
        <pt x="160" y="351" on="0"/>
        <pt x="160" y="252" on="1"/>
        <pt x="160" y="59" on="0"/>
        <pt x="297" y="59" on="1"/>
        <pt x="370" y="59" on="0"/>
        <pt x="441" y="153" on="0"/>
      </contour>
      <contour>
        <pt x="379" y="701" on="1"/>
        <pt x="267" y="643" on="1"/>
        <pt x="402" y="515" on="0"/>
        <pt x="516" y="383" on="0"/>
        <pt x="516" y="133" on="0"/>
        <pt x="402" y="-6" on="0"/>
        <pt x="195" y="-6" on="0"/>
        <pt x="83" y="133" on="0"/>
        <pt x="83" y="375" on="0"/>
        <pt x="197" y="510" on="0"/>
        <pt x="308" y="511" on="1"/>
        <pt x="211" y="609" on="1"/>
        <pt x="102" y="548" on="1"/>
        <pt x="63" y="588" on="1"/>
        <pt x="176" y="651" on="1"/>
        <pt x="101" y="713" on="0"/>
        <pt x="86" y="723" on="1"/>
        <pt x="138" y="758" on="1"/>
        <pt x="229" y="681" on="1"/>
        <pt x="341" y="739" on="1"/>
      </contour>
    </TTGlyph>
    <TTGlyph name="exclam" xMin="95" yMin="0" xMax="171" yMax="701">
      <contour>
        <pt x="171" y="190" on="1"/>
        <pt x="96" y="190" on="1"/>
        <pt x="96" y="701" on="1"/>
        <pt x="171" y="701" on="1"/>
      </contour>
      <contour>
        <pt x="170" y="0" on="1"/>
        <pt x="95" y="0" on="1"/>
        <pt x="95" y="93" on="1"/>
        <pt x="170" y="93" on="1"/>
      </contour>
    </TTGlyph>
    <TTGlyph name="exclamdown" xMin="95" yMin="-107" xMax="171" yMax="594">
      <contour>
        <pt x="95" y="404" on="1"/>
        <pt x="170" y="404" on="1"/>
        <pt x="170" y="-107" on="1"/>
        <pt x="95" y="-107" on="1"/>
      </contour>
      <contour>
        <pt x="96" y="594" on="1"/>
        <pt x="171" y="594" on="1"/>
        <pt x="171" y="501" on="1"/>
        <pt x="96" y="501" on="1"/>
      </contour>
    </TTGlyph>
    <TTGlyph name="f" xMin="35" yMin="0" xMax="316" yMax="710">
      <contour>
        <pt x="113" y="500" on="1"/>
        <pt x="113" y="596" on="1"/>
        <pt x="113" y="657" on="0"/>
        <pt x="188" y="710" on="0"/>
        <pt x="275" y="710" on="0"/>
        <pt x="316" y="697" on="1"/>
        <pt x="305" y="643" on="1"/>
        <pt x="272" y="649" on="0"/>
        <pt x="256" y="649" on="1"/>
        <pt x="187" y="649" on="0"/>
        <pt x="187" y="582" on="1"/>
        <pt x="187" y="500" on="1"/>
        <pt x="289" y="500" on="1"/>
        <pt x="289" y="440" on="1"/>
        <pt x="187" y="440" on="1"/>
        <pt x="187" y="0" on="1"/>
        <pt x="112" y="0" on="1"/>
        <pt x="112" y="440" on="1"/>
        <pt x="35" y="440" on="1"/>
        <pt x="35" y="500" on="1"/>
      </contour>
    </TTGlyph>
    <TTGlyph name="fi" xMin="8" yMin="0" xMax="428" yMax="710">
      <contour>
        <pt x="353" y="0" on="1"/>
        <pt x="353" y="439" on="1"/>
        <pt x="160" y="439" on="1"/>
        <pt x="160" y="0" on="1"/>
        <pt x="85" y="0" on="1"/>
        <pt x="85" y="440" on="1"/>
        <pt x="8" y="440" on="1"/>
        <pt x="8" y="500" on="1"/>
        <pt x="86" y="500" on="1"/>
        <pt x="86" y="596" on="1"/>
        <pt x="86" y="657" on="0"/>
        <pt x="161" y="710" on="0"/>
        <pt x="248" y="710" on="0"/>
        <pt x="289" y="697" on="1"/>
        <pt x="278" y="643" on="1"/>
        <pt x="245" y="649" on="0"/>
        <pt x="229" y="649" on="1"/>
        <pt x="160" y="649" on="0"/>
        <pt x="160" y="582" on="1"/>
        <pt x="160" y="500" on="1"/>
        <pt x="428" y="500" on="1"/>
        <pt x="428" y="0" on="1"/>
      </contour>
      <contour>
        <pt x="428" y="699" on="1"/>
        <pt x="428" y="610" on="1"/>
        <pt x="353" y="610" on="1"/>
        <pt x="353" y="699" on="1"/>
      </contour>
    </TTGlyph>
    <TTGlyph name="five" xMin="63" yMin="-6" xMax="504" yMax="700">
      <contour>
        <pt x="342" y="60" on="0"/>
        <pt x="429" y="145" on="0"/>
        <pt x="429" y="291" on="0"/>
        <pt x="325" y="360" on="0"/>
        <pt x="232" y="360" on="1"/>
        <pt x="100" y="361" on="1"/>
        <pt x="124" y="700" on="1"/>
        <pt x="481" y="700" on="1"/>
        <pt x="476" y="635" on="1"/>
        <pt x="188" y="635" on="1"/>
        <pt x="177" y="424" on="1"/>
        <pt x="209" y="425" on="0"/>
        <pt x="240" y="425" on="1"/>
        <pt x="360" y="425" on="0"/>
        <pt x="504" y="322" on="0"/>
        <pt x="504" y="230" on="1"/>
        <pt x="504" y="122" on="0"/>
        <pt x="376" y="-6" on="0"/>
        <pt x="257" y="-6" on="1"/>
        <pt x="208" y="-6" on="0"/>
        <pt x="111" y="20" on="0"/>
        <pt x="87" y="34" on="1"/>
        <pt x="63" y="47" on="1"/>
        <pt x="86" y="100" on="1"/>
        <pt x="176" y="60" on="0"/>
      </contour>
    </TTGlyph>
    <TTGlyph name="fl" xMin="7" yMin="0" xMax="365" yMax="711">
      <contour>
        <pt x="291" y="0" on="1"/>
        <pt x="291" y="640" on="1"/>
        <pt x="244" y="649" on="0"/>
        <pt x="228" y="649" on="1"/>
        <pt x="159" y="649" on="0"/>
        <pt x="159" y="582" on="1"/>
        <pt x="159" y="500" on="1"/>
        <pt x="261" y="500" on="1"/>
        <pt x="261" y="440" on="1"/>
        <pt x="159" y="440" on="1"/>
        <pt x="159" y="0" on="1"/>
        <pt x="84" y="0" on="1"/>
        <pt x="84" y="440" on="1"/>
        <pt x="7" y="440" on="1"/>
        <pt x="7" y="500" on="1"/>
        <pt x="85" y="500" on="1"/>
        <pt x="85" y="596" on="1"/>
        <pt x="85" y="657" on="0"/>
        <pt x="160" y="710" on="0"/>
        <pt x="214" y="710" on="1"/>
        <pt x="235" y="710" on="0"/>
        <pt x="291" y="700" on="1"/>
        <pt x="365" y="711" on="1"/>
        <pt x="365" y="0" on="1"/>
      </contour>
    </TTGlyph>
    <TTGlyph name="flecha0" xMin="20" yMin="-62" xMax="354" yMax="608">
      <contour>
        <pt x="354" y="-62" on="1"/>
        <pt x="20" y="274" on="1"/>
        <pt x="354" y="608" on="1"/>
      </contour>
    </TTGlyph>
    <TTGlyph name="flecha01" xMin="110" yMin="-47" xMax="645" yMax="623">
      <contour>
        <pt x="110" y="-47" on="1"/>
        <pt x="110" y="623" on="1"/>
        <pt x="645" y="288" on="1"/>
      </contour>
      <contour>
        <pt x="185" y="96" on="1"/>
        <pt x="507" y="285" on="1"/>
        <pt x="185" y="488" on="1"/>
      </contour>
    </TTGlyph>
    <TTGlyph name="flecha02" xMin="110" yMin="-47" xMax="1006" yMax="623">
      <contour>
        <pt x="110" y="-47" on="1"/>
        <pt x="110" y="623" on="1"/>
        <pt x="1006" y="280" on="1"/>
      </contour>
      <contour>
        <pt x="184" y="58" on="1"/>
        <pt x="809" y="287" on="1"/>
        <pt x="184" y="510" on="1"/>
      </contour>
    </TTGlyph>
    <TTGlyph name="florin" xMin="-50" yMin="-153" xMax="288" yMax="712">
      <contour>
        <pt x="35" y="442" on="1"/>
        <pt x="55" y="598" on="1"/>
        <pt x="61" y="659" on="0"/>
        <pt x="142" y="712" on="0"/>
        <pt x="252" y="712" on="0"/>
        <pt x="288" y="700" on="1"/>
        <pt x="272" y="646" on="1"/>
        <pt x="242" y="651" on="0"/>
        <pt x="181" y="651" on="0"/>
        <pt x="131" y="615" on="0"/>
        <pt x="127" y="584" on="1"/>
        <pt x="109" y="442" on="1"/>
        <pt x="221" y="442" on="1"/>
        <pt x="214" y="382" on="1"/>
        <pt x="102" y="382" on="1"/>
        <pt x="38" y="-143" on="1"/>
        <pt x="-40" y="-153" on="1"/>
        <pt x="27" y="382" on="1"/>
        <pt x="-50" y="382" on="1"/>
        <pt x="-43" y="442" on="1"/>
      </contour>
    </TTGlyph>
    <TTGlyph name="four" xMin="15" yMin="-1" xMax="486" yMax="700">
      <contour>
        <pt x="331" y="-1" on="1"/>
        <pt x="331" y="131" on="1"/>
        <pt x="15" y="131" on="1"/>
        <pt x="15" y="180" on="1"/>
        <pt x="234" y="700" on="1"/>
        <pt x="309" y="700" on="1"/>
        <pt x="97" y="196" on="1"/>
        <pt x="331" y="196" on="1"/>
        <pt x="331" y="382" on="1"/>
        <pt x="403" y="382" on="1"/>
        <pt x="403" y="196" on="1"/>
        <pt x="486" y="196" on="1"/>
        <pt x="486" y="131" on="1"/>
        <pt x="403" y="131" on="1"/>
        <pt x="403" y="-1" on="1"/>
      </contour>
    </TTGlyph>
    <TTGlyph name="fraction" xMin="-10" yMin="1" xMax="476" yMax="688">
      <contour>
        <pt x="476" y="688" on="1"/>
        <pt x="68" y="1" on="1"/>
        <pt x="-10" y="1" on="1"/>
        <pt x="398" y="688" on="1"/>
      </contour>
    </TTGlyph>
    <TTGlyph name="g" xMin="42" yMin="-240" xMax="451" yMax="510">
      <contour>
        <pt x="375" y="53" on="1"/>
        <pt x="291" y="-7" on="0"/>
        <pt x="222" y="-7" on="1"/>
        <pt x="42" y="-7" on="0"/>
        <pt x="42" y="252" on="1"/>
        <pt x="42" y="399" on="0"/>
        <pt x="106" y="458" on="1"/>
        <pt x="163" y="510" on="0"/>
        <pt x="326" y="510" on="0"/>
        <pt x="381" y="436" on="1"/>
        <pt x="407" y="501" on="1"/>
        <pt x="451" y="501" on="1"/>
        <pt x="451" y="-25" on="1"/>
        <pt x="451" y="-134" on="0"/>
        <pt x="343" y="-240" on="0"/>
        <pt x="251" y="-240" on="1"/>
        <pt x="204" y="-240" on="0"/>
        <pt x="130" y="-216" on="0"/>
        <pt x="90" y="-201" on="1"/>
        <pt x="104" y="-148" on="1"/>
        <pt x="188" y="-175" on="0"/>
        <pt x="301" y="-175" on="0"/>
        <pt x="375" y="-105" on="0"/>
        <pt x="375" y="-34" on="1"/>
      </contour>
      <contour>
        <pt x="375" y="125" on="1"/>
        <pt x="375" y="312" on="1"/>
        <pt x="375" y="371" on="0"/>
        <pt x="297" y="445" on="0"/>
        <pt x="256" y="445" on="1"/>
        <pt x="178" y="445" on="0"/>
        <pt x="116" y="354" on="0"/>
        <pt x="116" y="254" on="1"/>
        <pt x="116" y="58" on="0"/>
        <pt x="226" y="58" on="1"/>
        <pt x="298" y="58" on="0"/>
      </contour>
    </TTGlyph>
    <TTGlyph name="germandbls" xMin="91" yMin="-6" xMax="524" yMax="710">
      <contour>
        <pt x="524" y="198" on="1"/>
        <pt x="524" y="99" on="0"/>
        <pt x="394" y="-6" on="0"/>
        <pt x="274" y="-6" on="1"/>
        <pt x="257" y="-6" on="0"/>
        <pt x="242" y="-1" on="1"/>
        <pt x="242" y="52" on="1"/>
        <pt x="349" y="52" on="0"/>
        <pt x="449" y="129" on="0"/>
        <pt x="449" y="209" on="1"/>
        <pt x="449" y="261" on="0"/>
        <pt x="362" y="342" on="0"/>
        <pt x="282" y="343" on="1"/>
        <pt x="254" y="343" on="1"/>
        <pt x="254" y="407" on="1"/>
        <pt x="281" y="407" on="1"/>
        <pt x="334" y="407" on="0"/>
        <pt x="421" y="477" on="0"/>
        <pt x="421" y="580" on="0"/>
        <pt x="354" y="645" on="0"/>
        <pt x="296" y="645" on="1"/>
        <pt x="215" y="645" on="0"/>
        <pt x="166" y="574" on="0"/>
        <pt x="166" y="498" on="1"/>
        <pt x="166" y="0" on="1"/>
        <pt x="91" y="0" on="1"/>
        <pt x="91" y="532" on="1"/>
        <pt x="91" y="624" on="0"/>
        <pt x="183" y="710" on="0"/>
        <pt x="386" y="710" on="0"/>
        <pt x="496" y="606" on="0"/>
        <pt x="496" y="465" on="0"/>
        <pt x="426" y="390" on="0"/>
        <pt x="363" y="382" on="1"/>
        <pt x="432" y="373" on="0"/>
        <pt x="524" y="274" on="0"/>
      </contour>
    </TTGlyph>
    <TTGlyph name="grave" xMin="76" yMin="571" xMax="264" yMax="733">
      <contour>
        <pt x="264" y="592" on="1"/>
        <pt x="206" y="571" on="1"/>
        <pt x="76" y="703" on="1"/>
        <pt x="151" y="733" on="1"/>
      </contour>
    </TTGlyph>
    <TTGlyph name="graveMAY" xMin="96" yMin="701" xMax="255" yMax="825">
      <contour>
        <pt x="255" y="701" on="1"/>
        <pt x="194" y="701" on="1"/>
        <pt x="96" y="825" on="1"/>
        <pt x="180" y="825" on="1"/>
      </contour>
    </TTGlyph>
    <TTGlyph name="greater" xMin="75" yMin="46" xMax="467" yMax="551">
      <contour>
        <pt x="467" y="270" on="1"/>
        <pt x="75" y="46" on="1"/>
        <pt x="75" y="123" on="1"/>
        <pt x="394" y="298" on="1"/>
        <pt x="75" y="471" on="1"/>
        <pt x="75" y="551" on="1"/>
        <pt x="467" y="326" on="1"/>
      </contour>
    </TTGlyph>
    <TTGlyph name="greaterequal" xMin="8" yMin="-1" xMax="400" yMax="627">
      <contour>
        <pt x="400" y="346" on="1"/>
        <pt x="8" y="122" on="1"/>
        <pt x="8" y="199" on="1"/>
        <pt x="327" y="374" on="1"/>
        <pt x="8" y="547" on="1"/>
        <pt x="8" y="627" on="1"/>
        <pt x="400" y="402" on="1"/>
      </contour>
      <contour>
        <pt x="400" y="-1" on="1"/>
        <pt x="9" y="-1" on="1"/>
        <pt x="9" y="64" on="1"/>
        <pt x="400" y="64" on="1"/>
      </contour>
    </TTGlyph>
    <TTGlyph name="guillemotleft" xMin="60" yMin="78" xMax="436" yMax="518">
      <contour>
        <pt x="436" y="108" on="1"/>
        <pt x="386" y="89" on="1"/>
        <pt x="255" y="297" on="1"/>
        <pt x="387" y="506" on="1"/>
        <pt x="436" y="488" on="1"/>
        <pt x="333" y="299" on="1"/>
      </contour>
      <contour>
        <pt x="249" y="97" on="1"/>
        <pt x="198" y="78" on="1"/>
        <pt x="60" y="297" on="1"/>
        <pt x="200" y="518" on="1"/>
        <pt x="249" y="499" on="1"/>
        <pt x="140" y="299" on="1"/>
      </contour>
    </TTGlyph>
    <TTGlyph name="guillemotright" xMin="75" yMin="78" xMax="451" yMax="518">
      <contour>
        <pt x="75" y="488" on="1"/>
        <pt x="125" y="507" on="1"/>
        <pt x="256" y="299" on="1"/>
        <pt x="124" y="90" on="1"/>
        <pt x="75" y="108" on="1"/>
        <pt x="178" y="297" on="1"/>
      </contour>
      <contour>
        <pt x="262" y="499" on="1"/>
        <pt x="313" y="518" on="1"/>
        <pt x="451" y="299" on="1"/>
        <pt x="311" y="78" on="1"/>
        <pt x="262" y="97" on="1"/>
        <pt x="371" y="297" on="1"/>
      </contour>
    </TTGlyph>
    <TTGlyph name="guilsinglleft" xMin="59" yMin="82" xMax="253" yMax="512">
      <contour>
        <pt x="253" y="105" on="1"/>
        <pt x="197" y="82" on="1"/>
        <pt x="59" y="296" on="1"/>
        <pt x="198" y="512" on="1"/>
        <pt x="253" y="489" on="1"/>
        <pt x="145" y="298" on="1"/>
      </contour>
    </TTGlyph>
    <TTGlyph name="guilsinglright" xMin="78" yMin="82" xMax="272" yMax="512">
      <contour>
        <pt x="78" y="489" on="1"/>
        <pt x="134" y="512" on="1"/>
        <pt x="272" y="298" on="1"/>
        <pt x="133" y="82" on="1"/>
        <pt x="78" y="105" on="1"/>
        <pt x="186" y="296" on="1"/>
      </contour>
    </TTGlyph>
    <TTGlyph name="h" xMin="91" yMin="0" xMax="465" yMax="700">
      <contour>
        <pt x="465" y="0" on="1"/>
        <pt x="390" y="0" on="1"/>
        <pt x="390" y="329" on="1"/>
        <pt x="390" y="450" on="0"/>
        <pt x="289" y="450" on="1"/>
        <pt x="214" y="450" on="0"/>
        <pt x="166" y="402" on="1"/>
        <pt x="166" y="0" on="1"/>
        <pt x="91" y="0" on="1"/>
        <pt x="91" y="700" on="1"/>
        <pt x="165" y="700" on="1"/>
        <pt x="165" y="463" on="1"/>
        <pt x="187" y="481" on="0"/>
        <pt x="212" y="497" on="0"/>
        <pt x="269" y="513" on="0"/>
        <pt x="305" y="513" on="1"/>
        <pt x="374" y="513" on="0"/>
        <pt x="465" y="429" on="0"/>
        <pt x="465" y="351" on="1"/>
      </contour>
    </TTGlyph>
    <TTGlyph name="hbar" xMin="6" yMin="0" xMax="465" yMax="700">
      <contour>
        <pt x="465" y="0" on="1"/>
        <pt x="390" y="0" on="1"/>
        <pt x="390" y="329" on="1"/>
        <pt x="390" y="450" on="0"/>
        <pt x="289" y="450" on="1"/>
        <pt x="214" y="450" on="0"/>
        <pt x="166" y="402" on="1"/>
        <pt x="166" y="0" on="1"/>
        <pt x="91" y="0" on="1"/>
        <pt x="91" y="700" on="1"/>
        <pt x="165" y="700" on="1"/>
        <pt x="165" y="463" on="1"/>
        <pt x="187" y="481" on="0"/>
        <pt x="212" y="497" on="0"/>
        <pt x="269" y="513" on="0"/>
        <pt x="305" y="513" on="1"/>
        <pt x="374" y="513" on="0"/>
        <pt x="465" y="429" on="0"/>
        <pt x="465" y="351" on="1"/>
      </contour>
      <contour>
        <pt x="6" y="585" on="1"/>
        <pt x="6" y="640" on="1"/>
        <pt x="323" y="640" on="1"/>
        <pt x="323" y="585" on="1"/>
      </contour>
    </TTGlyph>
    <TTGlyph name="hungarumlaut" xMin="81" yMin="571" xMax="435" yMax="733">
      <contour>
        <pt x="139" y="571" on="1"/>
        <pt x="81" y="592" on="1"/>
        <pt x="194" y="733" on="1"/>
        <pt x="269" y="703" on="1"/>
      </contour>
      <contour>
        <pt x="305" y="571" on="1"/>
        <pt x="247" y="592" on="1"/>
        <pt x="360" y="733" on="1"/>
        <pt x="435" y="703" on="1"/>
      </contour>
    </TTGlyph>
    <TTGlyph name="hyphen" xMin="48" yMin="254" xMax="239" yMax="329">
      <contour>
        <pt x="239" y="254" on="1"/>
        <pt x="48" y="254" on="1"/>
        <pt x="48" y="329" on="1"/>
        <pt x="239" y="329" on="1"/>
      </contour>
    </TTGlyph>
    <TTGlyph name="i" xMin="77" yMin="0" xMax="152" yMax="700">
      <contour>
        <pt x="77" y="0" on="1"/>
        <pt x="77" y="500" on="1"/>
        <pt x="152" y="500" on="1"/>
        <pt x="152" y="0" on="1"/>
      </contour>
      <contour>
        <pt x="152" y="700" on="1"/>
        <pt x="152" y="611" on="1"/>
        <pt x="77" y="611" on="1"/>
        <pt x="77" y="700" on="1"/>
      </contour>
    </TTGlyph>
    <TTGlyph name="iacute" xMin="77" yMin="0" xMax="269" yMax="733">
      <contour>
        <pt x="77" y="0" on="1"/>
        <pt x="77" y="500" on="1"/>
        <pt x="150" y="500" on="1"/>
        <pt x="150" y="0" on="1"/>
      </contour>
      <contour>
        <pt x="139" y="571" on="1"/>
        <pt x="81" y="592" on="1"/>
        <pt x="194" y="733" on="1"/>
        <pt x="269" y="703" on="1"/>
      </contour>
    </TTGlyph>
    <TTGlyph name="icircumflex" xMin="-46" yMin="0" xMax="275" yMax="712">
      <contour>
        <pt x="77" y="0" on="1"/>
        <pt x="77" y="500" on="1"/>
        <pt x="152" y="500" on="1"/>
        <pt x="152" y="0" on="1"/>
      </contour>
      <contour>
        <pt x="92" y="712" on="1"/>
        <pt x="139" y="712" on="1"/>
        <pt x="275" y="612" on="1"/>
        <pt x="256" y="583" on="1"/>
        <pt x="115" y="658" on="1"/>
        <pt x="-27" y="583" on="1"/>
        <pt x="-46" y="612" on="1"/>
      </contour>
    </TTGlyph>
    <TTGlyph name="idieresis" xMin="-10" yMin="0" xMax="240" yMax="700">
      <contour>
        <pt x="77" y="0" on="1"/>
        <pt x="77" y="500" on="1"/>
        <pt x="152" y="500" on="1"/>
        <pt x="152" y="0" on="1"/>
      </contour>
      <contour>
        <pt x="-10" y="594" on="1"/>
        <pt x="-10" y="700" on="1"/>
        <pt x="61" y="700" on="1"/>
        <pt x="61" y="594" on="1"/>
      </contour>
      <contour>
        <pt x="169" y="594" on="1"/>
        <pt x="169" y="700" on="1"/>
        <pt x="240" y="700" on="1"/>
        <pt x="240" y="594" on="1"/>
      </contour>
    </TTGlyph>
    <TTGlyph name="igrave" xMin="-36" yMin="0" xMax="152" yMax="727">
      <contour>
        <pt x="77" y="0" on="1"/>
        <pt x="77" y="500" on="1"/>
        <pt x="150" y="500" on="1"/>
        <pt x="150" y="0" on="1"/>
      </contour>
      <contour>
        <pt x="152" y="586" on="1"/>
        <pt x="94" y="565" on="1"/>
        <pt x="-36" y="697" on="1"/>
        <pt x="39" y="727" on="1"/>
      </contour>
    </TTGlyph>
    <TTGlyph name="ij" xMin="77" yMin="-239" xMax="374" yMax="700">
      <contour>
        <pt x="77" y="0" on="1"/>
        <pt x="77" y="500" on="1"/>
        <pt x="152" y="500" on="1"/>
        <pt x="152" y="0" on="1"/>
      </contour>
      <contour>
        <pt x="152" y="700" on="1"/>
        <pt x="152" y="611" on="1"/>
        <pt x="77" y="611" on="1"/>
        <pt x="77" y="700" on="1"/>
      </contour>
      <contour>
        <pt x="374" y="700" on="1"/>
        <pt x="374" y="612" on="1"/>
        <pt x="299" y="612" on="1"/>
        <pt x="299" y="700" on="1"/>
      </contour>
      <contour>
        <pt x="258" y="-204" on="1"/>
        <pt x="299" y="-151" on="0"/>
        <pt x="299" y="-34" on="1"/>
        <pt x="299" y="500" on="1"/>
        <pt x="374" y="500" on="1"/>
        <pt x="374" y="-10" on="1"/>
        <pt x="374" y="-96" on="0"/>
        <pt x="341" y="-198" on="0"/>
        <pt x="302" y="-239" on="1"/>
      </contour>
    </TTGlyph>
    <TTGlyph name="infinity" xMin="63" yMin="133" xMax="829" yMax="457">
      <contour>
        <pt x="450" y="338" on="1"/>
        <pt x="561" y="457" on="0"/>
        <pt x="657" y="457" on="1"/>
        <pt x="733" y="457" on="0"/>
        <pt x="829" y="372" on="0"/>
        <pt x="829" y="224" on="0"/>
        <pt x="728" y="133" on="0"/>
        <pt x="652" y="133" on="1"/>
        <pt x="557" y="133" on="0"/>
        <pt x="442" y="254" on="1"/>
        <pt x="332" y="133" on="0"/>
        <pt x="235" y="133" on="1"/>
        <pt x="158" y="133" on="0"/>
        <pt x="63" y="217" on="0"/>
        <pt x="63" y="366" on="0"/>
        <pt x="164" y="457" on="0"/>
        <pt x="241" y="457" on="1"/>
        <pt x="295" y="457" on="0"/>
        <pt x="395" y="393" on="0"/>
      </contour>
      <contour>
        <pt x="394" y="294" on="1"/>
        <pt x="295" y="397" on="0"/>
        <pt x="234" y="397" on="1"/>
        <pt x="186" y="397" on="0"/>
        <pt x="128" y="342" on="0"/>
        <pt x="128" y="249" on="0"/>
        <pt x="186" y="196" on="0"/>
        <pt x="238" y="196" on="1"/>
        <pt x="302" y="196" on="0"/>
      </contour>
      <contour>
        <pt x="492" y="294" on="1"/>
        <pt x="584" y="196" on="0"/>
        <pt x="648" y="196" on="1"/>
        <pt x="700" y="196" on="0"/>
        <pt x="758" y="249" on="0"/>
        <pt x="758" y="342" on="0"/>
        <pt x="700" y="397" on="0"/>
        <pt x="652" y="397" on="1"/>
        <pt x="591" y="397" on="0"/>
      </contour>
    </TTGlyph>
    <TTGlyph name="integral" xMin="7" yMin="-201" xMax="330" yMax="804">
      <contour>
        <pt x="131" y="-73" on="1"/>
        <pt x="132" y="680" on="1"/>
        <pt x="132" y="742" on="0"/>
        <pt x="209" y="804" on="0"/>
        <pt x="296" y="804" on="0"/>
        <pt x="330" y="793" on="1"/>
        <pt x="323" y="744" on="1"/>
        <pt x="275" y="744" on="1"/>
        <pt x="206" y="744" on="0"/>
        <pt x="206" y="676" on="1"/>
        <pt x="206" y="-77" on="1"/>
        <pt x="206" y="-139" on="0"/>
        <pt x="128" y="-201" on="0"/>
        <pt x="41" y="-201" on="0"/>
        <pt x="7" y="-190" on="1"/>
        <pt x="14" y="-141" on="1"/>
        <pt x="62" y="-141" on="1"/>
        <pt x="131" y="-141" on="0"/>
      </contour>
    </TTGlyph>
    <TTGlyph name="itilde" xMin="-52" yMin="0" xMax="281" yMax="707">
      <contour>
        <pt x="77" y="0" on="1"/>
        <pt x="77" y="500" on="1"/>
        <pt x="152" y="500" on="1"/>
        <pt x="152" y="0" on="1"/>
      </contour>
      <contour>
        <pt x="281" y="664" on="1"/>
        <pt x="281" y="657" on="1"/>
        <pt x="260" y="629" on="0"/>
        <pt x="207" y="587" on="0"/>
        <pt x="168" y="587" on="0"/>
        <pt x="52" y="642" on="0"/>
        <pt x="26" y="642" on="0"/>
        <pt x="-3" y="623" on="0"/>
        <pt x="-11" y="614" on="1"/>
        <pt x="-19" y="604" on="1"/>
        <pt x="-52" y="637" on="1"/>
        <pt x="-31" y="664" on="0"/>
        <pt x="21" y="707" on="0"/>
        <pt x="60" y="707" on="0"/>
        <pt x="176" y="652" on="0"/>
        <pt x="202" y="652" on="0"/>
        <pt x="231" y="671" on="0"/>
        <pt x="239" y="680" on="1"/>
        <pt x="247" y="690" on="1"/>
      </contour>
    </TTGlyph>
    <TTGlyph name="j" xMin="30" yMin="-239" xMax="146" yMax="700">
      <contour>
        <pt x="146" y="700" on="1"/>
        <pt x="146" y="612" on="1"/>
        <pt x="71" y="612" on="1"/>
        <pt x="71" y="700" on="1"/>
      </contour>
      <contour>
        <pt x="30" y="-204" on="1"/>
        <pt x="71" y="-151" on="0"/>
        <pt x="71" y="-34" on="1"/>
        <pt x="71" y="500" on="1"/>
        <pt x="146" y="500" on="1"/>
        <pt x="146" y="-10" on="1"/>
        <pt x="146" y="-96" on="0"/>
        <pt x="113" y="-198" on="0"/>
        <pt x="74" y="-239" on="1"/>
      </contour>
    </TTGlyph>
    <TTGlyph name="jcircumflex" xMin="-49" yMin="-239" xMax="272" yMax="712">
      <contour>
        <pt x="30" y="-204" on="1"/>
        <pt x="71" y="-151" on="0"/>
        <pt x="71" y="-34" on="1"/>
        <pt x="71" y="500" on="1"/>
        <pt x="146" y="500" on="1"/>
        <pt x="146" y="-10" on="1"/>
        <pt x="146" y="-96" on="0"/>
        <pt x="113" y="-198" on="0"/>
        <pt x="74" y="-239" on="1"/>
      </contour>
      <contour>
        <pt x="89" y="712" on="1"/>
        <pt x="136" y="712" on="1"/>
        <pt x="272" y="612" on="1"/>
        <pt x="253" y="583" on="1"/>
        <pt x="112" y="658" on="1"/>
        <pt x="-30" y="583" on="1"/>
        <pt x="-49" y="612" on="1"/>
      </contour>
    </TTGlyph>
    <TTGlyph name="k" xMin="91" yMin="0" xMax="486" yMax="700">
      <contour>
        <pt x="91" y="700" on="1"/>
        <pt x="166" y="700" on="1"/>
        <pt x="166" y="288" on="1"/>
        <pt x="380" y="500" on="1"/>
        <pt x="475" y="500" on="1"/>
        <pt x="263" y="297" on="1"/>
        <pt x="486" y="0" on="1"/>
        <pt x="401" y="0" on="1"/>
        <pt x="219" y="250" on="1"/>
        <pt x="166" y="196" on="1"/>
        <pt x="166" y="0" on="1"/>
        <pt x="91" y="0" on="1"/>
      </contour>
    </TTGlyph>
    <TTGlyph name="kcedilla" xMin="91" yMin="-217" xMax="486" yMax="700">
      <component glyphName="k" x="0" y="0" flags="0x1004"/>
      <component glyphName="cedilla" x="38" y="-40" flags="0x1004"/>
    </TTGlyph>
    <TTGlyph name="kgreenlandic" xMin="91" yMin="0" xMax="486" yMax="500">
      <contour>
        <pt x="91" y="500" on="1"/>
        <pt x="166" y="500" on="1"/>
        <pt x="166" y="288" on="1"/>
        <pt x="380" y="500" on="1"/>
        <pt x="475" y="500" on="1"/>
        <pt x="263" y="297" on="1"/>
        <pt x="486" y="0" on="1"/>
        <pt x="401" y="0" on="1"/>
        <pt x="219" y="250" on="1"/>
        <pt x="166" y="196" on="1"/>
        <pt x="166" y="0" on="1"/>
        <pt x="91" y="0" on="1"/>
      </contour>
    </TTGlyph>
    <TTGlyph name="l" xMin="91" yMin="0" xMax="166" yMax="700">
      <contour>
        <pt x="91" y="0" on="1"/>
        <pt x="91" y="700" on="1"/>
        <pt x="166" y="700" on="1"/>
        <pt x="166" y="0" on="1"/>
      </contour>
    </TTGlyph>
    <TTGlyph name="ldot" xMin="91" yMin="0" xMax="335" yMax="700">
      <contour>
        <pt x="91" y="0" on="1"/>
        <pt x="91" y="700" on="1"/>
        <pt x="166" y="700" on="1"/>
        <pt x="166" y="0" on="1"/>
      </contour>
      <contour>
        <pt x="335" y="247" on="1"/>
        <pt x="260" y="247" on="1"/>
        <pt x="260" y="350" on="1"/>
        <pt x="335" y="350" on="1"/>
      </contour>
    </TTGlyph>
    <TTGlyph name="less" xMin="61" yMin="45" xMax="453" yMax="551">
      <contour>
        <pt x="453" y="45" on="1"/>
        <pt x="61" y="269" on="1"/>
        <pt x="61" y="326" on="1"/>
        <pt x="453" y="551" on="1"/>
        <pt x="453" y="471" on="1"/>
        <pt x="134" y="298" on="1"/>
        <pt x="453" y="123" on="1"/>
      </contour>
    </TTGlyph>
    <TTGlyph name="lessequal" xMin="8" yMin="-1" xMax="400" yMax="624">
      <contour>
        <pt x="400" y="118" on="1"/>
        <pt x="8" y="342" on="1"/>
        <pt x="8" y="399" on="1"/>
        <pt x="400" y="624" on="1"/>
        <pt x="400" y="544" on="1"/>
        <pt x="81" y="371" on="1"/>
        <pt x="400" y="196" on="1"/>
      </contour>
      <contour>
        <pt x="400" y="-1" on="1"/>
        <pt x="8" y="-1" on="1"/>
        <pt x="8" y="64" on="1"/>
        <pt x="400" y="64" on="1"/>
      </contour>
    </TTGlyph>
    <TTGlyph name="logicalnot" xMin="38" yMin="125" xMax="467" yMax="334">
      <contour>
        <pt x="467" y="125" on="1"/>
        <pt x="392" y="125" on="1"/>
        <pt x="392" y="269" on="1"/>
        <pt x="38" y="269" on="1"/>
        <pt x="38" y="334" on="1"/>
        <pt x="467" y="334" on="1"/>
      </contour>
    </TTGlyph>
    <TTGlyph name="lozenge" xMin="40" yMin="-1" xMax="503" yMax="701">
      <contour>
        <pt x="503" y="352" on="1"/>
        <pt x="301" y="-1" on="1"/>
        <pt x="240" y="-1" on="1"/>
        <pt x="40" y="350" on="1"/>
        <pt x="242" y="701" on="1"/>
        <pt x="303" y="701" on="1"/>
      </contour>
      <contour>
        <pt x="411" y="350" on="1"/>
        <pt x="271" y="618" on="1"/>
        <pt x="132" y="352" on="1"/>
        <pt x="272" y="85" on="1"/>
      </contour>
    </TTGlyph>
    <TTGlyph name="lslash" xMin="20" yMin="0" xMax="283" yMax="733">
      <contour>
        <pt x="173" y="448" on="1"/>
        <pt x="173" y="0" on="1"/>
        <pt x="103" y="0" on="1"/>
        <pt x="103" y="415" on="1"/>
        <pt x="20" y="365" on="1"/>
        <pt x="20" y="437" on="1"/>
        <pt x="103" y="486" on="1"/>
        <pt x="103" y="733" on="1"/>
        <pt x="173" y="733" on="1"/>
        <pt x="173" y="518" on="1"/>
        <pt x="283" y="584" on="1"/>
        <pt x="283" y="512" on="1"/>
      </contour>
    </TTGlyph>
    <TTGlyph name="m" xMin="91" yMin="0" xMax="759" yMax="511">
      <contour>
        <pt x="302" y="511" on="1"/>
        <pt x="398" y="511" on="0"/>
        <pt x="439" y="443" on="1"/>
        <pt x="524" y="511" on="0"/>
        <pt x="668" y="511" on="0"/>
        <pt x="759" y="430" on="0"/>
        <pt x="759" y="353" on="1"/>
        <pt x="759" y="0" on="1"/>
        <pt x="686" y="0" on="1"/>
        <pt x="686" y="322" on="1"/>
        <pt x="686" y="383" on="0"/>
        <pt x="631" y="446" on="0"/>
        <pt x="585" y="446" on="1"/>
        <pt x="522" y="446" on="0"/>
        <pt x="458" y="396" on="1"/>
        <pt x="463" y="374" on="0"/>
        <pt x="463" y="353" on="1"/>
        <pt x="463" y="0" on="1"/>
        <pt x="390" y="0" on="1"/>
        <pt x="390" y="322" on="1"/>
        <pt x="390" y="383" on="0"/>
        <pt x="335" y="446" on="0"/>
        <pt x="289" y="446" on="1"/>
        <pt x="259" y="446" on="0"/>
        <pt x="209" y="430" on="0"/>
        <pt x="185" y="414" on="0"/>
        <pt x="166" y="398" on="1"/>
        <pt x="166" y="0" on="1"/>
        <pt x="91" y="0" on="1"/>
        <pt x="91" y="500" on="1"/>
        <pt x="139" y="500" on="1"/>
        <pt x="152" y="449" on="1"/>
        <pt x="177" y="470" on="0"/>
        <pt x="204" y="489" on="0"/>
        <pt x="266" y="511" on="0"/>
      </contour>
    </TTGlyph>
    <TTGlyph name="macron" xMin="88" yMin="614" xMax="405" yMax="679">
      <contour>
        <pt x="88" y="614" on="1"/>
        <pt x="88" y="679" on="1"/>
        <pt x="405" y="679" on="1"/>
        <pt x="405" y="614" on="1"/>
      </contour>
    </TTGlyph>
    <TTGlyph name="minus" xMin="69" yMin="275" xMax="501" yMax="340">
      <contour>
        <pt x="501" y="275" on="1"/>
        <pt x="69" y="275" on="1"/>
        <pt x="69" y="340" on="1"/>
        <pt x="501" y="340" on="1"/>
      </contour>
    </TTGlyph>
    <TTGlyph name="mu" xMin="92" yMin="-236" xMax="465" yMax="500">
      <contour>
        <pt x="167" y="10" on="1"/>
        <pt x="167" y="-236" on="1"/>
        <pt x="92" y="-236" on="1"/>
        <pt x="92" y="500" on="1"/>
        <pt x="168" y="500" on="1"/>
        <pt x="168" y="169" on="1"/>
        <pt x="168" y="110" on="0"/>
        <pt x="203" y="57" on="0"/>
        <pt x="247" y="57" on="1"/>
        <pt x="317" y="57" on="0"/>
        <pt x="389" y="127" on="1"/>
        <pt x="389" y="500" on="1"/>
        <pt x="465" y="500" on="1"/>
        <pt x="465" y="0" on="1"/>
        <pt x="421" y="0" on="1"/>
        <pt x="396" y="59" on="1"/>
        <pt x="365" y="37" on="0"/>
        <pt x="348" y="26" on="1"/>
        <pt x="299" y="-6" on="0"/>
        <pt x="249" y="-6" on="1"/>
        <pt x="209" y="-6" on="0"/>
        <pt x="178" y="6" on="1"/>
      </contour>
    </TTGlyph>
    <TTGlyph name="multiply" xMin="55" yMin="42" xMax="555" yMax="544">
      <contour>
        <pt x="555" y="498" on="1"/>
        <pt x="353" y="296" on="1"/>
        <pt x="553" y="95" on="1"/>
        <pt x="500" y="42" on="1"/>
        <pt x="300" y="243" on="1"/>
        <pt x="106" y="50" on="1"/>
        <pt x="61" y="96" on="1"/>
        <pt x="254" y="289" on="1"/>
        <pt x="55" y="489" on="1"/>
        <pt x="108" y="542" on="1"/>
        <pt x="307" y="342" on="1"/>
        <pt x="509" y="544" on="1"/>
      </contour>
    </TTGlyph>
    <TTGlyph name="n" xMin="91" yMin="0" xMax="463" yMax="510">
      <contour>
        <pt x="166" y="397" on="1"/>
        <pt x="166" y="0" on="1"/>
        <pt x="91" y="0" on="1"/>
        <pt x="91" y="500" on="1"/>
        <pt x="139" y="500" on="1"/>
        <pt x="151" y="451" on="1"/>
        <pt x="174" y="469" on="0"/>
        <pt x="203" y="489" on="0"/>
        <pt x="267" y="510" on="0"/>
        <pt x="303" y="510" on="1"/>
        <pt x="372" y="510" on="0"/>
        <pt x="463" y="425" on="0"/>
        <pt x="463" y="347" on="1"/>
        <pt x="463" y="0" on="1"/>
        <pt x="388" y="0" on="1"/>
        <pt x="388" y="325" on="1"/>
        <pt x="388" y="446" on="0"/>
        <pt x="287" y="446" on="1"/>
        <pt x="215" y="446" on="0"/>
      </contour>
    </TTGlyph>
    <TTGlyph name="nacute" xMin="91" yMin="0" xMax="463" yMax="733">
      <component glyphName="n" x="0" y="0" flags="0x1004"/>
      <component glyphName="acute" x="114" y="0" flags="0x1004"/>
    </TTGlyph>
    <TTGlyph name="nine" xMin="53" yMin="-6" xMax="503" yMax="710">
      <contour>
        <pt x="271" y="281" on="1"/>
        <pt x="167" y="281" on="0"/>
        <pt x="53" y="385" on="0"/>
        <pt x="53" y="585" on="0"/>
        <pt x="171" y="710" on="0"/>
        <pt x="271" y="710" on="1"/>
        <pt x="503" y="710" on="0"/>
        <pt x="503" y="394" on="1"/>
        <pt x="503" y="102" on="0"/>
        <pt x="368" y="25" on="1"/>
        <pt x="314" y="-6" on="0"/>
        <pt x="237" y="-6" on="1"/>
        <pt x="198" y="-6" on="0"/>
        <pt x="122" y="10" on="0"/>
        <pt x="104" y="18" on="1"/>
        <pt x="86" y="27" on="1"/>
        <pt x="104" y="87" on="1"/>
        <pt x="174" y="60" on="0"/>
        <pt x="246" y="60" on="1"/>
        <pt x="409" y="60" on="0"/>
        <pt x="425" y="318" on="1"/>
        <pt x="351" y="281" on="0"/>
      </contour>
      <contour>
        <pt x="266" y="645" on="1"/>
        <pt x="203" y="645" on="0"/>
        <pt x="128" y="558" on="0"/>
        <pt x="128" y="491" on="1"/>
        <pt x="128" y="346" on="0"/>
        <pt x="275" y="346" on="1"/>
        <pt x="349" y="346" on="0"/>
        <pt x="428" y="392" on="1"/>
        <pt x="428" y="396" on="1"/>
        <pt x="428" y="518" on="0"/>
        <pt x="352" y="645" on="0"/>
      </contour>
    </TTGlyph>
    <TTGlyph name="notequal" xMin="7" yMin="1" xMax="438" yMax="672">
      <contour>
        <pt x="374" y="672" on="1"/>
        <pt x="290" y="428" on="1"/>
        <pt x="438" y="428" on="1"/>
        <pt x="438" y="363" on="1"/>
        <pt x="268" y="363" on="1"/>
        <pt x="227" y="243" on="1"/>
        <pt x="438" y="243" on="1"/>
        <pt x="438" y="177" on="1"/>
        <pt x="204" y="177" on="1"/>
        <pt x="144" y="1" on="1"/>
        <pt x="74" y="1" on="1"/>
        <pt x="135" y="177" on="1"/>
        <pt x="7" y="177" on="1"/>
        <pt x="7" y="243" on="1"/>
        <pt x="157" y="243" on="1"/>
        <pt x="199" y="363" on="1"/>
        <pt x="7" y="363" on="1"/>
        <pt x="7" y="428" on="1"/>
        <pt x="221" y="428" on="1"/>
        <pt x="305" y="672" on="1"/>
      </contour>
    </TTGlyph>
    <TTGlyph name="ntilde" xMin="91" yMin="0" xMax="463" yMax="699">
      <component glyphName="n" x="0" y="0" flags="0x1004"/>
      <component glyphName="tilde" x="10" y="-104" flags="0x1004"/>
    </TTGlyph>
    <TTGlyph name="numbersign" xMin="30" yMin="0" xMax="588" yMax="700">
      <contour>
        <pt x="588" y="465" on="1"/>
        <pt x="484" y="465" on="1"/>
        <pt x="463" y="256" on="1"/>
        <pt x="561" y="256" on="1"/>
        <pt x="561" y="191" on="1"/>
        <pt x="456" y="191" on="1"/>
        <pt x="437" y="0" on="1"/>
        <pt x="361" y="0" on="1"/>
        <pt x="381" y="191" on="1"/>
        <pt x="222" y="191" on="1"/>
        <pt x="202" y="0" on="1"/>
        <pt x="126" y="0" on="1"/>
        <pt x="146" y="191" on="1"/>
        <pt x="30" y="191" on="1"/>
        <pt x="30" y="256" on="1"/>
        <pt x="152" y="256" on="1"/>
        <pt x="175" y="465" on="1"/>
        <pt x="56" y="465" on="1"/>
        <pt x="56" y="530" on="1"/>
        <pt x="180" y="530" on="1"/>
        <pt x="198" y="700" on="1"/>
        <pt x="274" y="700" on="1"/>
        <pt x="256" y="530" on="1"/>
        <pt x="415" y="530" on="1"/>
        <pt x="433" y="700" on="1"/>
        <pt x="508" y="700" on="1"/>
        <pt x="492" y="530" on="1"/>
        <pt x="588" y="530" on="1"/>
      </contour>
      <contour>
        <pt x="410" y="465" on="1"/>
        <pt x="251" y="465" on="1"/>
        <pt x="228" y="256" on="1"/>
        <pt x="387" y="256" on="1"/>
      </contour>
    </TTGlyph>
    <TTGlyph name="o" xMin="42" yMin="-6" xMax="475" yMax="510">
      <contour>
        <pt x="400" y="343" on="0"/>
        <pt x="324" y="445" on="0"/>
        <pt x="178" y="445" on="0"/>
        <pt x="117" y="348" on="0"/>
        <pt x="117" y="248" on="1"/>
        <pt x="117" y="59" on="0"/>
        <pt x="256" y="59" on="1"/>
        <pt x="329" y="59" on="0"/>
        <pt x="400" y="150" on="0"/>
      </contour>
      <contour>
        <pt x="361" y="-6" on="0"/>
        <pt x="153" y="-6" on="0"/>
        <pt x="42" y="129" on="0"/>
        <pt x="42" y="372" on="0"/>
        <pt x="149" y="510" on="0"/>
        <pt x="356" y="510" on="0"/>
        <pt x="475" y="370" on="0"/>
        <pt x="475" y="130" on="0"/>
      </contour>
    </TTGlyph>
    <TTGlyph name="oacute" xMin="42" yMin="-6" xMax="475" yMax="733">
      <component glyphName="o" x="0" y="0" flags="0x1004"/>
      <component glyphName="acute" x="95" y="0" flags="0x1004"/>
    </TTGlyph>
    <TTGlyph name="ocircumflex" xMin="42" yMin="-6" xMax="475" yMax="712">
      <component glyphName="o" x="0" y="0" flags="0x1004"/>
      <component glyphName="circumflex" x="13" y="-108" flags="0x1004"/>
    </TTGlyph>
    <TTGlyph name="odieresis" xMin="42" yMin="-6" xMax="475" yMax="700">
      <component glyphName="o" x="0" y="0" flags="0x1004"/>
      <component glyphName="dieresis" x="10" y="-115" flags="0x1004"/>
    </TTGlyph>
    <TTGlyph name="oe" xMin="42" yMin="-6" xMax="812" yMax="514">
      <contour>
        <pt x="400" y="347" on="0"/>
        <pt x="324" y="449" on="0"/>
        <pt x="178" y="449" on="0"/>
        <pt x="119" y="352" on="0"/>
        <pt x="119" y="252" on="1"/>
        <pt x="119" y="59" on="0"/>
        <pt x="256" y="59" on="1"/>
        <pt x="329" y="59" on="0"/>
        <pt x="400" y="153" on="0"/>
      </contour>
      <contour>
        <pt x="447" y="404" on="1"/>
        <pt x="475" y="454" on="0"/>
        <pt x="568" y="510" on="0"/>
        <pt x="624" y="510" on="1"/>
        <pt x="712" y="510" on="0"/>
        <pt x="812" y="394" on="0"/>
        <pt x="812" y="295" on="1"/>
        <pt x="812" y="268" on="0"/>
        <pt x="810" y="234" on="1"/>
        <pt x="491" y="234" on="1"/>
        <pt x="491" y="138" on="0"/>
        <pt x="582" y="58" on="0"/>
        <pt x="651" y="58" on="1"/>
        <pt x="686" y="58" on="0"/>
        <pt x="714" y="65" on="0"/>
        <pt x="739" y="72" on="0"/>
        <pt x="744" y="74" on="1"/>
        <pt x="769" y="81" on="0"/>
        <pt x="787" y="87" on="1"/>
        <pt x="799" y="29" on="1"/>
        <pt x="699" y="-6" on="0"/>
        <pt x="643" y="-6" on="1"/>
        <pt x="500" y="-6" on="0"/>
        <pt x="444" y="103" on="1"/>
        <pt x="389" y="-6" on="0"/>
        <pt x="257" y="-6" on="1"/>
        <pt x="154" y="-6" on="0"/>
        <pt x="42" y="133" on="0"/>
        <pt x="42" y="376" on="0"/>
        <pt x="149" y="514" on="0"/>
        <pt x="252" y="514" on="1"/>
        <pt x="312" y="514" on="0"/>
        <pt x="424" y="449" on="0"/>
      </contour>
      <contour>
        <pt x="496" y="291" on="1"/>
        <pt x="740" y="291" on="1"/>
        <pt x="740" y="365" on="0"/>
        <pt x="688" y="445" on="0"/>
        <pt x="559" y="445" on="0"/>
        <pt x="499" y="359" on="0"/>
      </contour>
    </TTGlyph>
    <TTGlyph name="ogonek" xMin="60" yMin="-194" xMax="254" yMax="0">
      <contour>
        <pt x="60" y="-118" on="1"/>
        <pt x="60" y="-48" on="0"/>
        <pt x="136" y="0" on="1"/>
        <pt x="219" y="0" on="1"/>
        <pt x="131" y="-47" on="0"/>
        <pt x="131" y="-101" on="1"/>
        <pt x="131" y="-141" on="0"/>
        <pt x="181" y="-141" on="1"/>
        <pt x="197" y="-141" on="0"/>
        <pt x="241" y="-129" on="1"/>
        <pt x="254" y="-169" on="1"/>
        <pt x="206" y="-194" on="0"/>
        <pt x="157" y="-194" on="1"/>
        <pt x="60" y="-194" on="0"/>
      </contour>
    </TTGlyph>
    <TTGlyph name="ograve" xMin="42" yMin="-6" xMax="475" yMax="733">
      <component glyphName="o" x="0" y="0" flags="0x1004"/>
      <component glyphName="grave" x="62" y="0" flags="0x1004"/>
    </TTGlyph>
    <TTGlyph name="one" xMin="28" yMin="0" xMax="465" yMax="700">
      <contour>
        <pt x="42" y="0" on="1"/>
        <pt x="42" y="65" on="1"/>
        <pt x="237" y="65" on="1"/>
        <pt x="237" y="626" on="1"/>
        <pt x="65" y="515" on="1"/>
        <pt x="28" y="571" on="1"/>
        <pt x="237" y="700" on="1"/>
        <pt x="312" y="700" on="1"/>
        <pt x="312" y="65" on="1"/>
        <pt x="465" y="65" on="1"/>
        <pt x="465" y="0" on="1"/>
      </contour>
    </TTGlyph>
    <TTGlyph name="onehalf" xMin="42" yMin="0" xMax="762" yMax="688">
      <contour>
        <pt x="653" y="688" on="1"/>
        <pt x="245" y="0" on="1"/>
        <pt x="172" y="0" on="1"/>
        <pt x="580" y="688" on="1"/>
      </contour>
      <contour>
        <pt x="762" y="46" on="1"/>
        <pt x="753" y="0" on="1"/>
        <pt x="523" y="0" on="1"/>
        <pt x="523" y="33" on="1"/>
        <pt x="586" y="96" on="0"/>
        <pt x="635" y="148" on="0"/>
        <pt x="678" y="214" on="0"/>
        <pt x="678" y="239" on="1"/>
        <pt x="678" y="295" on="0"/>
        <pt x="617" y="295" on="1"/>
        <pt x="577" y="295" on="0"/>
        <pt x="548" y="287" on="1"/>
        <pt x="537" y="284" on="1"/>
        <pt x="542" y="324" on="1"/>
        <pt x="591" y="338" on="0"/>
        <pt x="686" y="338" on="0"/>
        <pt x="736" y="295" on="0"/>
        <pt x="736" y="209" on="0"/>
        <pt x="674" y="113" on="0"/>
        <pt x="598" y="46" on="1"/>
      </contour>
      <contour>
        <pt x="75" y="316" on="1"/>
        <pt x="75" y="364" on="1"/>
        <pt x="145" y="364" on="1"/>
        <pt x="145" y="600" on="1"/>
        <pt x="62" y="550" on="1"/>
        <pt x="42" y="599" on="1"/>
        <pt x="145" y="662" on="1"/>
        <pt x="195" y="662" on="1"/>
        <pt x="195" y="364" on="1"/>
        <pt x="265" y="364" on="1"/>
        <pt x="265" y="316" on="1"/>
      </contour>
    </TTGlyph>
    <TTGlyph name="onequarter" xMin="55" yMin="0" xMax="811" yMax="688">
      <contour>
        <pt x="653" y="688" on="1"/>
        <pt x="245" y="0" on="1"/>
        <pt x="172" y="0" on="1"/>
        <pt x="580" y="688" on="1"/>
      </contour>
      <contour>
        <pt x="692" y="0" on="1"/>
        <pt x="692" y="85" on="1"/>
        <pt x="489" y="85" on="1"/>
        <pt x="489" y="126" on="1"/>
        <pt x="657" y="427" on="1"/>
        <pt x="715" y="427" on="1"/>
        <pt x="552" y="135" on="1"/>
        <pt x="692" y="135" on="1"/>
        <pt x="692" y="250" on="1"/>
        <pt x="743" y="250" on="1"/>
        <pt x="743" y="134" on="1"/>
        <pt x="811" y="134" on="1"/>
        <pt x="811" y="85" on="1"/>
        <pt x="743" y="85" on="1"/>
        <pt x="743" y="0" on="1"/>
      </contour>
      <contour>
        <pt x="88" y="316" on="1"/>
        <pt x="88" y="364" on="1"/>
        <pt x="157" y="364" on="1"/>
        <pt x="157" y="600" on="1"/>
        <pt x="75" y="550" on="1"/>
        <pt x="55" y="599" on="1"/>
        <pt x="158" y="662" on="1"/>
        <pt x="208" y="662" on="1"/>
        <pt x="208" y="364" on="1"/>
        <pt x="278" y="364" on="1"/>
        <pt x="278" y="316" on="1"/>
      </contour>
    </TTGlyph>
    <TTGlyph name="onesuperior" xMin="53" yMin="316" xMax="276" yMax="662">
      <contour>
        <pt x="206" y="662" on="1"/>
        <pt x="156" y="662" on="1"/>
        <pt x="53" y="599" on="1"/>
        <pt x="73" y="550" on="1"/>
        <pt x="156" y="600" on="1"/>
        <pt x="156" y="341" on="1"/>
        <pt x="206" y="341" on="1"/>
      </contour>
      <contour>
        <pt x="86" y="316" on="1"/>
        <pt x="86" y="364" on="1"/>
        <pt x="276" y="364" on="1"/>
        <pt x="276" y="316" on="1"/>
      </contour>
    </TTGlyph>
    <TTGlyph name="ordfeminine" xMin="52" yMin="234" xMax="293" yMax="685">
      <contour>
        <pt x="293" y="234" on="1"/>
        <pt x="54" y="234" on="1"/>
        <pt x="54" y="289" on="1"/>
        <pt x="293" y="289" on="1"/>
      </contour>
      <contour>
        <pt x="215" y="550" on="1"/>
        <pt x="241" y="549" on="1"/>
        <pt x="241" y="606" on="0"/>
        <pt x="213" y="637" on="0"/>
        <pt x="110" y="637" on="0"/>
        <pt x="77" y="623" on="1"/>
        <pt x="68" y="667" on="1"/>
        <pt x="119" y="685" on="0"/>
        <pt x="177" y="685" on="1"/>
        <pt x="290" y="685" on="0"/>
        <pt x="290" y="573" on="1"/>
        <pt x="290" y="361" on="1"/>
        <pt x="262" y="361" on="1"/>
        <pt x="246" y="399" on="1"/>
        <pt x="216" y="374" on="0"/>
        <pt x="174" y="358" on="0"/>
        <pt x="101" y="358" on="0"/>
        <pt x="52" y="410" on="0"/>
        <pt x="52" y="453" on="1"/>
        <pt x="52" y="550" on="0"/>
      </contour>
      <contour>
        <pt x="238" y="505" on="1"/>
        <pt x="205" y="505" on="1"/>
        <pt x="144" y="505" on="0"/>
        <pt x="101" y="483" on="0"/>
        <pt x="101" y="433" on="0"/>
        <pt x="126" y="405" on="0"/>
        <pt x="147" y="405" on="1"/>
        <pt x="190" y="405" on="0"/>
        <pt x="238" y="450" on="1"/>
      </contour>
    </TTGlyph>
    <TTGlyph name="ordmasculine" xMin="51" yMin="234" xMax="314" yMax="700">
      <contour>
        <pt x="301" y="234" on="1"/>
        <pt x="62" y="234" on="1"/>
        <pt x="62" y="288" on="1"/>
        <pt x="301" y="288" on="1"/>
      </contour>
      <contour>
        <pt x="254" y="582" on="0"/>
        <pt x="218" y="650" on="0"/>
        <pt x="147" y="650" on="0"/>
        <pt x="111" y="582" on="0"/>
        <pt x="111" y="528" on="1"/>
        <pt x="111" y="408" on="0"/>
        <pt x="181" y="408" on="1"/>
        <pt x="254" y="408" on="0"/>
        <pt x="254" y="528" on="1"/>
      </contour>
      <contour>
        <pt x="181" y="700" on="1"/>
        <pt x="314" y="700" on="0"/>
        <pt x="314" y="358" on="0"/>
        <pt x="179" y="358" on="1"/>
        <pt x="114" y="358" on="0"/>
        <pt x="51" y="449" on="0"/>
        <pt x="51" y="600" on="0"/>
        <pt x="115" y="700" on="0"/>
      </contour>
    </TTGlyph>
    <TTGlyph name="oslash" xMin="22" yMin="-43" xMax="530" yMax="545">
      <contour>
        <pt x="389" y="338" on="1"/>
        <pt x="178" y="82" on="1"/>
        <pt x="205" y="59" on="0"/>
        <pt x="256" y="59" on="1"/>
        <pt x="329" y="59" on="0"/>
        <pt x="400" y="153" on="0"/>
        <pt x="400" y="252" on="1"/>
        <pt x="400" y="302" on="0"/>
      </contour>
      <contour>
        <pt x="137" y="139" on="1"/>
        <pt x="361" y="406" on="1"/>
        <pt x="323" y="446" on="0"/>
        <pt x="176" y="446" on="0"/>
        <pt x="117" y="349" on="0"/>
        <pt x="117" y="249" on="1"/>
        <pt x="117" y="197" on="0"/>
      </contour>
      <contour>
        <pt x="530" y="507" on="1"/>
        <pt x="443" y="403" on="1"/>
        <pt x="475" y="342" on="0"/>
        <pt x="475" y="254" on="1"/>
        <pt x="475" y="133" on="0"/>
        <pt x="361" y="-6" on="0"/>
        <pt x="257" y="-6" on="1"/>
        <pt x="186" y="-6" on="0"/>
        <pt x="134" y="30" on="1"/>
        <pt x="74" y="-43" on="1"/>
        <pt x="22" y="1" on="1"/>
        <pt x="90" y="80" on="1"/>
        <pt x="42" y="156" on="0"/>
        <pt x="42" y="376" on="0"/>
        <pt x="149" y="511" on="0"/>
        <pt x="339" y="511" on="0"/>
        <pt x="401" y="457" on="1"/>
        <pt x="473" y="545" on="1"/>
      </contour>
    </TTGlyph>
    <TTGlyph name="otilde" xMin="42" yMin="-6" xMax="475" yMax="700">
      <contour>
        <pt x="178" y="445" on="0"/>
        <pt x="117" y="348" on="0"/>
        <pt x="117" y="248" on="1"/>
        <pt x="117" y="59" on="0"/>
        <pt x="256" y="59" on="1"/>
        <pt x="329" y="59" on="0"/>
        <pt x="400" y="150" on="0"/>
        <pt x="400" y="343" on="0"/>
        <pt x="324" y="445" on="0"/>
      </contour>
      <contour>
        <pt x="361" y="-6" on="0"/>
        <pt x="153" y="-6" on="0"/>
        <pt x="42" y="129" on="0"/>
        <pt x="42" y="372" on="0"/>
        <pt x="149" y="510" on="0"/>
        <pt x="356" y="510" on="0"/>
        <pt x="475" y="370" on="0"/>
        <pt x="475" y="130" on="0"/>
      </contour>
      <contour>
        <pt x="426" y="657" on="1"/>
        <pt x="426" y="650" on="1"/>
        <pt x="405" y="622" on="0"/>
        <pt x="352" y="580" on="0"/>
        <pt x="313" y="580" on="0"/>
        <pt x="197" y="635" on="0"/>
        <pt x="171" y="635" on="0"/>
        <pt x="142" y="616" on="0"/>
        <pt x="134" y="606" on="1"/>
        <pt x="126" y="597" on="1"/>
        <pt x="93" y="630" on="1"/>
        <pt x="114" y="657" on="0"/>
        <pt x="166" y="700" on="0"/>
        <pt x="205" y="700" on="0"/>
        <pt x="321" y="645" on="0"/>
        <pt x="347" y="645" on="0"/>
        <pt x="376" y="664" on="0"/>
        <pt x="384" y="674" on="1"/>
        <pt x="392" y="683" on="1"/>
      </contour>
    </TTGlyph>
    <TTGlyph name="p" xMin="91" yMin="-238" xMax="500" yMax="510">
      <contour>
        <pt x="166" y="-238" on="1"/>
        <pt x="91" y="-238" on="1"/>
        <pt x="91" y="499" on="1"/>
        <pt x="135" y="499" on="1"/>
        <pt x="161" y="443" on="1"/>
        <pt x="203" y="475" on="0"/>
        <pt x="276" y="510" on="0"/>
        <pt x="320" y="510" on="1"/>
        <pt x="500" y="510" on="0"/>
        <pt x="500" y="251" on="1"/>
        <pt x="500" y="104" on="0"/>
        <pt x="436" y="46" on="1"/>
        <pt x="379" y="-7" on="0"/>
        <pt x="234" y="-7" on="0"/>
        <pt x="166" y="41" on="1"/>
      </contour>
      <contour>
        <pt x="166" y="376" on="1"/>
        <pt x="166" y="109" on="1"/>
        <pt x="186" y="85" on="0"/>
        <pt x="254" y="57" on="0"/>
        <pt x="285" y="57" on="1"/>
        <pt x="363" y="57" on="0"/>
        <pt x="425" y="149" on="0"/>
        <pt x="425" y="345" on="0"/>
        <pt x="363" y="445" on="0"/>
        <pt x="315" y="445" on="1"/>
        <pt x="283" y="445" on="0"/>
        <pt x="220" y="419" on="0"/>
        <pt x="189" y="396" on="0"/>
      </contour>
    </TTGlyph>
    <TTGlyph name="paragraph" xMin="70" yMin="-203" xMax="534" yMax="710">
      <contour>
        <pt x="308" y="-203" on="1"/>
        <pt x="243" y="-203" on="1"/>
        <pt x="243" y="358" on="1"/>
        <pt x="165" y="358" on="0"/>
        <pt x="70" y="458" on="0"/>
        <pt x="70" y="604" on="0"/>
        <pt x="166" y="710" on="0"/>
        <pt x="269" y="710" on="1"/>
        <pt x="534" y="710" on="1"/>
        <pt x="534" y="650" on="1"/>
        <pt x="464" y="650" on="1"/>
        <pt x="464" y="-203" on="1"/>
        <pt x="399" y="-203" on="1"/>
        <pt x="399" y="650" on="1"/>
        <pt x="308" y="650" on="1"/>
      </contour>
    </TTGlyph>
    <TTGlyph name="parenleft" xMin="78" yMin="-130" xMax="267" yMax="764">
      <contour>
        <pt x="196" y="-130" on="1"/>
        <pt x="78" y="76" on="0"/>
        <pt x="78" y="557" on="0"/>
        <pt x="201" y="764" on="1"/>
        <pt x="267" y="751" on="1"/>
        <pt x="153" y="540" on="0"/>
        <pt x="153" y="93" on="0"/>
        <pt x="265" y="-118" on="1"/>
      </contour>
    </TTGlyph>
    <TTGlyph name="parenright" xMin="22" yMin="-130" xMax="211" yMax="764">
      <contour>
        <pt x="88" y="764" on="1"/>
        <pt x="211" y="557" on="0"/>
        <pt x="211" y="76" on="0"/>
        <pt x="93" y="-130" on="1"/>
        <pt x="24" y="-118" on="1"/>
        <pt x="136" y="93" on="0"/>
        <pt x="136" y="540" on="0"/>
        <pt x="22" y="751" on="1"/>
      </contour>
    </TTGlyph>
    <TTGlyph name="partialdiff" xMin="7" yMin="-6" xMax="463" yMax="738">
      <contour>
        <pt x="370" y="436" on="1"/>
        <pt x="357" y="512" on="0"/>
        <pt x="198" y="661" on="0"/>
        <pt x="124" y="670" on="1"/>
        <pt x="145" y="738" on="1"/>
        <pt x="291" y="707" on="0"/>
        <pt x="463" y="478" on="0"/>
        <pt x="463" y="314" on="1"/>
        <pt x="463" y="-6" on="0"/>
        <pt x="225" y="-6" on="1"/>
        <pt x="127" y="-6" on="0"/>
        <pt x="7" y="112" on="0"/>
        <pt x="7" y="324" on="0"/>
        <pt x="132" y="448" on="0"/>
        <pt x="235" y="448" on="1"/>
        <pt x="293" y="448" on="0"/>
      </contour>
      <contour>
        <pt x="388" y="309" on="1"/>
        <pt x="388" y="343" on="0"/>
        <pt x="384" y="368" on="1"/>
        <pt x="291" y="383" on="0"/>
        <pt x="171" y="383" on="0"/>
        <pt x="82" y="299" on="0"/>
        <pt x="82" y="152" on="0"/>
        <pt x="158" y="65" on="0"/>
        <pt x="297" y="65" on="0"/>
        <pt x="388" y="186" on="0"/>
      </contour>
    </TTGlyph>
    <TTGlyph name="percent" xMin="45" yMin="-6" xMax="678" yMax="696">
      <contour>
        <pt x="597" y="688" on="1"/>
        <pt x="189" y="1" on="1"/>
        <pt x="111" y="1" on="1"/>
        <pt x="519" y="688" on="1"/>
      </contour>
      <contour>
        <pt x="618" y="218" on="0"/>
        <pt x="582" y="286" on="0"/>
        <pt x="511" y="286" on="0"/>
        <pt x="475" y="218" on="0"/>
        <pt x="475" y="164" on="1"/>
        <pt x="475" y="44" on="0"/>
        <pt x="545" y="44" on="1"/>
        <pt x="618" y="44" on="0"/>
        <pt x="618" y="164" on="1"/>
      </contour>
      <contour>
        <pt x="545" y="336" on="1"/>
        <pt x="678" y="336" on="0"/>
        <pt x="678" y="-6" on="0"/>
        <pt x="543" y="-6" on="1"/>
        <pt x="478" y="-6" on="0"/>
        <pt x="415" y="85" on="0"/>
        <pt x="415" y="236" on="0"/>
        <pt x="479" y="336" on="0"/>
      </contour>
      <contour>
        <pt x="248" y="578" on="0"/>
        <pt x="212" y="646" on="0"/>
        <pt x="141" y="646" on="0"/>
        <pt x="105" y="578" on="0"/>
        <pt x="105" y="524" on="1"/>
        <pt x="105" y="404" on="0"/>
        <pt x="175" y="404" on="1"/>
        <pt x="248" y="404" on="0"/>
        <pt x="248" y="524" on="1"/>
      </contour>
      <contour>
        <pt x="175" y="696" on="1"/>
        <pt x="308" y="696" on="0"/>
        <pt x="308" y="354" on="0"/>
        <pt x="173" y="354" on="1"/>
        <pt x="108" y="354" on="0"/>
        <pt x="45" y="445" on="0"/>
        <pt x="45" y="596" on="0"/>
        <pt x="109" y="696" on="0"/>
      </contour>
    </TTGlyph>
    <TTGlyph name="period" xMin="54" yMin="0" xMax="129" yMax="106">
      <contour>
        <pt x="129" y="0" on="1"/>
        <pt x="54" y="0" on="1"/>
        <pt x="54" y="106" on="1"/>
        <pt x="129" y="106" on="1"/>
      </contour>
    </TTGlyph>
    <TTGlyph name="periodcentered" xMin="53" yMin="247" xMax="128" yMax="350">
      <contour>
        <pt x="128" y="247" on="1"/>
        <pt x="53" y="247" on="1"/>
        <pt x="53" y="350" on="1"/>
        <pt x="128" y="350" on="1"/>
      </contour>
    </TTGlyph>
    <TTGlyph name="perthousand" xMin="45" yMin="-6" xMax="1000" yMax="696">
      <contour>
        <pt x="594" y="688" on="1"/>
        <pt x="186" y="0" on="1"/>
        <pt x="108" y="0" on="1"/>
        <pt x="516" y="688" on="1"/>
      </contour>
      <contour>
        <pt x="618" y="218" on="0"/>
        <pt x="582" y="286" on="0"/>
        <pt x="511" y="286" on="0"/>
        <pt x="475" y="218" on="0"/>
        <pt x="475" y="164" on="1"/>
        <pt x="475" y="44" on="0"/>
        <pt x="545" y="44" on="1"/>
        <pt x="618" y="44" on="0"/>
        <pt x="618" y="164" on="1"/>
      </contour>
      <contour>
        <pt x="545" y="336" on="1"/>
        <pt x="678" y="336" on="0"/>
        <pt x="678" y="-6" on="0"/>
        <pt x="543" y="-6" on="1"/>
        <pt x="478" y="-6" on="0"/>
        <pt x="415" y="85" on="0"/>
        <pt x="415" y="236" on="0"/>
        <pt x="479" y="336" on="0"/>
      </contour>
      <contour>
        <pt x="248" y="578" on="0"/>
        <pt x="212" y="646" on="0"/>
        <pt x="141" y="646" on="0"/>
        <pt x="105" y="578" on="0"/>
        <pt x="105" y="524" on="1"/>
        <pt x="105" y="404" on="0"/>
        <pt x="175" y="404" on="1"/>
        <pt x="248" y="404" on="0"/>
        <pt x="248" y="524" on="1"/>
      </contour>
      <contour>
        <pt x="175" y="696" on="1"/>
        <pt x="308" y="696" on="0"/>
        <pt x="308" y="354" on="0"/>
        <pt x="173" y="354" on="1"/>
        <pt x="108" y="354" on="0"/>
        <pt x="45" y="445" on="0"/>
        <pt x="45" y="596" on="0"/>
        <pt x="109" y="696" on="0"/>
      </contour>
      <contour>
        <pt x="940" y="218" on="0"/>
        <pt x="904" y="286" on="0"/>
        <pt x="833" y="286" on="0"/>
        <pt x="797" y="218" on="0"/>
        <pt x="797" y="164" on="1"/>
        <pt x="797" y="44" on="0"/>
        <pt x="867" y="44" on="1"/>
        <pt x="940" y="44" on="0"/>
        <pt x="940" y="164" on="1"/>
      </contour>
      <contour>
        <pt x="867" y="336" on="1"/>
        <pt x="1000" y="336" on="0"/>
        <pt x="1000" y="-6" on="0"/>
        <pt x="865" y="-6" on="1"/>
        <pt x="800" y="-6" on="0"/>
        <pt x="737" y="85" on="0"/>
        <pt x="737" y="236" on="0"/>
        <pt x="801" y="336" on="0"/>
      </contour>
    </TTGlyph>
    <TTGlyph name="pi" xMin="40" yMin="0" xMax="529" yMax="544">
      <contour>
        <pt x="529" y="544" on="1"/>
        <pt x="529" y="479" on="1"/>
        <pt x="433" y="479" on="1"/>
        <pt x="433" y="0" on="1"/>
        <pt x="359" y="0" on="1"/>
        <pt x="359" y="479" on="1"/>
        <pt x="207" y="479" on="1"/>
        <pt x="207" y="0" on="1"/>
        <pt x="132" y="0" on="1"/>
        <pt x="132" y="479" on="1"/>
        <pt x="40" y="479" on="1"/>
        <pt x="40" y="544" on="1"/>
      </contour>
    </TTGlyph>
    <TTGlyph name="plus" xMin="28" yMin="69" xMax="440" yMax="527">
      <contour>
        <pt x="440" y="262" on="1"/>
        <pt x="267" y="262" on="1"/>
        <pt x="267" y="69" on="1"/>
        <pt x="192" y="69" on="1"/>
        <pt x="192" y="262" on="1"/>
        <pt x="28" y="262" on="1"/>
        <pt x="28" y="327" on="1"/>
        <pt x="192" y="327" on="1"/>
        <pt x="192" y="527" on="1"/>
        <pt x="267" y="527" on="1"/>
        <pt x="267" y="327" on="1"/>
        <pt x="440" y="327" on="1"/>
      </contour>
    </TTGlyph>
    <TTGlyph name="plusminus" xMin="46" yMin="-1" xMax="458" yMax="622">
      <contour>
        <pt x="458" y="357" on="1"/>
        <pt x="285" y="357" on="1"/>
        <pt x="285" y="164" on="1"/>
        <pt x="210" y="164" on="1"/>
        <pt x="210" y="357" on="1"/>
        <pt x="46" y="357" on="1"/>
        <pt x="46" y="422" on="1"/>
        <pt x="210" y="422" on="1"/>
        <pt x="210" y="622" on="1"/>
        <pt x="285" y="622" on="1"/>
        <pt x="285" y="422" on="1"/>
        <pt x="458" y="422" on="1"/>
      </contour>
      <contour>
        <pt x="458" y="-1" on="1"/>
        <pt x="46" y="-1" on="1"/>
        <pt x="46" y="64" on="1"/>
        <pt x="458" y="64" on="1"/>
      </contour>
    </TTGlyph>
    <TTGlyph name="product" xMin="7" yMin="0" xMax="430" yMax="700">
      <contour>
        <pt x="82" y="0" on="1"/>
        <pt x="7" y="0" on="1"/>
        <pt x="7" y="700" on="1"/>
        <pt x="430" y="700" on="1"/>
        <pt x="430" y="0" on="1"/>
        <pt x="355" y="0" on="1"/>
        <pt x="355" y="635" on="1"/>
        <pt x="82" y="635" on="1"/>
      </contour>
    </TTGlyph>
    <TTGlyph name="q" xMin="42" yMin="-240" xMax="451" yMax="510">
      <contour>
        <pt x="376" y="138" on="1"/>
        <pt x="376" y="369" on="1"/>
        <pt x="356" y="400" on="0"/>
        <pt x="268" y="445" on="0"/>
        <pt x="231" y="445" on="1"/>
        <pt x="172" y="445" on="0"/>
        <pt x="117" y="355" on="0"/>
        <pt x="117" y="255" on="1"/>
        <pt x="117" y="58" on="0"/>
        <pt x="247" y="58" on="1"/>
        <pt x="286" y="58" on="0"/>
        <pt x="357" y="102" on="0"/>
      </contour>
      <contour>
        <pt x="451" y="-240" on="1"/>
        <pt x="376" y="-240" on="1"/>
        <pt x="376" y="56" on="1"/>
        <pt x="360" y="40" on="1"/>
        <pt x="344" y="25" on="0"/>
        <pt x="322" y="10" on="0"/>
        <pt x="269" y="-7" on="0"/>
        <pt x="237" y="-7" on="1"/>
        <pt x="154" y="-7" on="0"/>
        <pt x="42" y="111" on="0"/>
        <pt x="42" y="361" on="0"/>
        <pt x="134" y="510" on="0"/>
        <pt x="235" y="510" on="1"/>
        <pt x="306" y="510" on="0"/>
        <pt x="381" y="443" on="1"/>
        <pt x="407" y="500" on="1"/>
        <pt x="451" y="500" on="1"/>
      </contour>
    </TTGlyph>
    <TTGlyph name="question" xMin="80" yMin="0" xMax="398" yMax="710">
      <contour>
        <pt x="342" y="426" on="1"/>
        <pt x="318" y="402" on="0"/>
        <pt x="294" y="380" on="1"/>
        <pt x="237" y="326" on="0"/>
        <pt x="237" y="257" on="1"/>
        <pt x="237" y="194" on="1"/>
        <pt x="163" y="194" on="1"/>
        <pt x="163" y="252" on="1"/>
        <pt x="163" y="296" on="0"/>
        <pt x="196" y="369" on="0"/>
        <pt x="243" y="417" on="0"/>
        <pt x="266" y="440" on="1"/>
        <pt x="323" y="494" on="0"/>
        <pt x="323" y="551" on="1"/>
        <pt x="323" y="644" on="0"/>
        <pt x="212" y="644" on="1"/>
        <pt x="147" y="644" on="0"/>
        <pt x="91" y="625" on="1"/>
        <pt x="80" y="683" on="1"/>
        <pt x="161" y="710" on="0"/>
        <pt x="306" y="710" on="0"/>
        <pt x="398" y="629" on="0"/>
        <pt x="398" y="482" on="0"/>
      </contour>
      <contour>
        <pt x="236" y="0" on="1"/>
        <pt x="161" y="0" on="1"/>
        <pt x="161" y="98" on="1"/>
        <pt x="236" y="98" on="1"/>
      </contour>
    </TTGlyph>
    <TTGlyph name="questiondown" xMin="65" yMin="-108" xMax="383" yMax="608">
      <contour>
        <pt x="122" y="176" on="1"/>
        <pt x="145" y="200" on="0"/>
        <pt x="169" y="222" on="1"/>
        <pt x="226" y="276" on="0"/>
        <pt x="226" y="345" on="1"/>
        <pt x="226" y="408" on="1"/>
        <pt x="300" y="408" on="1"/>
        <pt x="300" y="350" on="1"/>
        <pt x="300" y="306" on="0"/>
        <pt x="267" y="233" on="0"/>
        <pt x="220" y="185" on="0"/>
        <pt x="196" y="162" on="1"/>
        <pt x="140" y="108" on="0"/>
        <pt x="140" y="51" on="1"/>
        <pt x="140" y="-42" on="0"/>
        <pt x="251" y="-42" on="1"/>
        <pt x="316" y="-42" on="0"/>
        <pt x="372" y="-23" on="1"/>
        <pt x="383" y="-81" on="1"/>
        <pt x="302" y="-108" on="0"/>
        <pt x="157" y="-108" on="0"/>
        <pt x="65" y="-27" on="0"/>
        <pt x="65" y="120" on="0"/>
      </contour>
      <contour>
        <pt x="227" y="608" on="1"/>
        <pt x="302" y="608" on="1"/>
        <pt x="302" y="510" on="1"/>
        <pt x="227" y="510" on="1"/>
      </contour>
    </TTGlyph>
    <TTGlyph name="quotedbl" xMin="55" yMin="442" xMax="322" yMax="701">
      <contour>
        <pt x="322" y="442" on="1"/>
        <pt x="247" y="442" on="1"/>
        <pt x="247" y="701" on="1"/>
        <pt x="322" y="701" on="1"/>
      </contour>
      <contour>
        <pt x="130" y="442" on="1"/>
        <pt x="55" y="442" on="1"/>
        <pt x="55" y="701" on="1"/>
        <pt x="130" y="701" on="1"/>
      </contour>
    </TTGlyph>
    <TTGlyph name="quotedblbase" xMin="41" yMin="-159" xMax="407" yMax="122">
      <contour>
        <pt x="407" y="96" on="1"/>
        <pt x="293" y="-159" on="1"/>
        <pt x="240" y="-143" on="1"/>
        <pt x="329" y="120" on="1"/>
      </contour>
      <contour>
        <pt x="205" y="98" on="1"/>
        <pt x="94" y="-159" on="1"/>
        <pt x="41" y="-143" on="1"/>
        <pt x="128" y="122" on="1"/>
      </contour>
    </TTGlyph>
    <TTGlyph name="quotedblleft" xMin="57" yMin="486" xMax="423" yMax="767">
      <contour>
        <pt x="57" y="512" on="1"/>
        <pt x="171" y="767" on="1"/>
        <pt x="224" y="751" on="1"/>
        <pt x="135" y="488" on="1"/>
      </contour>
      <contour>
        <pt x="259" y="510" on="1"/>
        <pt x="370" y="767" on="1"/>
        <pt x="423" y="751" on="1"/>
        <pt x="336" y="486" on="1"/>
      </contour>
    </TTGlyph>
    <TTGlyph name="quotedblright" xMin="41" yMin="486" xMax="407" yMax="767">
      <contour>
        <pt x="407" y="741" on="1"/>
        <pt x="293" y="486" on="1"/>
        <pt x="240" y="502" on="1"/>
        <pt x="329" y="765" on="1"/>
      </contour>
      <contour>
        <pt x="205" y="743" on="1"/>
        <pt x="94" y="486" on="1"/>
        <pt x="41" y="502" on="1"/>
        <pt x="128" y="767" on="1"/>
      </contour>
    </TTGlyph>
    <TTGlyph name="quoteleft" xMin="57" yMin="485" xMax="226" yMax="769">
      <contour>
        <pt x="57" y="510" on="1"/>
        <pt x="171" y="769" on="1"/>
        <pt x="226" y="752" on="1"/>
        <pt x="139" y="485" on="1"/>
      </contour>
    </TTGlyph>
    <TTGlyph name="quoteright" xMin="41" yMin="485" xMax="210" yMax="769">
      <contour>
        <pt x="210" y="745" on="1"/>
        <pt x="97" y="485" on="1"/>
        <pt x="41" y="502" on="1"/>
        <pt x="129" y="769" on="1"/>
      </contour>
    </TTGlyph>
    <TTGlyph name="quotesinglbase" xMin="41" yMin="-162" xMax="210" yMax="122">
      <contour>
        <pt x="210" y="98" on="1"/>
        <pt x="97" y="-162" on="1"/>
        <pt x="41" y="-145" on="1"/>
        <pt x="129" y="122" on="1"/>
      </contour>
    </TTGlyph>
    <TTGlyph name="quotesingle" xMin="55" yMin="367" xMax="130" yMax="626">
      <contour>
        <pt x="130" y="367" on="1"/>
        <pt x="55" y="367" on="1"/>
        <pt x="55" y="626" on="1"/>
        <pt x="130" y="626" on="1"/>
      </contour>
    </TTGlyph>
    <TTGlyph name="r" xMin="91" yMin="0" xMax="348" yMax="510">
      <contour>
        <pt x="166" y="382" on="1"/>
        <pt x="166" y="0" on="1"/>
        <pt x="91" y="0" on="1"/>
        <pt x="91" y="500" on="1"/>
        <pt x="139" y="500" on="1"/>
        <pt x="151" y="441" on="1"/>
        <pt x="199" y="479" on="0"/>
        <pt x="263" y="510" on="0"/>
        <pt x="304" y="510" on="1"/>
        <pt x="324" y="510" on="0"/>
        <pt x="334" y="508" on="1"/>
        <pt x="348" y="504" on="1"/>
        <pt x="336" y="435" on="1"/>
        <pt x="318" y="441" on="0"/>
        <pt x="287" y="441" on="1"/>
        <pt x="227" y="441" on="0"/>
      </contour>
    </TTGlyph>
    <TTGlyph name="radical" xMin="1" yMin="0" xMax="579" yMax="800">
      <contour>
        <pt x="226" y="0" on="1"/>
        <pt x="107" y="435" on="1"/>
        <pt x="1" y="435" on="1"/>
        <pt x="1" y="500" on="1"/>
        <pt x="166" y="500" on="1"/>
        <pt x="282" y="75" on="1"/>
        <pt x="497" y="800" on="1"/>
        <pt x="579" y="800" on="1"/>
        <pt x="331" y="0" on="1"/>
      </contour>
    </TTGlyph>
    <TTGlyph name="rcaron" xMin="52" yMin="0" xMax="373" yMax="718">
      <contour>
        <pt x="235" y="589" on="1"/>
        <pt x="188" y="589" on="1"/>
        <pt x="52" y="689" on="1"/>
        <pt x="71" y="718" on="1"/>
        <pt x="212" y="643" on="1"/>
        <pt x="354" y="718" on="1"/>
        <pt x="373" y="689" on="1"/>
      </contour>
      <contour>
        <pt x="166" y="382" on="1"/>
        <pt x="166" y="0" on="1"/>
        <pt x="91" y="0" on="1"/>
        <pt x="91" y="500" on="1"/>
        <pt x="139" y="500" on="1"/>
        <pt x="151" y="441" on="1"/>
        <pt x="199" y="479" on="0"/>
        <pt x="263" y="510" on="0"/>
        <pt x="304" y="510" on="1"/>
        <pt x="324" y="510" on="0"/>
        <pt x="334" y="508" on="1"/>
        <pt x="348" y="504" on="1"/>
        <pt x="336" y="435" on="1"/>
        <pt x="318" y="441" on="0"/>
        <pt x="287" y="441" on="1"/>
        <pt x="227" y="441" on="0"/>
      </contour>
    </TTGlyph>
    <TTGlyph name="rcommaaccent" xMin="52" yMin="-217" xMax="348" yMax="510">
      <component glyphName="r" x="0" y="0" flags="0x1004"/>
      <component glyphName="cedilla" x="-108" y="-40" flags="0x1004"/>
    </TTGlyph>
    <TTGlyph name="registered" xMin="66" yMin="164" xMax="484" yMax="712">
      <contour>
        <pt x="345" y="662" on="0"/>
        <pt x="195" y="662" on="0"/>
        <pt x="121" y="537" on="0"/>
        <pt x="121" y="337" on="0"/>
        <pt x="204" y="214" on="0"/>
        <pt x="348" y="214" on="0"/>
        <pt x="434" y="332" on="0"/>
        <pt x="434" y="535" on="0"/>
      </contour>
      <contour>
        <pt x="484" y="311" on="0"/>
        <pt x="373" y="164" on="0"/>
        <pt x="172" y="164" on="0"/>
        <pt x="66" y="310" on="0"/>
        <pt x="66" y="566" on="0"/>
        <pt x="168" y="712" on="0"/>
        <pt x="369" y="712" on="0"/>
        <pt x="484" y="564" on="0"/>
      </contour>
      <contour>
        <pt x="238" y="426" on="1"/>
        <pt x="226" y="426" on="1"/>
        <pt x="226" y="305" on="1"/>
        <pt x="186" y="305" on="1"/>
        <pt x="186" y="584" on="1"/>
        <pt x="272" y="584" on="1"/>
        <pt x="357" y="584" on="0"/>
        <pt x="357" y="512" on="1"/>
        <pt x="357" y="489" on="0"/>
        <pt x="323" y="449" on="0"/>
        <pt x="299" y="447" on="1"/>
        <pt x="318" y="442" on="0"/>
        <pt x="333" y="426" on="0"/>
        <pt x="347" y="399" on="1"/>
        <pt x="389" y="305" on="1"/>
        <pt x="343" y="305" on="1"/>
        <pt x="306" y="384" on="1"/>
        <pt x="294" y="409" on="0"/>
        <pt x="266" y="426" on="0"/>
      </contour>
      <contour>
        <pt x="273" y="550" on="1"/>
        <pt x="226" y="550" on="1"/>
        <pt x="226" y="473" on="1"/>
        <pt x="267" y="473" on="1"/>
        <pt x="317" y="473" on="0"/>
        <pt x="317" y="550" on="0"/>
      </contour>
    </TTGlyph>
    <TTGlyph name="ring" xMin="87" yMin="552" xMax="311" yMax="772">
      <contour>
        <pt x="143" y="772" on="0"/>
        <pt x="253" y="772" on="0"/>
        <pt x="311" y="711" on="0"/>
        <pt x="311" y="611" on="0"/>
        <pt x="255" y="552" on="0"/>
        <pt x="143" y="552" on="0"/>
        <pt x="87" y="611" on="0"/>
        <pt x="87" y="711" on="0"/>
      </contour>
      <contour>
        <pt x="199" y="728" on="1"/>
        <pt x="143" y="728" on="0"/>
        <pt x="143" y="663" on="1"/>
        <pt x="143" y="632" on="0"/>
        <pt x="167" y="598" on="0"/>
        <pt x="232" y="598" on="0"/>
        <pt x="257" y="632" on="0"/>
        <pt x="257" y="663" on="1"/>
        <pt x="257" y="728" on="0"/>
      </contour>
    </TTGlyph>
    <TTGlyph name="s" xMin="54" yMin="-6" xMax="391" yMax="510">
      <contour>
        <pt x="72" y="89" on="1"/>
        <pt x="137" y="59" on="0"/>
        <pt x="255" y="59" on="0"/>
        <pt x="316" y="106" on="0"/>
        <pt x="316" y="184" on="0"/>
        <pt x="264" y="227" on="0"/>
        <pt x="189" y="251" on="0"/>
        <pt x="114" y="279" on="0"/>
        <pt x="62" y="335" on="0"/>
        <pt x="62" y="378" on="1"/>
        <pt x="62" y="441" on="0"/>
        <pt x="144" y="510" on="0"/>
        <pt x="284" y="510" on="0"/>
        <pt x="344" y="489" on="1"/>
        <pt x="351" y="486" on="1"/>
        <pt x="338" y="422" on="1"/>
        <pt x="278" y="445" on="0"/>
        <pt x="175" y="445" on="0"/>
        <pt x="137" y="413" on="0"/>
        <pt x="137" y="375" on="1"/>
        <pt x="137" y="351" on="0"/>
        <pt x="189" y="317" on="0"/>
        <pt x="264" y="292" on="0"/>
        <pt x="339" y="259" on="0"/>
        <pt x="391" y="193" on="0"/>
        <pt x="391" y="145" on="1"/>
        <pt x="391" y="75" on="0"/>
        <pt x="293" y="-6" on="0"/>
        <pt x="121" y="-6" on="0"/>
        <pt x="54" y="33" on="1"/>
      </contour>
    </TTGlyph>
    <TTGlyph name="scaron" xMin="54" yMin="-6" xMax="391" yMax="718">
      <contour>
        <pt x="243" y="589" on="1"/>
        <pt x="196" y="589" on="1"/>
        <pt x="60" y="689" on="1"/>
        <pt x="79" y="718" on="1"/>
        <pt x="220" y="643" on="1"/>
        <pt x="362" y="718" on="1"/>
        <pt x="381" y="689" on="1"/>
      </contour>
      <contour>
        <pt x="72" y="89" on="1"/>
        <pt x="137" y="59" on="0"/>
        <pt x="255" y="59" on="0"/>
        <pt x="316" y="106" on="0"/>
        <pt x="316" y="184" on="0"/>
        <pt x="264" y="227" on="0"/>
        <pt x="189" y="251" on="0"/>
        <pt x="114" y="279" on="0"/>
        <pt x="62" y="335" on="0"/>
        <pt x="62" y="378" on="1"/>
        <pt x="62" y="441" on="0"/>
        <pt x="144" y="510" on="0"/>
        <pt x="284" y="510" on="0"/>
        <pt x="344" y="489" on="1"/>
        <pt x="351" y="486" on="1"/>
        <pt x="338" y="422" on="1"/>
        <pt x="278" y="445" on="0"/>
        <pt x="175" y="445" on="0"/>
        <pt x="137" y="413" on="0"/>
        <pt x="137" y="375" on="1"/>
        <pt x="137" y="351" on="0"/>
        <pt x="189" y="317" on="0"/>
        <pt x="264" y="292" on="0"/>
        <pt x="339" y="259" on="0"/>
        <pt x="391" y="193" on="0"/>
        <pt x="391" y="145" on="1"/>
        <pt x="391" y="75" on="0"/>
        <pt x="293" y="-6" on="0"/>
        <pt x="121" y="-6" on="0"/>
        <pt x="54" y="33" on="1"/>
      </contour>
    </TTGlyph>
    <TTGlyph name="section" xMin="76" yMin="-157" xMax="524" yMax="710">
      <contour>
        <pt x="246" y="436" on="1"/>
        <pt x="151" y="374" on="0"/>
        <pt x="151" y="312" on="1"/>
        <pt x="151" y="274" on="0"/>
        <pt x="219" y="224" on="0"/>
        <pt x="345" y="173" on="0"/>
        <pt x="373" y="155" on="1"/>
        <pt x="378" y="159" on="0"/>
        <pt x="400" y="174" on="0"/>
        <pt x="408" y="180" on="0"/>
        <pt x="425" y="193" on="0"/>
        <pt x="431" y="202" on="0"/>
        <pt x="442" y="217" on="0"/>
        <pt x="444" y="224" on="1"/>
        <pt x="449" y="243" on="0"/>
        <pt x="449" y="290" on="0"/>
        <pt x="425" y="333" on="0"/>
        <pt x="378" y="365" on="0"/>
        <pt x="332" y="390" on="0"/>
        <pt x="266" y="423" on="0"/>
      </contour>
      <contour>
        <pt x="147" y="-49" on="1"/>
        <pt x="216" y="-92" on="0"/>
        <pt x="352" y="-92" on="0"/>
        <pt x="415" y="-42" on="0"/>
        <pt x="415" y="42" on="0"/>
        <pt x="345" y="101" on="0"/>
        <pt x="246" y="140" on="0"/>
        <pt x="146" y="183" on="0"/>
        <pt x="76" y="259" on="0"/>
        <pt x="76" y="312" on="1"/>
        <pt x="76" y="397" on="0"/>
        <pt x="195" y="477" on="1"/>
        <pt x="158" y="514" on="0"/>
        <pt x="158" y="562" on="1"/>
        <pt x="158" y="638" on="0"/>
        <pt x="245" y="710" on="0"/>
        <pt x="333" y="710" on="1"/>
        <pt x="394" y="710" on="0"/>
        <pt x="448" y="690" on="1"/>
        <pt x="465" y="683" on="1"/>
        <pt x="453" y="621" on="1"/>
        <pt x="394" y="645" on="0"/>
        <pt x="342" y="645" on="1"/>
        <pt x="234" y="645" on="0"/>
        <pt x="234" y="559" on="1"/>
        <pt x="234" y="507" on="0"/>
        <pt x="336" y="456" on="1"/>
        <pt x="379" y="435" on="0"/>
        <pt x="464" y="388" on="0"/>
        <pt x="524" y="313" on="0"/>
        <pt x="524" y="219" on="0"/>
        <pt x="482" y="155" on="0"/>
        <pt x="428" y="117" on="1"/>
        <pt x="490" y="71" on="0"/>
        <pt x="490" y="-69" on="0"/>
        <pt x="379" y="-157" on="0"/>
        <pt x="280" y="-157" on="1"/>
        <pt x="243" y="-157" on="0"/>
        <pt x="156" y="-131" on="0"/>
        <pt x="128" y="-114" on="1"/>
      </contour>
    </TTGlyph>
    <TTGlyph name="semicolon" xMin="43" yMin="-170" xMax="205" yMax="500">
      <contour>
        <pt x="205" y="394" on="1"/>
        <pt x="130" y="394" on="1"/>
        <pt x="130" y="500" on="1"/>
        <pt x="205" y="500" on="1"/>
      </contour>
      <contour>
        <pt x="205" y="89" on="1"/>
        <pt x="92" y="-170" on="1"/>
        <pt x="43" y="-154" on="1"/>
        <pt x="133" y="113" on="1"/>
      </contour>
    </TTGlyph>
    <TTGlyph name="seven" xMin="26" yMin="0" xMax="477" yMax="700">
      <contour>
        <pt x="26" y="625" on="1"/>
        <pt x="26" y="700" on="1"/>
        <pt x="477" y="700" on="1"/>
        <pt x="477" y="625" on="1"/>
        <pt x="167" y="0" on="1"/>
        <pt x="84" y="0" on="1"/>
        <pt x="393" y="625" on="1"/>
      </contour>
    </TTGlyph>
    <TTGlyph name="six" xMin="72" yMin="-6" xMax="522" yMax="710">
      <contour>
        <pt x="304" y="423" on="1"/>
        <pt x="408" y="423" on="0"/>
        <pt x="522" y="319" on="0"/>
        <pt x="522" y="119" on="0"/>
        <pt x="404" y="-6" on="0"/>
        <pt x="304" y="-6" on="1"/>
        <pt x="72" y="-6" on="0"/>
        <pt x="72" y="310" on="1"/>
        <pt x="72" y="602" on="0"/>
        <pt x="207" y="679" on="1"/>
        <pt x="261" y="710" on="0"/>
        <pt x="338" y="710" on="1"/>
        <pt x="377" y="710" on="0"/>
        <pt x="453" y="694" on="0"/>
        <pt x="471" y="686" on="1"/>
        <pt x="489" y="677" on="1"/>
        <pt x="471" y="617" on="1"/>
        <pt x="401" y="644" on="0"/>
        <pt x="329" y="644" on="1"/>
        <pt x="240" y="644" on="0"/>
        <pt x="157" y="506" on="0"/>
        <pt x="149" y="386" on="1"/>
        <pt x="233" y="423" on="0"/>
      </contour>
      <contour>
        <pt x="309" y="59" on="1"/>
        <pt x="372" y="59" on="0"/>
        <pt x="447" y="146" on="0"/>
        <pt x="447" y="213" on="1"/>
        <pt x="447" y="358" on="0"/>
        <pt x="300" y="358" on="1"/>
        <pt x="224" y="358" on="0"/>
        <pt x="147" y="311" on="1"/>
        <pt x="147" y="187" on="0"/>
        <pt x="223" y="59" on="0"/>
      </contour>
    </TTGlyph>
    <TTGlyph name="slash" xMin="47" yMin="-145" xMax="451" yMax="800">
      <contour>
        <pt x="451" y="800" on="1"/>
        <pt x="127" y="-145" on="1"/>
        <pt x="47" y="-145" on="1"/>
        <pt x="372" y="800" on="1"/>
      </contour>
    </TTGlyph>
    <TTGlyph name="sterling" xMin="60" yMin="0" xMax="475" yMax="711">
      <contour>
        <pt x="203" y="415" on="1"/>
        <pt x="370" y="415" on="1"/>
        <pt x="370" y="350" on="1"/>
        <pt x="203" y="350" on="1"/>
        <pt x="203" y="65" on="1"/>
        <pt x="475" y="65" on="1"/>
        <pt x="475" y="0" on="1"/>
        <pt x="128" y="0" on="1"/>
        <pt x="128" y="350" on="1"/>
        <pt x="60" y="350" on="1"/>
        <pt x="60" y="415" on="1"/>
        <pt x="128" y="415" on="1"/>
        <pt x="128" y="596" on="1"/>
        <pt x="128" y="657" on="0"/>
        <pt x="206" y="711" on="0"/>
        <pt x="261" y="711" on="1"/>
        <pt x="291" y="711" on="0"/>
        <pt x="335" y="697" on="1"/>
        <pt x="324" y="643" on="1"/>
        <pt x="291" y="649" on="0"/>
        <pt x="242" y="649" on="0"/>
        <pt x="203" y="611" on="0"/>
        <pt x="203" y="574" on="1"/>
      </contour>
    </TTGlyph>
    <TTGlyph name="summation" xMin="7" yMin="0" xMax="369" yMax="700">
      <contour>
        <pt x="369" y="0" on="1"/>
        <pt x="7" y="0" on="1"/>
        <pt x="7" y="61" on="1"/>
        <pt x="211" y="339" on="1"/>
        <pt x="17" y="640" on="1"/>
        <pt x="17" y="700" on="1"/>
        <pt x="358" y="700" on="1"/>
        <pt x="358" y="635" on="1"/>
        <pt x="106" y="635" on="1"/>
        <pt x="295" y="343" on="1"/>
        <pt x="92" y="65" on="1"/>
        <pt x="369" y="65" on="1"/>
      </contour>
    </TTGlyph>
    <TTGlyph name="t" xMin="35" yMin="-6" xMax="306" yMax="643">
      <contour>
        <pt x="103" y="108" on="1"/>
        <pt x="103" y="440" on="1"/>
        <pt x="35" y="440" on="1"/>
        <pt x="35" y="500" on="1"/>
        <pt x="104" y="500" on="1"/>
        <pt x="104" y="643" on="1"/>
        <pt x="179" y="643" on="1"/>
        <pt x="179" y="500" on="1"/>
        <pt x="301" y="500" on="1"/>
        <pt x="301" y="440" on="1"/>
        <pt x="178" y="440" on="1"/>
        <pt x="178" y="122" on="1"/>
        <pt x="178" y="55" on="0"/>
        <pt x="246" y="55" on="1"/>
        <pt x="262" y="55" on="0"/>
        <pt x="295" y="61" on="1"/>
        <pt x="306" y="7" on="1"/>
        <pt x="265" y="-6" on="0"/>
        <pt x="178" y="-6" on="0"/>
        <pt x="103" y="47" on="0"/>
      </contour>
    </TTGlyph>
    <TTGlyph name="thorn" xMin="91" yMin="-201" xMax="500" yMax="700">
      <contour>
        <pt x="91" y="700" on="1"/>
        <pt x="166" y="700" on="1"/>
        <pt x="166" y="450" on="1"/>
        <pt x="252" y="511" on="0"/>
        <pt x="320" y="511" on="1"/>
        <pt x="500" y="511" on="0"/>
        <pt x="500" y="252" on="1"/>
        <pt x="500" y="105" on="0"/>
        <pt x="436" y="46" on="1"/>
        <pt x="379" y="-6" on="0"/>
        <pt x="229" y="-6" on="0"/>
        <pt x="165" y="44" on="1"/>
        <pt x="165" y="-201" on="1"/>
        <pt x="91" y="-201" on="1"/>
      </contour>
      <contour>
        <pt x="166" y="379" on="1"/>
        <pt x="166" y="107" on="1"/>
        <pt x="186" y="84" on="0"/>
        <pt x="253" y="58" on="0"/>
        <pt x="285" y="58" on="1"/>
        <pt x="363" y="58" on="0"/>
        <pt x="425" y="150" on="0"/>
        <pt x="425" y="346" on="0"/>
        <pt x="363" y="446" on="0"/>
        <pt x="315" y="446" on="1"/>
        <pt x="243" y="446" on="0"/>
      </contour>
    </TTGlyph>
    <TTGlyph name="three" xMin="49" yMin="-6" xMax="474" yMax="710">
      <contour>
        <pt x="136" y="391" on="1"/>
        <pt x="231" y="391" on="1"/>
        <pt x="299" y="391" on="0"/>
        <pt x="376" y="467" on="0"/>
        <pt x="376" y="524" on="1"/>
        <pt x="376" y="645" on="0"/>
        <pt x="242" y="645" on="1"/>
        <pt x="208" y="645" on="0"/>
        <pt x="128" y="624" on="0"/>
        <pt x="104" y="614" on="1"/>
        <pt x="81" y="604" on="1"/>
        <pt x="67" y="662" on="1"/>
        <pt x="102" y="682" on="0"/>
        <pt x="197" y="710" on="0"/>
        <pt x="239" y="710" on="1"/>
        <pt x="346" y="710" on="0"/>
        <pt x="451" y="614" on="0"/>
        <pt x="451" y="467" on="0"/>
        <pt x="376" y="370" on="0"/>
        <pt x="317" y="359" on="1"/>
        <pt x="386" y="349" on="0"/>
        <pt x="474" y="263" on="0"/>
        <pt x="474" y="197" on="1"/>
        <pt x="474" y="101" on="0"/>
        <pt x="346" y="-6" on="0"/>
        <pt x="231" y="-6" on="1"/>
        <pt x="183" y="-6" on="0"/>
        <pt x="92" y="18" on="0"/>
        <pt x="70" y="30" on="1"/>
        <pt x="49" y="41" on="1"/>
        <pt x="74" y="97" on="1"/>
        <pt x="156" y="59" on="0"/>
        <pt x="317" y="59" on="0"/>
        <pt x="398" y="128" on="0"/>
        <pt x="398" y="250" on="0"/>
        <pt x="311" y="326" on="0"/>
        <pt x="231" y="326" on="1"/>
        <pt x="136" y="326" on="1"/>
      </contour>
    </TTGlyph>
    <TTGlyph name="threequarters" xMin="83" yMin="0" xMax="811" yMax="688">
      <contour>
        <pt x="128" y="504" on="1"/>
        <pt x="169" y="504" on="1"/>
        <pt x="205" y="504" on="0"/>
        <pt x="245" y="537" on="0"/>
        <pt x="245" y="594" on="0"/>
        <pt x="215" y="613" on="0"/>
        <pt x="186" y="613" on="1"/>
        <pt x="138" y="613" on="0"/>
        <pt x="112" y="596" on="1"/>
        <pt x="102" y="590" on="1"/>
        <pt x="92" y="636" on="1"/>
        <pt x="133" y="661" on="0"/>
        <pt x="238" y="661" on="0"/>
        <pt x="293" y="611" on="0"/>
        <pt x="293" y="534" on="0"/>
        <pt x="254" y="483" on="0"/>
        <pt x="223" y="477" on="1"/>
        <pt x="259" y="472" on="0"/>
        <pt x="305" y="427" on="0"/>
        <pt x="305" y="343" on="0"/>
        <pt x="238" y="286" on="0"/>
        <pt x="178" y="286" on="1"/>
        <pt x="153" y="286" on="0"/>
        <pt x="105" y="298" on="0"/>
        <pt x="94" y="304" on="1"/>
        <pt x="83" y="311" on="1"/>
        <pt x="96" y="354" on="1"/>
        <pt x="126" y="336" on="0"/>
        <pt x="166" y="336" on="1"/>
        <pt x="254" y="336" on="0"/>
        <pt x="254" y="388" on="1"/>
        <pt x="254" y="451" on="0"/>
        <pt x="167" y="451" on="1"/>
        <pt x="128" y="451" on="1"/>
      </contour>
      <contour>
        <pt x="692" y="0" on="1"/>
        <pt x="692" y="85" on="1"/>
        <pt x="489" y="85" on="1"/>
        <pt x="489" y="126" on="1"/>
        <pt x="657" y="427" on="1"/>
        <pt x="715" y="427" on="1"/>
        <pt x="552" y="135" on="1"/>
        <pt x="692" y="135" on="1"/>
        <pt x="692" y="250" on="1"/>
        <pt x="744" y="250" on="1"/>
        <pt x="744" y="134" on="1"/>
        <pt x="811" y="134" on="1"/>
        <pt x="811" y="85" on="1"/>
        <pt x="743" y="85" on="1"/>
        <pt x="743" y="0" on="1"/>
      </contour>
      <contour>
        <pt x="653" y="688" on="1"/>
        <pt x="245" y="0" on="1"/>
        <pt x="172" y="0" on="1"/>
        <pt x="580" y="688" on="1"/>
      </contour>
    </TTGlyph>
    <TTGlyph name="threesuperior" xMin="96" yMin="287" xMax="318" yMax="662">
      <contour>
        <pt x="141" y="505" on="1"/>
        <pt x="182" y="505" on="1"/>
        <pt x="218" y="505" on="0"/>
        <pt x="258" y="538" on="0"/>
        <pt x="258" y="595" on="0"/>
        <pt x="228" y="614" on="0"/>
        <pt x="199" y="614" on="1"/>
        <pt x="155" y="614" on="0"/>
        <pt x="124" y="596" on="1"/>
        <pt x="115" y="591" on="1"/>
        <pt x="105" y="637" on="1"/>
        <pt x="146" y="662" on="0"/>
        <pt x="251" y="662" on="0"/>
        <pt x="306" y="612" on="0"/>
        <pt x="306" y="535" on="0"/>
        <pt x="267" y="484" on="0"/>
        <pt x="236" y="478" on="1"/>
        <pt x="272" y="473" on="0"/>
        <pt x="318" y="428" on="0"/>
        <pt x="318" y="344" on="0"/>
        <pt x="251" y="287" on="0"/>
        <pt x="191" y="287" on="1"/>
        <pt x="166" y="287" on="0"/>
        <pt x="118" y="300" on="0"/>
        <pt x="107" y="306" on="1"/>
        <pt x="96" y="312" on="1"/>
        <pt x="109" y="355" on="1"/>
        <pt x="139" y="337" on="0"/>
        <pt x="180" y="337" on="1"/>
        <pt x="267" y="337" on="0"/>
        <pt x="267" y="389" on="1"/>
        <pt x="267" y="452" on="0"/>
        <pt x="180" y="452" on="1"/>
        <pt x="141" y="452" on="1"/>
      </contour>
    </TTGlyph>
    <TTGlyph name="tilde" xMin="100" yMin="683" xMax="433" yMax="803">
      <contour>
        <pt x="433" y="760" on="1"/>
        <pt x="433" y="753" on="1"/>
        <pt x="412" y="725" on="0"/>
        <pt x="359" y="683" on="0"/>
        <pt x="320" y="683" on="0"/>
        <pt x="204" y="738" on="0"/>
        <pt x="178" y="738" on="0"/>
        <pt x="149" y="719" on="0"/>
        <pt x="141" y="710" on="1"/>
        <pt x="133" y="700" on="1"/>
        <pt x="100" y="733" on="1"/>
        <pt x="121" y="760" on="0"/>
        <pt x="173" y="803" on="0"/>
        <pt x="212" y="803" on="0"/>
        <pt x="328" y="748" on="0"/>
        <pt x="354" y="748" on="0"/>
        <pt x="383" y="767" on="0"/>
        <pt x="391" y="776" on="1"/>
        <pt x="399" y="786" on="1"/>
      </contour>
    </TTGlyph>
    <TTGlyph name="trademark" xMin="50" yMin="418" xMax="629" yMax="700">
      <contour>
        <pt x="629" y="418" on="1"/>
        <pt x="575" y="418" on="1"/>
        <pt x="575" y="612" on="1"/>
        <pt x="484" y="495" on="1"/>
        <pt x="474" y="495" on="1"/>
        <pt x="393" y="612" on="1"/>
        <pt x="393" y="418" on="1"/>
        <pt x="340" y="418" on="1"/>
        <pt x="340" y="700" on="1"/>
        <pt x="397" y="700" on="1"/>
        <pt x="484" y="570" on="1"/>
        <pt x="575" y="700" on="1"/>
        <pt x="629" y="700" on="1"/>
      </contour>
      <contour>
        <pt x="129" y="418" on="1"/>
        <pt x="129" y="648" on="1"/>
        <pt x="50" y="648" on="1"/>
        <pt x="50" y="700" on="1"/>
        <pt x="266" y="700" on="1"/>
        <pt x="266" y="648" on="1"/>
        <pt x="185" y="648" on="1"/>
        <pt x="185" y="418" on="1"/>
      </contour>
    </TTGlyph>
    <TTGlyph name="two" xMin="57" yMin="0" xMax="470" yMax="710">
      <contour>
        <pt x="470" y="65" on="1"/>
        <pt x="469" y="0" on="1"/>
        <pt x="57" y="0" on="1"/>
        <pt x="57" y="72" on="1"/>
        <pt x="225" y="243" on="0"/>
        <pt x="378" y="451" on="0"/>
        <pt x="378" y="527" on="1"/>
        <pt x="378" y="645" on="0"/>
        <pt x="247" y="645" on="1"/>
        <pt x="176" y="645" on="0"/>
        <pt x="106" y="629" on="1"/>
        <pt x="84" y="624" on="1"/>
        <pt x="70" y="682" on="1"/>
        <pt x="146" y="710" on="0"/>
        <pt x="348" y="710" on="0"/>
        <pt x="454" y="619" on="0"/>
        <pt x="454" y="444" on="0"/>
        <pt x="305" y="223" on="0"/>
        <pt x="151" y="65" on="1"/>
      </contour>
    </TTGlyph>
    <TTGlyph name="twosuperior" xMin="101" yMin="323" xMax="340" yMax="662">
      <contour>
        <pt x="340" y="370" on="1"/>
        <pt x="331" y="323" on="1"/>
        <pt x="101" y="323" on="1"/>
        <pt x="101" y="355" on="1"/>
        <pt x="163" y="417" on="0"/>
        <pt x="188" y="444" on="1"/>
        <pt x="256" y="519" on="0"/>
        <pt x="256" y="563" on="1"/>
        <pt x="256" y="619" on="0"/>
        <pt x="195" y="619" on="1"/>
        <pt x="155" y="619" on="0"/>
        <pt x="126" y="611" on="1"/>
        <pt x="115" y="608" on="1"/>
        <pt x="120" y="648" on="1"/>
        <pt x="169" y="662" on="0"/>
        <pt x="264" y="662" on="0"/>
        <pt x="314" y="619" on="0"/>
        <pt x="314" y="533" on="0"/>
        <pt x="252" y="437" on="0"/>
        <pt x="176" y="370" on="1"/>
      </contour>
    </TTGlyph>
    <TTGlyph name="u" xMin="81" yMin="-6" xMax="453" yMax="500">
      <contour>
        <pt x="377" y="127" on="1"/>
        <pt x="377" y="500" on="1"/>
        <pt x="453" y="500" on="1"/>
        <pt x="453" y="0" on="1"/>
        <pt x="409" y="0" on="1"/>
        <pt x="384" y="59" on="1"/>
        <pt x="304" y="-6" on="0"/>
        <pt x="158" y="-6" on="0"/>
        <pt x="81" y="79" on="0"/>
        <pt x="81" y="157" on="1"/>
        <pt x="81" y="500" on="1"/>
        <pt x="156" y="500" on="1"/>
        <pt x="156" y="169" on="1"/>
        <pt x="156" y="110" on="0"/>
        <pt x="191" y="58" on="0"/>
        <pt x="272" y="58" on="0"/>
        <pt x="356" y="102" on="0"/>
      </contour>
    </TTGlyph>
    <TTGlyph name="uacute" xMin="91" yMin="-6" xMax="463" yMax="733">
      <contour>
        <pt x="387" y="127" on="1"/>
        <pt x="387" y="500" on="1"/>
        <pt x="463" y="500" on="1"/>
        <pt x="463" y="0" on="1"/>
        <pt x="419" y="0" on="1"/>
        <pt x="394" y="59" on="1"/>
        <pt x="314" y="-6" on="0"/>
        <pt x="168" y="-6" on="0"/>
        <pt x="91" y="79" on="0"/>
        <pt x="91" y="157" on="1"/>
        <pt x="91" y="500" on="1"/>
        <pt x="166" y="500" on="1"/>
        <pt x="166" y="169" on="1"/>
        <pt x="166" y="110" on="0"/>
        <pt x="201" y="58" on="0"/>
        <pt x="282" y="58" on="0"/>
        <pt x="366" y="102" on="0"/>
      </contour>
      <contour>
        <pt x="271" y="571" on="1"/>
        <pt x="213" y="592" on="1"/>
        <pt x="326" y="733" on="1"/>
        <pt x="401" y="703" on="1"/>
      </contour>
    </TTGlyph>
</ttFont>
